<?xml version="1.0" encoding="UTF-8" standalone="no"?>
<!DOCTYPE svg PUBLIC "-//W3C//DTD SVG 1.1//EN"
 "http://www.w3.org/Graphics/SVG/1.1/DTD/svg11.dtd">
<!-- Generated by graphviz version 2.43.0 (0)
 -->
<!-- Title: G Pages: 1 -->
<svg width="2550pt" height="211pt"
 viewBox="0.00 0.00 612.00 50.70" xmlns="http://www.w3.org/2000/svg" xmlns:xlink="http://www.w3.org/1999/xlink">
<g id="graph0" class="graph" transform="scale(0.92 0.92) rotate(0) translate(4 189.32)">
<title>G</title>
<polygon fill="white" stroke="transparent" points="-4,4 -4,-189.32 2329.73,-189.32 2329.73,4 -4,4"/>
<!-- nt0 -->
<g id="node1" class="node">
<title>nt0</title>
<ellipse fill="none" stroke="black" cx="55.9" cy="-49.32" rx="55.79" ry="18"/>
<text text-anchor="middle" x="55.9" y="-45.62" font-family="Times,serif" font-size="14.00">grammar&#39;</text>
</g>
<!-- nt9 -->
<g id="node10" class="node">
<title>nt9</title>
<ellipse fill="none" stroke="black" cx="201.74" cy="-49.32" rx="53.89" ry="18"/>
<text text-anchor="middle" x="201.74" y="-45.62" font-family="Times,serif" font-size="14.00">grammar</text>
</g>
<!-- nt0&#45;&gt;nt9 -->
<g id="edge1" class="edge">
<title>nt0&#45;&gt;nt9</title>
<path fill="none" stroke="black" d="M112.1,-49.32C120.32,-49.32 128.85,-49.32 137.23,-49.32"/>
<polygon fill="black" stroke="black" points="137.34,-52.82 147.34,-49.32 137.34,-45.82 137.34,-52.82"/>
</g>
<!-- nt1 -->
<g id="node2" class="node">
<title>nt1</title>
<ellipse fill="none" stroke="black" cx="1932.01" cy="-104.32" rx="33.29" ry="18"/>
<text text-anchor="middle" x="1932.01" y="-100.62" font-family="Times,serif" font-size="14.00">term</text>
</g>
<!-- nt4 -->
<g id="node5" class="node">
<title>nt4</title>
<ellipse fill="none" stroke="black" cx="1376.9" cy="-95.32" rx="27" ry="18"/>
<text text-anchor="middle" x="1376.9" y="-91.62" font-family="Times,serif" font-size="14.00">rhs</text>
</g>
<!-- nt1&#45;&gt;nt4 -->
<g id="edge2" class="edge">
<title>nt1&#45;&gt;nt4</title>
<path fill="none" stroke="black" d="M1903.11,-113.4C1890.88,-117.04 1876.29,-120.93 1862.87,-123.32 1813.39,-132.1 1800.38,-130.32 1750.17,-132.32 1612.38,-137.81 1572.84,-168.97 1439.9,-132.32 1426.96,-128.75 1414.01,-121.7 1403.31,-114.7"/>
<polygon fill="black" stroke="black" points="1405.12,-111.7 1394.9,-108.91 1401.15,-117.47 1405.12,-111.7"/>
</g>
<!-- nt8 -->
<g id="node9" class="node">
<title>nt8</title>
<ellipse fill="none" stroke="black" cx="2081.1" cy="-36.32" rx="79.89" ry="18"/>
<text text-anchor="middle" x="2081.1" y="-32.62" font-family="Times,serif" font-size="14.00">list(NEWLINE)</text>
</g>
<!-- nt1&#45;&gt;nt8 -->
<g id="edge3" class="edge">
<title>nt1&#45;&gt;nt8</title>
<path fill="none" stroke="black" d="M1957.96,-92.78C1979.28,-82.93 2010.45,-68.52 2035.97,-56.72"/>
<polygon fill="black" stroke="black" points="2037.48,-59.88 2045.09,-52.51 2034.54,-53.52 2037.48,-59.88"/>
</g>
<!-- nt13 -->
<g id="node14" class="node">
<title>nt13</title>
<ellipse fill="none" stroke="black" cx="2081.1" cy="-108.32" rx="58.49" ry="18"/>
<text text-anchor="middle" x="2081.1" y="-104.62" font-family="Times,serif" font-size="14.00">char_class</text>
</g>
<!-- nt1&#45;&gt;nt13 -->
<g id="edge4" class="edge">
<title>nt1&#45;&gt;nt13</title>
<path fill="none" stroke="black" d="M1965.29,-105.2C1979.23,-105.57 1996.09,-106.03 2012.54,-106.48"/>
<polygon fill="black" stroke="black" points="2012.62,-109.98 2022.71,-106.76 2012.81,-102.99 2012.62,-109.98"/>
</g>
<!-- nt2 -->
<g id="node3" class="node">
<title>nt2</title>
<ellipse fill="none" stroke="black" cx="722.85" cy="-103.32" rx="293.55" ry="18"/>
<text text-anchor="middle" x="722.85" y="-99.62" font-family="Times,serif" font-size="14.00">separated_nonempty_list(nonempty_list(NEWLINE),old_rule)</text>
</g>
<!-- nt2&#45;&gt;nt2 -->
<g id="edge5" class="edge">
<title>nt2&#45;&gt;nt2</title>
<path fill="none" stroke="black" d="M654.54,-121.1C642.93,-130.63 665.7,-139.32 722.85,-139.32 758.56,-139.32 780.85,-135.92 789.71,-131.05"/>
<polygon fill="black" stroke="black" points="793.18,-131.5 791.16,-121.1 786.26,-130.49 793.18,-131.5"/>
</g>
<!-- nt6 -->
<g id="node7" class="node">
<title>nt6</title>
<ellipse fill="none" stroke="black" cx="1183.26" cy="-95.32" rx="48.19" ry="18"/>
<text text-anchor="middle" x="1183.26" y="-91.62" font-family="Times,serif" font-size="14.00">old_rule</text>
</g>
<!-- nt2&#45;&gt;nt6 -->
<g id="edge6" class="edge">
<title>nt2&#45;&gt;nt6</title>
<path fill="none" stroke="black" d="M1005.68,-98.4C1050.67,-97.61 1092.8,-96.88 1124.62,-96.32"/>
<polygon fill="black" stroke="black" points="1125.07,-99.82 1135.01,-96.14 1124.95,-92.82 1125.07,-99.82"/>
</g>
<!-- nt7 -->
<g id="node8" class="node">
<title>nt7</title>
<ellipse fill="none" stroke="black" cx="1183.26" cy="-149.32" rx="130.78" ry="18"/>
<text text-anchor="middle" x="1183.26" y="-145.62" font-family="Times,serif" font-size="14.00">nonempty_list(NEWLINE)</text>
</g>
<!-- nt2&#45;&gt;nt7 -->
<g id="edge7" class="edge">
<title>nt2&#45;&gt;nt7</title>
<path fill="none" stroke="black" d="M876.81,-118.67C938.83,-124.89 1009.25,-131.96 1066.84,-137.74"/>
<polygon fill="black" stroke="black" points="1066.77,-141.25 1077.07,-138.76 1067.47,-134.28 1066.77,-141.25"/>
</g>
<!-- nt3 -->
<g id="node4" class="node">
<title>nt3</title>
<ellipse fill="none" stroke="black" cx="342.38" cy="-103.32" rx="34.39" ry="18"/>
<text text-anchor="middle" x="342.38" y="-99.62" font-family="Times,serif" font-size="14.00">rules</text>
</g>
<!-- nt3&#45;&gt;nt2 -->
<g id="edge8" class="edge">
<title>nt3&#45;&gt;nt2</title>
<path fill="none" stroke="black" d="M376.96,-103.32C388.65,-103.32 402.87,-103.32 418.81,-103.32"/>
<polygon fill="black" stroke="black" points="418.95,-106.82 428.95,-103.32 418.95,-99.82 418.95,-106.82"/>
</g>
<!-- nt14 -->
<g id="node15" class="node">
<title>nt14</title>
<ellipse fill="none" stroke="black" cx="1501.64" cy="-87.32" rx="61.99" ry="18"/>
<text text-anchor="middle" x="1501.64" y="-83.62" font-family="Times,serif" font-size="14.00">alternation</text>
</g>
<!-- nt4&#45;&gt;nt14 -->
<g id="edge9" class="edge">
<title>nt4&#45;&gt;nt14</title>
<path fill="none" stroke="black" d="M1403.93,-93.62C1412.07,-93.09 1421.48,-92.48 1431.17,-91.85"/>
<polygon fill="black" stroke="black" points="1431.56,-95.33 1441.31,-91.18 1431.11,-88.34 1431.56,-95.33"/>
</g>
<!-- nt5 -->
<g id="node6" class="node">
<title>nt5</title>
<ellipse fill="none" stroke="black" cx="342.38" cy="-49.32" rx="50.89" ry="18"/>
<text text-anchor="middle" x="342.38" y="-45.62" font-family="Times,serif" font-size="14.00">postlude</text>
</g>
<!-- nt6&#45;&gt;nt4 -->
<g id="edge10" class="edge">
<title>nt6&#45;&gt;nt4</title>
<path fill="none" stroke="black" d="M1231.63,-95.32C1264.94,-95.32 1308.86,-95.32 1339.45,-95.32"/>
<polygon fill="black" stroke="black" points="1339.68,-98.82 1349.68,-95.32 1339.68,-91.82 1339.68,-98.82"/>
</g>
<!-- nt7&#45;&gt;nt7 -->
<g id="edge11" class="edge">
<title>nt7&#45;&gt;nt7</title>
<path fill="none" stroke="black" d="M1148.98,-166.73C1142.58,-176.41 1154.01,-185.32 1183.26,-185.32 1201.54,-185.32 1212.86,-181.84 1217.21,-176.86"/>
<polygon fill="black" stroke="black" points="1220.72,-176.83 1217.54,-166.73 1213.72,-176.61 1220.72,-176.83"/>
</g>
<!-- nt8&#45;&gt;nt8 -->
<g id="edge12" class="edge">
<title>nt8&#45;&gt;nt8</title>
<path fill="none" stroke="black" d="M2054.88,-53.35C2049.52,-63.18 2058.27,-72.32 2081.1,-72.32 2095.37,-72.32 2104.14,-68.75 2107.4,-63.67"/>
<polygon fill="black" stroke="black" points="2110.9,-63.33 2107.33,-53.35 2103.9,-63.38 2110.9,-63.33"/>
</g>
<!-- nt9&#45;&gt;nt3 -->
<g id="edge13" class="edge">
<title>nt9&#45;&gt;nt3</title>
<path fill="none" stroke="black" d="M237.72,-62.94C258.22,-70.93 284.07,-81 304.84,-89.08"/>
<polygon fill="black" stroke="black" points="303.69,-92.39 314.27,-92.76 306.23,-85.87 303.69,-92.39"/>
</g>
<!-- nt9&#45;&gt;nt5 -->
<g id="edge14" class="edge">
<title>nt9&#45;&gt;nt5</title>
<path fill="none" stroke="black" d="M255.94,-49.32C264.19,-49.32 272.77,-49.32 281.16,-49.32"/>
<polygon fill="black" stroke="black" points="281.27,-52.82 291.27,-49.32 281.27,-45.82 281.27,-52.82"/>
</g>
<!-- nt9&#45;&gt;nt8 -->
<g id="edge15" class="edge">
<title>nt9&#45;&gt;nt8</title>
<path fill="none" stroke="black" d="M239.02,-36.05C254.96,-30.81 274.02,-25.34 291.68,-22.32 480.31,9.95 530.47,-3.32 721.85,-3.32 721.85,-3.32 721.85,-3.32 1825.52,-3.32 1888.82,-3.32 1960.24,-13.48 2011.29,-22.52"/>
<polygon fill="black" stroke="black" points="2010.76,-25.98 2021.22,-24.31 2012,-19.09 2010.76,-25.98"/>
</g>
<!-- nt10 -->
<g id="node11" class="node">
<title>nt10</title>
<ellipse fill="none" stroke="black" cx="1824.52" cy="-96.32" rx="38.19" ry="18"/>
<text text-anchor="middle" x="1824.52" y="-92.62" font-family="Times,serif" font-size="14.00">factor</text>
</g>
<!-- nt10&#45;&gt;nt1 -->
<g id="edge16" class="edge">
<title>nt10&#45;&gt;nt1</title>
<path fill="none" stroke="black" d="M1862.42,-99.12C1870.96,-99.76 1880.11,-100.46 1888.86,-101.12"/>
<polygon fill="black" stroke="black" points="1888.64,-104.61 1898.88,-101.88 1889.17,-97.63 1888.64,-104.61"/>
</g>
<!-- nt11 -->
<g id="node12" class="node">
<title>nt11</title>
<ellipse fill="none" stroke="black" cx="1674.78" cy="-87.32" rx="75.29" ry="18"/>
<text text-anchor="middle" x="1674.78" y="-83.62" font-family="Times,serif" font-size="14.00">concatenation</text>
</g>
<!-- nt11&#45;&gt;nt10 -->
<g id="edge17" class="edge">
<title>nt11&#45;&gt;nt10</title>
<path fill="none" stroke="black" d="M1747.92,-91.71C1757.5,-92.3 1767.12,-92.88 1776.13,-93.43"/>
<polygon fill="black" stroke="black" points="1776.2,-96.94 1786.4,-94.06 1776.63,-89.95 1776.2,-96.94"/>
</g>
<!-- nt11&#45;&gt;nt11 -->
<g id="edge18" class="edge">
<title>nt11&#45;&gt;nt11</title>
<path fill="none" stroke="black" d="M1648.55,-104.35C1643.2,-114.18 1651.94,-123.32 1674.78,-123.32 1689.05,-123.32 1697.82,-119.75 1701.08,-114.67"/>
<polygon fill="black" stroke="black" points="1704.58,-114.33 1701,-104.35 1697.58,-114.38 1704.58,-114.33"/>
</g>
<!-- nt12 -->
<g id="node13" class="node">
<title>nt12</title>
<ellipse fill="none" stroke="black" cx="2261.39" cy="-108.32" rx="64.19" ry="18"/>
<text text-anchor="middle" x="2261.39" y="-104.62" font-family="Times,serif" font-size="14.00">char_class1</text>
</g>
<!-- nt12&#45;&gt;nt12 -->
<g id="edge19" class="edge">
<title>nt12&#45;&gt;nt12</title>
<path fill="none" stroke="black" d="M2230.31,-124.23C2222.2,-134.47 2232.56,-144.32 2261.39,-144.32 2280.31,-144.32 2291.27,-140.08 2294.28,-134.27"/>
<polygon fill="black" stroke="black" points="2297.69,-133.45 2292.47,-124.23 2290.81,-134.7 2297.69,-133.45"/>
</g>
<!-- nt13&#45;&gt;nt12 -->
<g id="edge20" class="edge">
<title>nt13&#45;&gt;nt12</title>
<path fill="none" stroke="black" d="M2139.99,-108.32C2154.92,-108.32 2171.19,-108.32 2186.8,-108.32"/>
<polygon fill="black" stroke="black" points="2186.94,-111.82 2196.94,-108.32 2186.94,-104.82 2186.94,-111.82"/>
</g>
<!-- nt14&#45;&gt;nt8 -->
<g id="edge21" class="edge">
<title>nt14&#45;&gt;nt8</title>
<path fill="none" stroke="black" d="M1543.15,-73.85C1560.3,-68.71 1580.62,-63.36 1599.39,-60.32 1734.81,-38.32 1894.26,-34.67 1991.22,-34.88"/>
<polygon fill="black" stroke="black" points="1991.26,-38.38 2001.27,-34.91 1991.28,-31.38 1991.26,-38.38"/>
</g>
<!-- nt14&#45;&gt;nt11 -->
<g id="edge22" class="edge">
<title>nt14&#45;&gt;nt11</title>
<path fill="none" stroke="black" d="M1563.46,-87.32C1571.81,-87.32 1580.51,-87.32 1589.2,-87.32"/>
<polygon fill="black" stroke="black" points="1589.37,-90.82 1599.37,-87.32 1589.37,-83.82 1589.37,-90.82"/>
</g>
<!-- nt14&#45;&gt;nt14 -->
<g id="edge23" class="edge">
<title>nt14&#45;&gt;nt14</title>
<path fill="none" stroke="black" d="M1479.67,-104.35C1475.18,-114.18 1482.51,-123.32 1501.64,-123.32 1513.6,-123.32 1520.94,-119.75 1523.68,-114.67"/>
<polygon fill="black" stroke="black" points="1527.17,-114.33 1523.61,-104.35 1520.17,-114.38 1527.17,-114.33"/>
</g>
</g>
</svg>
