<?xml version="1.0" encoding="UTF-8" standalone="no"?>
<!DOCTYPE svg PUBLIC "-//W3C//DTD SVG 1.1//EN"
 "http://www.w3.org/Graphics/SVG/1.1/DTD/svg11.dtd">
<!-- Generated by graphviz version 2.43.0 (0)
 -->
<!-- Title: G Pages: 1 -->
<svg width="2550pt" height="157pt"
 viewBox="0.00 0.00 612.00 37.75" xmlns="http://www.w3.org/2000/svg" xmlns:xlink="http://www.w3.org/1999/xlink">
<g id="graph0" class="graph" transform="scale(1.03 1.03) rotate(0) translate(4 158)">
<title>G</title>
<polygon fill="white" stroke="transparent" points="-4,4 -4,-158 2622.21,-158 2622.21,4 -4,4"/>
<!-- nt0 -->
<g id="node1" class="node">
<title>nt0</title>
<ellipse fill="none" stroke="black" cx="55.9" cy="-54" rx="55.79" ry="18"/>
<text text-anchor="middle" x="55.9" y="-50.3" font-family="Times,serif" font-size="14.00">grammar&#39;</text>
</g>
<!-- nt9 -->
<g id="node10" class="node">
<title>nt9</title>
<ellipse fill="none" stroke="black" cx="201.74" cy="-54" rx="53.89" ry="18"/>
<text text-anchor="middle" x="201.74" y="-50.3" font-family="Times,serif" font-size="14.00">grammar</text>
</g>
<!-- nt0&#45;&gt;nt9 -->
<g id="edge1" class="edge">
<title>nt0&#45;&gt;nt9</title>
<path fill="none" stroke="black" d="M112.1,-54C120.32,-54 128.85,-54 137.23,-54"/>
<polygon fill="black" stroke="black" points="137.34,-57.5 147.34,-54 137.34,-50.5 137.34,-57.5"/>
</g>
<!-- nt1 -->
<g id="node2" class="node">
<title>nt1</title>
<ellipse fill="none" stroke="black" cx="2557.76" cy="-122" rx="60.39" ry="18"/>
<text text-anchor="middle" x="2557.76" y="-118.3" font-family="Times,serif" font-size="14.00">termfactor</text>
</g>
<!-- nt4 -->
<g id="node5" class="node">
<title>nt4</title>
<ellipse fill="none" stroke="black" cx="1344.4" cy="-90" rx="27" ry="18"/>
<text text-anchor="middle" x="1344.4" y="-86.3" font-family="Times,serif" font-size="14.00">rhs</text>
</g>
<!-- nt1&#45;&gt;nt4 -->
<g id="edge2" class="edge">
<title>nt1&#45;&gt;nt4</title>
<path fill="none" stroke="black" d="M2503.34,-130.03C2489.67,-131.87 2474.97,-133.68 2461.32,-135 2314.48,-149.19 2277.46,-154 2129.94,-154 1705.63,-154 1705.63,-154 1705.63,-154 1572.06,-154 1536.23,-152.25 1407.4,-117 1396.59,-114.04 1385.21,-109.53 1375.2,-105.04"/>
<polygon fill="black" stroke="black" points="1376.63,-101.85 1366.09,-100.8 1373.67,-108.19 1376.63,-101.85"/>
</g>
<!-- nt2 -->
<g id="node3" class="node">
<title>nt2</title>
<ellipse fill="none" stroke="black" cx="690.35" cy="-54" rx="293.55" ry="18"/>
<text text-anchor="middle" x="690.35" y="-50.3" font-family="Times,serif" font-size="14.00">separated_nonempty_list(nonempty_list(NEWLINE),old_rule)</text>
</g>
<!-- nt2&#45;&gt;nt2 -->
<g id="edge3" class="edge">
<title>nt2&#45;&gt;nt2</title>
<path fill="none" stroke="black" d="M624.91,-71.78C613.79,-81.31 635.61,-90 690.35,-90 724.56,-90 745.91,-86.61 754.4,-81.74"/>
<polygon fill="black" stroke="black" points="757.87,-82.17 755.78,-71.78 750.94,-81.2 757.87,-82.17"/>
</g>
<!-- nt5 -->
<g id="node6" class="node">
<title>nt5</title>
<ellipse fill="none" stroke="black" cx="1150.76" cy="-90" rx="48.19" ry="18"/>
<text text-anchor="middle" x="1150.76" y="-86.3" font-family="Times,serif" font-size="14.00">old_rule</text>
</g>
<!-- nt2&#45;&gt;nt5 -->
<g id="edge4" class="edge">
<title>nt2&#45;&gt;nt5</title>
<path fill="none" stroke="black" d="M871.87,-68.18C950.72,-74.37 1037.63,-81.19 1092.9,-85.53"/>
<polygon fill="black" stroke="black" points="1092.94,-89.05 1103.18,-86.34 1093.49,-82.07 1092.94,-89.05"/>
</g>
<!-- nt8 -->
<g id="node9" class="node">
<title>nt8</title>
<ellipse fill="none" stroke="black" cx="1150.76" cy="-18" rx="130.78" ry="18"/>
<text text-anchor="middle" x="1150.76" y="-14.3" font-family="Times,serif" font-size="14.00">nonempty_list(NEWLINE)</text>
</g>
<!-- nt2&#45;&gt;nt8 -->
<g id="edge5" class="edge">
<title>nt2&#45;&gt;nt8</title>
<path fill="none" stroke="black" d="M871.87,-39.82C923.8,-35.75 979.22,-31.39 1026.8,-27.66"/>
<polygon fill="black" stroke="black" points="1027.13,-31.14 1036.83,-26.87 1026.59,-24.16 1027.13,-31.14"/>
</g>
<!-- nt3 -->
<g id="node4" class="node">
<title>nt3</title>
<ellipse fill="none" stroke="black" cx="326.13" cy="-54" rx="34.39" ry="18"/>
<text text-anchor="middle" x="326.13" y="-50.3" font-family="Times,serif" font-size="14.00">rules</text>
</g>
<!-- nt3&#45;&gt;nt2 -->
<g id="edge6" class="edge">
<title>nt3&#45;&gt;nt2</title>
<path fill="none" stroke="black" d="M360.88,-54C368.37,-54 376.9,-54 386.24,-54"/>
<polygon fill="black" stroke="black" points="386.25,-57.5 396.25,-54 386.25,-50.5 386.25,-57.5"/>
</g>
<!-- nt12 -->
<g id="node13" class="node">
<title>nt12</title>
<ellipse fill="none" stroke="black" cx="1469.14" cy="-90" rx="61.99" ry="18"/>
<text text-anchor="middle" x="1469.14" y="-86.3" font-family="Times,serif" font-size="14.00">alternation</text>
</g>
<!-- nt4&#45;&gt;nt12 -->
<g id="edge7" class="edge">
<title>nt4&#45;&gt;nt12</title>
<path fill="none" stroke="black" d="M1371.43,-90C1379.18,-90 1388.08,-90 1397.26,-90"/>
<polygon fill="black" stroke="black" points="1397.3,-93.5 1407.3,-90 1397.3,-86.5 1397.3,-93.5"/>
</g>
<!-- nt5&#45;&gt;nt4 -->
<g id="edge8" class="edge">
<title>nt5&#45;&gt;nt4</title>
<path fill="none" stroke="black" d="M1199.13,-90C1232.45,-90 1276.36,-90 1306.95,-90"/>
<polygon fill="black" stroke="black" points="1307.18,-93.5 1317.18,-90 1307.18,-86.5 1307.18,-93.5"/>
</g>
<!-- nt6 -->
<g id="node7" class="node">
<title>nt6</title>
<ellipse fill="none" stroke="black" cx="2350.83" cy="-90" rx="110.48" ry="18"/>
<text text-anchor="middle" x="2350.83" y="-86.3" font-family="Times,serif" font-size="14.00">nonempty_list(factor)</text>
</g>
<!-- nt6&#45;&gt;nt1 -->
<g id="edge9" class="edge">
<title>nt6&#45;&gt;nt1</title>
<path fill="none" stroke="black" d="M2431.35,-102.42C2452.05,-105.65 2474.06,-109.09 2493.77,-112.16"/>
<polygon fill="black" stroke="black" points="2493.43,-115.65 2503.85,-113.74 2494.51,-108.74 2493.43,-115.65"/>
</g>
<!-- nt6&#45;&gt;nt4 -->
<g id="edge10" class="edge">
<title>nt6&#45;&gt;nt4</title>
<path fill="none" stroke="black" d="M2281.97,-75.83C2257.59,-71.15 2229.81,-66.31 2204.34,-63 2092.35,-48.45 2063.89,-44 1950.96,-44 1705.63,-44 1705.63,-44 1705.63,-44 1572.81,-44 1536.5,-31.79 1407.4,-63 1396.5,-65.63 1385.11,-70.06 1375.11,-74.57"/>
<polygon fill="black" stroke="black" points="1373.55,-71.44 1366,-78.87 1376.54,-77.77 1373.55,-71.44"/>
</g>
<!-- nt6&#45;&gt;nt6 -->
<g id="edge11" class="edge">
<title>nt6&#45;&gt;nt6</title>
<path fill="none" stroke="black" d="M2314.32,-107.04C2306.88,-116.86 2319.04,-126 2350.83,-126 2370.69,-126 2382.9,-122.43 2387.44,-117.35"/>
<polygon fill="black" stroke="black" points="2390.93,-117 2387.33,-107.04 2383.93,-117.07 2390.93,-117"/>
</g>
<!-- nt7 -->
<g id="node8" class="node">
<title>nt7</title>
<ellipse fill="none" stroke="black" cx="1706.63" cy="-90" rx="139.98" ry="18"/>
<text text-anchor="middle" x="1706.63" y="-86.3" font-family="Times,serif" font-size="14.00">nonempty_list(alternation1)</text>
</g>
<!-- nt7&#45;&gt;nt7 -->
<g id="edge12" class="edge">
<title>nt7&#45;&gt;nt7</title>
<path fill="none" stroke="black" d="M1664.49,-107.41C1656.63,-117.09 1670.67,-126 1706.63,-126 1729.1,-126 1743.01,-122.52 1748.36,-117.54"/>
<polygon fill="black" stroke="black" points="1751.87,-117.54 1748.76,-107.41 1744.87,-117.27 1751.87,-117.54"/>
</g>
<!-- nt11 -->
<g id="node12" class="node">
<title>nt11</title>
<ellipse fill="none" stroke="black" cx="1949.96" cy="-90" rx="67.69" ry="18"/>
<text text-anchor="middle" x="1949.96" y="-86.3" font-family="Times,serif" font-size="14.00">alternation1</text>
</g>
<!-- nt7&#45;&gt;nt11 -->
<g id="edge13" class="edge">
<title>nt7&#45;&gt;nt11</title>
<path fill="none" stroke="black" d="M1846.61,-90C1855.23,-90 1863.72,-90 1871.91,-90"/>
<polygon fill="black" stroke="black" points="1872.09,-93.5 1882.09,-90 1872.09,-86.5 1872.09,-93.5"/>
</g>
<!-- nt8&#45;&gt;nt8 -->
<g id="edge14" class="edge">
<title>nt8&#45;&gt;nt8</title>
<path fill="none" stroke="black" d="M1116.48,-35.41C1110.08,-45.09 1121.51,-54 1150.76,-54 1169.04,-54 1180.36,-50.52 1184.72,-45.54"/>
<polygon fill="black" stroke="black" points="1188.22,-45.52 1185.04,-35.41 1181.22,-45.29 1188.22,-45.52"/>
</g>
<!-- nt9&#45;&gt;nt3 -->
<g id="edge15" class="edge">
<title>nt9&#45;&gt;nt3</title>
<path fill="none" stroke="black" d="M255.71,-54C264.25,-54 273,-54 281.3,-54"/>
<polygon fill="black" stroke="black" points="281.5,-57.5 291.5,-54 281.5,-50.5 281.5,-57.5"/>
</g>
<!-- nt10 -->
<g id="node11" class="node">
<title>nt10</title>
<ellipse fill="none" stroke="black" cx="2128.94" cy="-90" rx="75.29" ry="18"/>
<text text-anchor="middle" x="2128.94" y="-86.3" font-family="Times,serif" font-size="14.00">concatenation</text>
</g>
<!-- nt10&#45;&gt;nt6 -->
<g id="edge16" class="edge">
<title>nt10&#45;&gt;nt6</title>
<path fill="none" stroke="black" d="M2204.39,-90C2212.72,-90 2221.35,-90 2230.06,-90"/>
<polygon fill="black" stroke="black" points="2230.32,-93.5 2240.32,-90 2230.32,-86.5 2230.32,-93.5"/>
</g>
<!-- nt11&#45;&gt;nt10 -->
<g id="edge17" class="edge">
<title>nt11&#45;&gt;nt10</title>
<path fill="none" stroke="black" d="M2017.62,-90C2026,-90 2034.66,-90 2043.27,-90"/>
<polygon fill="black" stroke="black" points="2043.34,-93.5 2053.34,-90 2043.34,-86.5 2043.34,-93.5"/>
</g>
<!-- nt12&#45;&gt;nt7 -->
<g id="edge18" class="edge">
<title>nt12&#45;&gt;nt7</title>
<path fill="none" stroke="black" d="M1531.09,-90C1539.21,-90 1547.8,-90 1556.65,-90"/>
<polygon fill="black" stroke="black" points="1556.73,-93.5 1566.73,-90 1556.73,-86.5 1556.73,-93.5"/>
</g>
</g>
</svg>
