<?xml version="1.0" encoding="UTF-8" standalone="no"?>
<!DOCTYPE svg PUBLIC "-//W3C//DTD SVG 1.1//EN"
 "http://www.w3.org/Graphics/SVG/1.1/DTD/svg11.dtd">
<!-- Generated by graphviz version 2.43.0 (0)
 -->
<!-- Title: G Pages: 1 -->
<svg width="132pt" height="2550pt"
 viewBox="0.00 0.00 31.65 612.00" xmlns="http://www.w3.org/2000/svg" xmlns:xlink="http://www.w3.org/1999/xlink">
<g id="graph0" class="graph" transform="scale(1.02 1.02) rotate(-90) translate(-2586.8 130)">
<title>G</title>
<polygon fill="white" stroke="transparent" points="-4,4 -4,-130 2586.8,-130 2586.8,4 -4,4"/>
<!-- nt0 -->
<g id="node1" class="node">
<title>nt0</title>
<ellipse fill="none" stroke="black" cx="55.9" cy="-54" rx="55.79" ry="18"/>
<text text-anchor="middle" x="55.9" y="-50.3" font-family="Times,serif" font-size="14.00">grammar&#39;</text>
</g>
<!-- nt10 -->
<g id="node11" class="node">
<title>nt10</title>
<ellipse fill="none" stroke="black" cx="201.74" cy="-54" rx="53.89" ry="18"/>
<text text-anchor="middle" x="201.74" y="-50.3" font-family="Times,serif" font-size="14.00">grammar</text>
</g>
<!-- nt0&#45;&gt;nt10 -->
<g id="edge1" class="edge">
<title>nt0&#45;&gt;nt10</title>
<path fill="none" stroke="black" d="M112.1,-54C120.32,-54 128.85,-54 137.23,-54"/>
<polygon fill="black" stroke="black" points="137.34,-57.5 147.34,-54 137.34,-50.5 137.34,-57.5"/>
</g>
<!-- nt1 -->
<g id="node2" class="node">
<title>nt1</title>
<ellipse fill="none" stroke="black" cx="2500.26" cy="-36" rx="44.39" ry="18"/>
<text text-anchor="middle" x="2500.26" y="-32.3" font-family="Times,serif" font-size="14.00">symbol</text>
</g>
<!-- nt2 -->
<g id="node3" class="node">
<title>nt2</title>
<ellipse fill="none" stroke="black" cx="585.45" cy="-54" rx="293.55" ry="18"/>
<text text-anchor="middle" x="585.45" y="-50.3" font-family="Times,serif" font-size="14.00">separated_nonempty_list(nonempty_list(NEWLINE),old_rule)</text>
</g>
<!-- nt2&#45;&gt;nt2 -->
<g id="edge2" class="edge">
<title>nt2&#45;&gt;nt2</title>
<path fill="none" stroke="black" d="M516.78,-71.78C505.12,-81.31 528.01,-90 585.45,-90 621.36,-90 643.77,-86.61 652.67,-81.74"/>
<polygon fill="black" stroke="black" points="656.14,-82.18 654.12,-71.78 649.22,-81.17 656.14,-82.18"/>
</g>
<!-- nt6 -->
<g id="node7" class="node">
<title>nt6</title>
<ellipse fill="none" stroke="black" cx="1045.87" cy="-90" rx="48.19" ry="18"/>
<text text-anchor="middle" x="1045.87" y="-86.3" font-family="Times,serif" font-size="14.00">old_rule</text>
</g>
<!-- nt2&#45;&gt;nt6 -->
<g id="edge3" class="edge">
<title>nt2&#45;&gt;nt6</title>
<path fill="none" stroke="black" d="M766.97,-68.18C845.83,-74.37 932.74,-81.19 988.01,-85.53"/>
<polygon fill="black" stroke="black" points="988.05,-89.05 998.29,-86.34 988.59,-82.07 988.05,-89.05"/>
</g>
<!-- nt7 -->
<g id="node8" class="node">
<title>nt7</title>
<ellipse fill="none" stroke="black" cx="1045.87" cy="-18" rx="130.78" ry="18"/>
<text text-anchor="middle" x="1045.87" y="-14.3" font-family="Times,serif" font-size="14.00">nonempty_list(NEWLINE)</text>
</g>
<!-- nt2&#45;&gt;nt7 -->
<g id="edge4" class="edge">
<title>nt2&#45;&gt;nt7</title>
<path fill="none" stroke="black" d="M766.97,-39.82C818.9,-35.75 874.33,-31.39 921.91,-27.66"/>
<polygon fill="black" stroke="black" points="922.24,-31.14 931.94,-26.87 921.69,-24.16 922.24,-31.14"/>
</g>
<!-- nt3 -->
<g id="node4" class="node">
<title>nt3</title>
<ellipse fill="none" stroke="black" cx="1419.19" cy="-90" rx="206.86" ry="18"/>
<text text-anchor="middle" x="1419.19" y="-86.3" font-family="Times,serif" font-size="14.00">separated_nonempty_list(BAR,production)</text>
</g>
<!-- nt3&#45;&gt;nt3 -->
<g id="edge5" class="edge">
<title>nt3&#45;&gt;nt3</title>
<path fill="none" stroke="black" d="M1365.27,-107.41C1355.21,-117.09 1373.18,-126 1419.19,-126 1447.94,-126 1465.75,-122.52 1472.6,-117.54"/>
<polygon fill="black" stroke="black" points="1476.1,-117.57 1473.1,-107.41 1469.11,-117.22 1476.1,-117.57"/>
</g>
<!-- nt4 -->
<g id="node5" class="node">
<title>nt4</title>
<ellipse fill="none" stroke="black" cx="1722.96" cy="-90" rx="61.19" ry="18"/>
<text text-anchor="middle" x="1722.96" y="-86.3" font-family="Times,serif" font-size="14.00">production</text>
</g>
<!-- nt3&#45;&gt;nt4 -->
<g id="edge6" class="edge">
<title>nt3&#45;&gt;nt4</title>
<path fill="none" stroke="black" d="M1626.06,-90C1634.91,-90 1643.47,-90 1651.58,-90"/>
<polygon fill="black" stroke="black" points="1651.61,-93.5 1661.61,-90 1651.61,-86.5 1651.61,-93.5"/>
</g>
<!-- nt8 -->
<g id="node9" class="node">
<title>nt8</title>
<ellipse fill="none" stroke="black" cx="1894.15" cy="-90" rx="74.19" ry="18"/>
<text text-anchor="middle" x="1894.15" y="-86.3" font-family="Times,serif" font-size="14.00">list(producer)</text>
</g>
<!-- nt4&#45;&gt;nt8 -->
<g id="edge7" class="edge">
<title>nt4&#45;&gt;nt8</title>
<path fill="none" stroke="black" d="M1784.09,-90C1792.42,-90 1801.09,-90 1809.75,-90"/>
<polygon fill="black" stroke="black" points="1809.88,-93.5 1819.88,-90 1809.88,-86.5 1809.88,-93.5"/>
</g>
<!-- nt5 -->
<g id="node6" class="node">
<title>nt5</title>
<ellipse fill="none" stroke="black" cx="2056.89" cy="-90" rx="52.79" ry="18"/>
<text text-anchor="middle" x="2056.89" y="-86.3" font-family="Times,serif" font-size="14.00">producer</text>
</g>
<!-- nt12 -->
<g id="node13" class="node">
<title>nt12</title>
<ellipse fill="none" stroke="black" cx="2184.53" cy="-90" rx="38.99" ry="18"/>
<text text-anchor="middle" x="2184.53" y="-86.3" font-family="Times,serif" font-size="14.00">actual</text>
</g>
<!-- nt5&#45;&gt;nt12 -->
<g id="edge8" class="edge">
<title>nt5&#45;&gt;nt12</title>
<path fill="none" stroke="black" d="M2109.72,-90C2118.08,-90 2126.72,-90 2135,-90"/>
<polygon fill="black" stroke="black" points="2135.26,-93.5 2145.26,-90 2135.26,-86.5 2135.26,-93.5"/>
</g>
<!-- nt6&#45;&gt;nt3 -->
<g id="edge9" class="edge">
<title>nt6&#45;&gt;nt3</title>
<path fill="none" stroke="black" d="M1094.27,-90C1122.9,-90 1161.65,-90 1202.38,-90"/>
<polygon fill="black" stroke="black" points="1202.5,-93.5 1212.5,-90 1202.5,-86.5 1202.5,-93.5"/>
</g>
<!-- nt7&#45;&gt;nt7 -->
<g id="edge10" class="edge">
<title>nt7&#45;&gt;nt7</title>
<path fill="none" stroke="black" d="M981.94,-33.73C964.62,-44.03 985.93,-54 1045.87,-54 1088.95,-54 1112.07,-48.85 1115.24,-42.13"/>
<polygon fill="black" stroke="black" points="1118.17,-40.21 1109.79,-33.73 1112.3,-44.02 1118.17,-40.21"/>
</g>
<!-- nt8&#45;&gt;nt5 -->
<g id="edge11" class="edge">
<title>nt8&#45;&gt;nt5</title>
<path fill="none" stroke="black" d="M1968.46,-90C1976.85,-90 1985.33,-90 1993.56,-90"/>
<polygon fill="black" stroke="black" points="1993.8,-93.5 2003.8,-90 1993.8,-86.5 1993.8,-93.5"/>
</g>
<!-- nt8&#45;&gt;nt8 -->
<g id="edge12" class="edge">
<title>nt8&#45;&gt;nt8</title>
<path fill="none" stroke="black" d="M1865.67,-106.66C1859.35,-116.62 1868.84,-126 1894.15,-126 1910.37,-126 1920.09,-122.15 1923.32,-116.77"/>
<polygon fill="black" stroke="black" points="1926.8,-116.4 1922.63,-106.66 1919.82,-116.88 1926.8,-116.4"/>
</g>
<!-- nt9 -->
<g id="node10" class="node">
<title>nt9</title>
<ellipse fill="none" stroke="black" cx="2500.26" cy="-90" rx="82.59" ry="18"/>
<text text-anchor="middle" x="2500.26" y="-86.3" font-family="Times,serif" font-size="14.00">list(expression)</text>
</g>
<!-- nt9&#45;&gt;nt9 -->
<g id="edge13" class="edge">
<title>nt9&#45;&gt;nt9</title>
<path fill="none" stroke="black" d="M2468.97,-106.66C2462.02,-116.62 2472.45,-126 2500.26,-126 2518.08,-126 2528.76,-122.15 2532.31,-116.77"/>
<polygon fill="black" stroke="black" points="2535.79,-116.37 2531.55,-106.66 2528.81,-116.9 2535.79,-116.37"/>
</g>
<!-- nt11 -->
<g id="node12" class="node">
<title>nt11</title>
<ellipse fill="none" stroke="black" cx="2320.62" cy="-90" rx="61.19" ry="18"/>
<text text-anchor="middle" x="2320.62" y="-86.3" font-family="Times,serif" font-size="14.00">expression</text>
</g>
<!-- nt9&#45;&gt;nt11 -->
<g id="edge14" class="edge">
<title>nt9&#45;&gt;nt11</title>
<path fill="none" stroke="black" d="M2423.6,-96.68C2411.73,-96.8 2399.54,-96.76 2387.89,-96.55"/>
<polygon fill="black" stroke="black" points="2387.9,-93.05 2377.83,-96.33 2387.75,-100.05 2387.9,-93.05"/>
</g>
<!-- nt10&#45;&gt;nt2 -->
<g id="edge15" class="edge">
<title>nt10&#45;&gt;nt2</title>
<path fill="none" stroke="black" d="M255.81,-54C263.71,-54 272.28,-54 281.38,-54"/>
<polygon fill="black" stroke="black" points="281.46,-57.5 291.46,-54 281.46,-50.5 281.46,-57.5"/>
</g>
<!-- nt11&#45;&gt;nt1 -->
<g id="edge16" class="edge">
<title>nt11&#45;&gt;nt1</title>
<path fill="none" stroke="black" d="M2363.72,-77.2C2391.04,-68.9 2426.61,-58.09 2454.45,-49.62"/>
<polygon fill="black" stroke="black" points="2455.78,-52.88 2464.33,-46.62 2453.75,-46.18 2455.78,-52.88"/>
</g>
<!-- nt11&#45;&gt;nt9 -->
<g id="edge17" class="edge">
<title>nt11&#45;&gt;nt9</title>
<path fill="none" stroke="black" d="M2377.83,-83.67C2389.18,-83.37 2401.37,-83.23 2413.47,-83.25"/>
<polygon fill="black" stroke="black" points="2413.58,-86.75 2423.6,-83.32 2413.63,-79.75 2413.58,-86.75"/>
</g>
<!-- nt12&#45;&gt;nt11 -->
<g id="edge18" class="edge">
<title>nt12&#45;&gt;nt11</title>
<path fill="none" stroke="black" d="M2223.6,-90C2231.7,-90 2240.5,-90 2249.37,-90"/>
<polygon fill="black" stroke="black" points="2249.39,-93.5 2259.39,-90 2249.39,-86.5 2249.39,-93.5"/>
</g>
</g>
</svg>
