<?xml version="1.0" encoding="UTF-8" standalone="no"?>
<!DOCTYPE svg PUBLIC "-//W3C//DTD SVG 1.1//EN"
 "http://www.w3.org/Graphics/SVG/1.1/DTD/svg11.dtd">
<!-- Generated by graphviz version 2.43.0 (0)
 -->
<!-- Title: G Pages: 1 -->
<svg width="2550pt" height="157pt"
 viewBox="0.00 0.00 612.00 37.76" xmlns="http://www.w3.org/2000/svg" xmlns:xlink="http://www.w3.org/1999/xlink">
<g id="graph0" class="graph" transform="scale(1.03 1.03) rotate(0) translate(4 158)">
<title>G</title>
<polygon fill="white" stroke="transparent" points="-4,4 -4,-158 2621.9,-158 2621.9,4 -4,4"/>
<!-- nt0 -->
<g id="node1" class="node">
<title>nt0</title>
<ellipse fill="none" stroke="black" cx="55.9" cy="-54" rx="55.79" ry="18"/>
<text text-anchor="middle" x="55.9" y="-50.3" font-family="Times,serif" font-size="14.00">grammar&#39;</text>
</g>
<!-- nt10 -->
<g id="node11" class="node">
<title>nt10</title>
<ellipse fill="none" stroke="black" cx="201.74" cy="-54" rx="53.89" ry="18"/>
<text text-anchor="middle" x="201.74" y="-50.3" font-family="Times,serif" font-size="14.00">grammar</text>
</g>
<!-- nt0&#45;&gt;nt10 -->
<g id="edge1" class="edge">
<title>nt0&#45;&gt;nt10</title>
<path fill="none" stroke="black" d="M112.1,-54C120.32,-54 128.85,-54 137.23,-54"/>
<polygon fill="black" stroke="black" points="137.34,-57.5 147.34,-54 137.34,-50.5 137.34,-57.5"/>
</g>
<!-- nt1 -->
<g id="node2" class="node">
<title>nt1</title>
<ellipse fill="none" stroke="black" cx="2568.5" cy="-136" rx="44.39" ry="18"/>
<text text-anchor="middle" x="2568.5" y="-132.3" font-family="Times,serif" font-size="14.00">symbol</text>
</g>
<!-- nt2 -->
<g id="node3" class="node">
<title>nt2</title>
<ellipse fill="none" stroke="black" cx="585.45" cy="-54" rx="293.55" ry="18"/>
<text text-anchor="middle" x="585.45" y="-50.3" font-family="Times,serif" font-size="14.00">separated_nonempty_list(nonempty_list(NEWLINE),old_rule)</text>
</g>
<!-- nt2&#45;&gt;nt2 -->
<g id="edge2" class="edge">
<title>nt2&#45;&gt;nt2</title>
<path fill="none" stroke="black" d="M516.78,-71.78C505.12,-81.31 528.01,-90 585.45,-90 621.36,-90 643.77,-86.61 652.67,-81.74"/>
<polygon fill="black" stroke="black" points="656.14,-82.18 654.12,-71.78 649.22,-81.17 656.14,-82.18"/>
</g>
<!-- nt6 -->
<g id="node7" class="node">
<title>nt6</title>
<ellipse fill="none" stroke="black" cx="1045.87" cy="-90" rx="48.19" ry="18"/>
<text text-anchor="middle" x="1045.87" y="-86.3" font-family="Times,serif" font-size="14.00">old_rule</text>
</g>
<!-- nt2&#45;&gt;nt6 -->
<g id="edge3" class="edge">
<title>nt2&#45;&gt;nt6</title>
<path fill="none" stroke="black" d="M766.97,-68.18C845.83,-74.37 932.74,-81.19 988.01,-85.53"/>
<polygon fill="black" stroke="black" points="988.05,-89.05 998.29,-86.34 988.59,-82.07 988.05,-89.05"/>
</g>
<!-- nt8 -->
<g id="node9" class="node">
<title>nt8</title>
<ellipse fill="none" stroke="black" cx="1045.87" cy="-18" rx="130.78" ry="18"/>
<text text-anchor="middle" x="1045.87" y="-14.3" font-family="Times,serif" font-size="14.00">nonempty_list(NEWLINE)</text>
</g>
<!-- nt2&#45;&gt;nt8 -->
<g id="edge4" class="edge">
<title>nt2&#45;&gt;nt8</title>
<path fill="none" stroke="black" d="M766.97,-39.82C818.9,-35.75 874.33,-31.39 921.91,-27.66"/>
<polygon fill="black" stroke="black" points="922.24,-31.14 931.94,-26.87 921.69,-24.16 922.24,-31.14"/>
</g>
<!-- nt3 -->
<g id="node4" class="node">
<title>nt3</title>
<ellipse fill="none" stroke="black" cx="1419.19" cy="-77" rx="206.86" ry="18"/>
<text text-anchor="middle" x="1419.19" y="-73.3" font-family="Times,serif" font-size="14.00">separated_nonempty_list(BAR,production)</text>
</g>
<!-- nt3&#45;&gt;nt3 -->
<g id="edge5" class="edge">
<title>nt3&#45;&gt;nt3</title>
<path fill="none" stroke="black" d="M1365.27,-94.41C1355.21,-104.09 1373.18,-113 1419.19,-113 1447.94,-113 1465.75,-109.52 1472.6,-104.54"/>
<polygon fill="black" stroke="black" points="1476.1,-104.57 1473.1,-94.41 1469.11,-104.22 1476.1,-104.57"/>
</g>
<!-- nt4 -->
<g id="node5" class="node">
<title>nt4</title>
<ellipse fill="none" stroke="black" cx="1722.96" cy="-77" rx="61.19" ry="18"/>
<text text-anchor="middle" x="1722.96" y="-73.3" font-family="Times,serif" font-size="14.00">production</text>
</g>
<!-- nt3&#45;&gt;nt4 -->
<g id="edge6" class="edge">
<title>nt3&#45;&gt;nt4</title>
<path fill="none" stroke="black" d="M1626.06,-77C1634.91,-77 1643.47,-77 1651.58,-77"/>
<polygon fill="black" stroke="black" points="1651.61,-80.5 1661.61,-77 1651.61,-73.5 1651.61,-80.5"/>
</g>
<!-- nt5 -->
<g id="node6" class="node">
<title>nt5</title>
<ellipse fill="none" stroke="black" cx="2158.28" cy="-77" rx="52.79" ry="18"/>
<text text-anchor="middle" x="2158.28" y="-73.3" font-family="Times,serif" font-size="14.00">producer</text>
</g>
<!-- nt4&#45;&gt;nt5 -->
<g id="edge7" class="edge">
<title>nt4&#45;&gt;nt5</title>
<path fill="none" stroke="black" d="M1784.21,-77C1866.25,-77 2012.36,-77 2095.29,-77"/>
<polygon fill="black" stroke="black" points="2095.33,-80.5 2105.33,-77 2095.33,-73.5 2095.33,-80.5"/>
</g>
<!-- nt7 -->
<g id="node8" class="node">
<title>nt7</title>
<ellipse fill="none" stroke="black" cx="1944.85" cy="-27" rx="124.58" ry="18"/>
<text text-anchor="middle" x="1944.85" y="-23.3" font-family="Times,serif" font-size="14.00">nonempty_list(producer)</text>
</g>
<!-- nt4&#45;&gt;nt7 -->
<g id="edge8" class="edge">
<title>nt4&#45;&gt;nt7</title>
<path fill="none" stroke="black" d="M1771.95,-66.09C1799.77,-59.76 1835.45,-51.65 1867.09,-44.45"/>
<polygon fill="black" stroke="black" points="1868.23,-47.79 1877.2,-42.15 1866.67,-40.96 1868.23,-47.79"/>
</g>
<!-- nt12 -->
<g id="node13" class="node">
<title>nt12</title>
<ellipse fill="none" stroke="black" cx="2285.92" cy="-77" rx="38.99" ry="18"/>
<text text-anchor="middle" x="2285.92" y="-73.3" font-family="Times,serif" font-size="14.00">actual</text>
</g>
<!-- nt5&#45;&gt;nt12 -->
<g id="edge9" class="edge">
<title>nt5&#45;&gt;nt12</title>
<path fill="none" stroke="black" d="M2211.11,-77C2219.47,-77 2228.11,-77 2236.39,-77"/>
<polygon fill="black" stroke="black" points="2236.65,-80.5 2246.65,-77 2236.65,-73.5 2236.65,-80.5"/>
</g>
<!-- nt6&#45;&gt;nt1 -->
<g id="edge10" class="edge">
<title>nt6&#45;&gt;nt1</title>
<path fill="none" stroke="black" d="M1086.76,-99.49C1120.15,-107.01 1169.15,-117.03 1212.51,-122 1437.62,-147.79 1495.38,-141 1721.96,-141 1721.96,-141 1721.96,-141 2286.92,-141 2366.04,-141 2457.69,-138.99 2514.13,-137.52"/>
<polygon fill="black" stroke="black" points="2514.34,-141.01 2524.25,-137.25 2514.16,-134.01 2514.34,-141.01"/>
</g>
<!-- nt6&#45;&gt;nt3 -->
<g id="edge11" class="edge">
<title>nt6&#45;&gt;nt3</title>
<path fill="none" stroke="black" d="M1093.89,-88.35C1125.89,-87.23 1170.66,-85.67 1216.73,-84.05"/>
<polygon fill="black" stroke="black" points="1217.01,-87.55 1226.88,-83.7 1216.77,-80.55 1217.01,-87.55"/>
</g>
<!-- nt7&#45;&gt;nt5 -->
<g id="edge12" class="edge">
<title>nt7&#45;&gt;nt5</title>
<path fill="none" stroke="black" d="M2010.72,-42.34C2040.91,-49.48 2076.35,-57.86 2104.81,-64.59"/>
<polygon fill="black" stroke="black" points="2104.03,-68 2114.57,-66.9 2105.64,-61.19 2104.03,-68"/>
</g>
<!-- nt7&#45;&gt;nt7 -->
<g id="edge13" class="edge">
<title>nt7&#45;&gt;nt7</title>
<path fill="none" stroke="black" d="M1907,-44.41C1899.93,-54.09 1912.55,-63 1944.85,-63 1965.03,-63 1977.53,-59.52 1982.34,-54.54"/>
<polygon fill="black" stroke="black" points="1985.84,-54.53 1982.69,-44.41 1978.85,-54.28 1985.84,-54.53"/>
</g>
<!-- nt8&#45;&gt;nt8 -->
<g id="edge14" class="edge">
<title>nt8&#45;&gt;nt8</title>
<path fill="none" stroke="black" d="M981.94,-33.73C964.62,-44.03 985.93,-54 1045.87,-54 1088.95,-54 1112.07,-48.85 1115.24,-42.13"/>
<polygon fill="black" stroke="black" points="1118.17,-40.21 1109.79,-33.73 1112.3,-44.02 1118.17,-40.21"/>
</g>
<!-- nt9 -->
<g id="node10" class="node">
<title>nt9</title>
<ellipse fill="none" stroke="black" cx="2568.5" cy="-77" rx="49.29" ry="18"/>
<text text-anchor="middle" x="2568.5" y="-73.3" font-family="Times,serif" font-size="14.00">modifier</text>
</g>
<!-- nt10&#45;&gt;nt2 -->
<g id="edge15" class="edge">
<title>nt10&#45;&gt;nt2</title>
<path fill="none" stroke="black" d="M255.81,-54C263.71,-54 272.28,-54 281.38,-54"/>
<polygon fill="black" stroke="black" points="281.46,-57.5 291.46,-54 281.46,-50.5 281.46,-57.5"/>
</g>
<!-- nt11 -->
<g id="node12" class="node">
<title>nt11</title>
<ellipse fill="none" stroke="black" cx="2422.01" cy="-77" rx="61.19" ry="18"/>
<text text-anchor="middle" x="2422.01" y="-73.3" font-family="Times,serif" font-size="14.00">expression</text>
</g>
<!-- nt11&#45;&gt;nt1 -->
<g id="edge16" class="edge">
<title>nt11&#45;&gt;nt1</title>
<path fill="none" stroke="black" d="M2458.73,-91.58C2479.46,-100.05 2505.63,-110.73 2527.1,-119.5"/>
<polygon fill="black" stroke="black" points="2526.02,-122.84 2536.6,-123.38 2528.67,-116.36 2526.02,-122.84"/>
</g>
<!-- nt11&#45;&gt;nt9 -->
<g id="edge17" class="edge">
<title>nt11&#45;&gt;nt9</title>
<path fill="none" stroke="black" d="M2483.45,-77C2491.81,-77 2500.38,-77 2508.71,-77"/>
<polygon fill="black" stroke="black" points="2508.71,-80.5 2518.71,-77 2508.71,-73.5 2508.71,-80.5"/>
</g>
<!-- nt11&#45;&gt;nt11 -->
<g id="edge18" class="edge">
<title>nt11&#45;&gt;nt11</title>
<path fill="none" stroke="black" d="M2398.11,-93.66C2392.8,-103.62 2400.76,-113 2422.01,-113 2435.63,-113 2443.79,-109.15 2446.5,-103.77"/>
<polygon fill="black" stroke="black" points="2449.99,-103.45 2445.92,-93.66 2443,-103.85 2449.99,-103.45"/>
</g>
<!-- nt12&#45;&gt;nt11 -->
<g id="edge19" class="edge">
<title>nt12&#45;&gt;nt11</title>
<path fill="none" stroke="black" d="M2324.99,-77C2333.09,-77 2341.89,-77 2350.76,-77"/>
<polygon fill="black" stroke="black" points="2350.78,-80.5 2360.78,-77 2350.78,-73.5 2350.78,-80.5"/>
</g>
</g>
</svg>
