<?xml version="1.0" encoding="UTF-8" standalone="no"?>
<!DOCTYPE svg PUBLIC "-//W3C//DTD SVG 1.1//EN"
 "http://www.w3.org/Graphics/SVG/1.1/DTD/svg11.dtd">
<!-- Generated by graphviz version 2.43.0 (0)
 -->
<!-- Title: G Pages: 1 -->
<svg width="2550pt" height="118pt"
 viewBox="0.00 0.00 612.00 28.24" xmlns="http://www.w3.org/2000/svg" xmlns:xlink="http://www.w3.org/1999/xlink">
<g id="graph0" class="graph" transform="scale(1.22 1.22) rotate(0) translate(4 140)">
<title>G</title>
<polygon fill="white" stroke="transparent" points="-4,4 -4,-140 3116.78,-140 3116.78,4 -4,4"/>
<!-- nt0 -->
<g id="node1" class="node">
<title>nt0</title>
<ellipse fill="none" stroke="black" cx="55.9" cy="-45" rx="55.79" ry="18"/>
<text text-anchor="middle" x="55.9" y="-41.3" font-family="Times,serif" font-size="14.00">grammar&#39;</text>
</g>
<!-- nt10 -->
<g id="node11" class="node">
<title>nt10</title>
<ellipse fill="none" stroke="black" cx="201.74" cy="-45" rx="53.89" ry="18"/>
<text text-anchor="middle" x="201.74" y="-41.3" font-family="Times,serif" font-size="14.00">grammar</text>
</g>
<!-- nt0&#45;&gt;nt10 -->
<g id="edge1" class="edge">
<title>nt0&#45;&gt;nt10</title>
<path fill="none" stroke="black" d="M112.1,-45C120.32,-45 128.85,-45 137.23,-45"/>
<polygon fill="black" stroke="black" points="137.34,-48.5 147.34,-45 137.34,-41.5 137.34,-48.5"/>
</g>
<!-- nt1 -->
<g id="node2" class="node">
<title>nt1</title>
<ellipse fill="none" stroke="black" cx="2761.95" cy="-113" rx="33.29" ry="18"/>
<text text-anchor="middle" x="2761.95" y="-109.3" font-family="Times,serif" font-size="14.00">term</text>
</g>
<!-- nt4 -->
<g id="node5" class="node">
<title>nt4</title>
<ellipse fill="none" stroke="black" cx="1376.9" cy="-108" rx="27" ry="18"/>
<text text-anchor="middle" x="1376.9" y="-104.3" font-family="Times,serif" font-size="14.00">rhs</text>
</g>
<!-- nt1&#45;&gt;nt4 -->
<g id="edge2" class="edge">
<title>nt1&#45;&gt;nt4</title>
<path fill="none" stroke="black" d="M2730.16,-118.16C2686.97,-124.94 2605.87,-136 2536.27,-136 1738.12,-136 1738.12,-136 1738.12,-136 1618.99,-136 1478.35,-120.59 1413.69,-112.63"/>
<polygon fill="black" stroke="black" points="1413.97,-109.14 1403.61,-111.38 1413.1,-116.09 1413.97,-109.14"/>
</g>
<!-- nt15 -->
<g id="node16" class="node">
<title>nt15</title>
<ellipse fill="none" stroke="black" cx="2889.6" cy="-113" rx="58.49" ry="18"/>
<text text-anchor="middle" x="2889.6" y="-109.3" font-family="Times,serif" font-size="14.00">char_class</text>
</g>
<!-- nt1&#45;&gt;nt15 -->
<g id="edge3" class="edge">
<title>nt1&#45;&gt;nt15</title>
<path fill="none" stroke="black" d="M2795.31,-113C2803.23,-113 2812.01,-113 2820.92,-113"/>
<polygon fill="black" stroke="black" points="2821,-116.5 2831,-113 2821,-109.5 2821,-116.5"/>
</g>
<!-- nt2 -->
<g id="node3" class="node">
<title>nt2</title>
<ellipse fill="none" stroke="black" cx="722.85" cy="-72" rx="293.55" ry="18"/>
<text text-anchor="middle" x="722.85" y="-68.3" font-family="Times,serif" font-size="14.00">separated_nonempty_list(nonempty_list(NEWLINE),old_rule)</text>
</g>
<!-- nt2&#45;&gt;nt2 -->
<g id="edge4" class="edge">
<title>nt2&#45;&gt;nt2</title>
<path fill="none" stroke="black" d="M654.54,-89.78C642.93,-99.31 665.7,-108 722.85,-108 758.56,-108 780.85,-104.61 789.71,-99.74"/>
<polygon fill="black" stroke="black" points="793.18,-100.18 791.16,-89.78 786.26,-99.18 793.18,-100.18"/>
</g>
<!-- nt7 -->
<g id="node8" class="node">
<title>nt7</title>
<ellipse fill="none" stroke="black" cx="1183.26" cy="-108" rx="48.19" ry="18"/>
<text text-anchor="middle" x="1183.26" y="-104.3" font-family="Times,serif" font-size="14.00">old_rule</text>
</g>
<!-- nt2&#45;&gt;nt7 -->
<g id="edge5" class="edge">
<title>nt2&#45;&gt;nt7</title>
<path fill="none" stroke="black" d="M904.36,-86.18C983.22,-92.37 1070.13,-99.19 1125.4,-103.53"/>
<polygon fill="black" stroke="black" points="1125.44,-107.05 1135.68,-104.34 1125.98,-100.07 1125.44,-107.05"/>
</g>
<!-- nt9 -->
<g id="node10" class="node">
<title>nt9</title>
<ellipse fill="none" stroke="black" cx="1183.26" cy="-36" rx="130.78" ry="18"/>
<text text-anchor="middle" x="1183.26" y="-32.3" font-family="Times,serif" font-size="14.00">nonempty_list(NEWLINE)</text>
</g>
<!-- nt2&#45;&gt;nt9 -->
<g id="edge6" class="edge">
<title>nt2&#45;&gt;nt9</title>
<path fill="none" stroke="black" d="M904.36,-57.82C956.29,-53.75 1011.72,-49.39 1059.3,-45.66"/>
<polygon fill="black" stroke="black" points="1059.63,-49.14 1069.33,-44.87 1059.08,-42.16 1059.63,-49.14"/>
</g>
<!-- nt3 -->
<g id="node4" class="node">
<title>nt3</title>
<ellipse fill="none" stroke="black" cx="342.38" cy="-72" rx="34.39" ry="18"/>
<text text-anchor="middle" x="342.38" y="-68.3" font-family="Times,serif" font-size="14.00">rules</text>
</g>
<!-- nt3&#45;&gt;nt2 -->
<g id="edge7" class="edge">
<title>nt3&#45;&gt;nt2</title>
<path fill="none" stroke="black" d="M376.96,-72C388.65,-72 402.87,-72 418.81,-72"/>
<polygon fill="black" stroke="black" points="418.95,-75.5 428.95,-72 418.95,-68.5 418.95,-75.5"/>
</g>
<!-- nt17 -->
<g id="node18" class="node">
<title>nt17</title>
<ellipse fill="none" stroke="black" cx="1501.64" cy="-81" rx="61.99" ry="18"/>
<text text-anchor="middle" x="1501.64" y="-77.3" font-family="Times,serif" font-size="14.00">alternation</text>
</g>
<!-- nt4&#45;&gt;nt17 -->
<g id="edge8" class="edge">
<title>nt4&#45;&gt;nt17</title>
<path fill="none" stroke="black" d="M1402.74,-102.54C1414.12,-100.03 1428.15,-96.95 1441.99,-93.9"/>
<polygon fill="black" stroke="black" points="1442.98,-97.27 1451.99,-91.7 1441.47,-90.43 1442.98,-97.27"/>
</g>
<!-- nt5 -->
<g id="node6" class="node">
<title>nt5</title>
<ellipse fill="none" stroke="black" cx="2535.27" cy="-52" rx="44.69" ry="18"/>
<text text-anchor="middle" x="2535.27" y="-48.3" font-family="Times,serif" font-size="14.00">prepair</text>
</g>
<!-- nt11 -->
<g id="node12" class="node">
<title>nt11</title>
<ellipse fill="none" stroke="black" cx="2654.46" cy="-71" rx="38.19" ry="18"/>
<text text-anchor="middle" x="2654.46" y="-67.3" font-family="Times,serif" font-size="14.00">factor</text>
</g>
<!-- nt5&#45;&gt;nt11 -->
<g id="edge9" class="edge">
<title>nt5&#45;&gt;nt11</title>
<path fill="none" stroke="black" d="M2577.26,-58.65C2587.05,-60.23 2597.58,-61.94 2607.58,-63.56"/>
<polygon fill="black" stroke="black" points="2607.33,-67.07 2617.76,-65.21 2608.45,-60.16 2607.33,-67.07"/>
</g>
<!-- nt6 -->
<g id="node7" class="node">
<title>nt6</title>
<ellipse fill="none" stroke="black" cx="342.38" cy="-18" rx="50.89" ry="18"/>
<text text-anchor="middle" x="342.38" y="-14.3" font-family="Times,serif" font-size="14.00">postlude</text>
</g>
<!-- nt7&#45;&gt;nt4 -->
<g id="edge10" class="edge">
<title>nt7&#45;&gt;nt4</title>
<path fill="none" stroke="black" d="M1231.63,-108C1264.94,-108 1308.86,-108 1339.45,-108"/>
<polygon fill="black" stroke="black" points="1339.68,-111.5 1349.68,-108 1339.68,-104.5 1339.68,-111.5"/>
</g>
<!-- nt8 -->
<g id="node9" class="node">
<title>nt8</title>
<ellipse fill="none" stroke="black" cx="1739.12" cy="-72" rx="139.98" ry="18"/>
<text text-anchor="middle" x="1739.12" y="-68.3" font-family="Times,serif" font-size="14.00">nonempty_list(alternation1)</text>
</g>
<!-- nt8&#45;&gt;nt8 -->
<g id="edge11" class="edge">
<title>nt8&#45;&gt;nt8</title>
<path fill="none" stroke="black" d="M1696.99,-89.41C1689.13,-99.09 1703.17,-108 1739.12,-108 1761.59,-108 1775.51,-104.52 1780.86,-99.54"/>
<polygon fill="black" stroke="black" points="1784.36,-99.54 1781.26,-89.41 1777.37,-99.27 1784.36,-99.54"/>
</g>
<!-- nt16 -->
<g id="node17" class="node">
<title>nt16</title>
<ellipse fill="none" stroke="black" cx="1982.45" cy="-72" rx="67.69" ry="18"/>
<text text-anchor="middle" x="1982.45" y="-68.3" font-family="Times,serif" font-size="14.00">alternation1</text>
</g>
<!-- nt8&#45;&gt;nt16 -->
<g id="edge12" class="edge">
<title>nt8&#45;&gt;nt16</title>
<path fill="none" stroke="black" d="M1879.11,-72C1887.73,-72 1896.22,-72 1904.4,-72"/>
<polygon fill="black" stroke="black" points="1904.59,-75.5 1914.59,-72 1904.59,-68.5 1904.59,-75.5"/>
</g>
<!-- nt9&#45;&gt;nt9 -->
<g id="edge13" class="edge">
<title>nt9&#45;&gt;nt9</title>
<path fill="none" stroke="black" d="M1148.98,-53.41C1142.58,-63.09 1154.01,-72 1183.26,-72 1201.54,-72 1212.86,-68.52 1217.21,-63.54"/>
<polygon fill="black" stroke="black" points="1220.72,-63.52 1217.54,-53.41 1213.72,-63.29 1220.72,-63.52"/>
</g>
<!-- nt10&#45;&gt;nt3 -->
<g id="edge14" class="edge">
<title>nt10&#45;&gt;nt3</title>
<path fill="none" stroke="black" d="M248.9,-53.99C265.31,-57.19 283.68,-60.76 299.7,-63.88"/>
<polygon fill="black" stroke="black" points="299.35,-67.38 309.84,-65.86 300.69,-60.51 299.35,-67.38"/>
</g>
<!-- nt10&#45;&gt;nt6 -->
<g id="edge15" class="edge">
<title>nt10&#45;&gt;nt6</title>
<path fill="none" stroke="black" d="M248.9,-36.01C261.21,-33.61 274.61,-31 287.3,-28.53"/>
<polygon fill="black" stroke="black" points="288.15,-31.93 297.29,-26.59 286.81,-25.06 288.15,-31.93"/>
</g>
<!-- nt11&#45;&gt;nt1 -->
<g id="edge16" class="edge">
<title>nt11&#45;&gt;nt1</title>
<path fill="none" stroke="black" d="M2684.29,-82.48C2696.95,-87.52 2711.95,-93.49 2725.31,-98.81"/>
<polygon fill="black" stroke="black" points="2724.11,-102.1 2734.69,-102.54 2726.69,-95.59 2724.11,-102.1"/>
</g>
<!-- nt12 -->
<g id="node13" class="node">
<title>nt12</title>
<ellipse fill="none" stroke="black" cx="2419.98" cy="-52" rx="34.39" ry="18"/>
<text text-anchor="middle" x="2419.98" y="-48.3" font-family="Times,serif" font-size="14.00">cpair</text>
</g>
<!-- nt12&#45;&gt;nt5 -->
<g id="edge17" class="edge">
<title>nt12&#45;&gt;nt5</title>
<path fill="none" stroke="black" d="M2454.66,-52C2462.72,-52 2471.53,-52 2480.26,-52"/>
<polygon fill="black" stroke="black" points="2480.42,-55.5 2490.42,-52 2480.42,-48.5 2480.42,-55.5"/>
</g>
<!-- nt12&#45;&gt;nt11 -->
<g id="edge18" class="edge">
<title>nt12&#45;&gt;nt11</title>
<path fill="none" stroke="black" d="M2445.71,-39.8C2458.68,-34.08 2475.04,-27.89 2490.42,-25 2529.6,-17.65 2541.8,-13.98 2580.11,-25 2596.94,-29.84 2613.64,-39.8 2626.84,-49.22"/>
<polygon fill="black" stroke="black" points="2624.87,-52.11 2634.98,-55.27 2629.05,-46.49 2624.87,-52.11"/>
</g>
<!-- nt13 -->
<g id="node14" class="node">
<title>nt13</title>
<ellipse fill="none" stroke="black" cx="2274.13" cy="-58" rx="75.29" ry="18"/>
<text text-anchor="middle" x="2274.13" y="-54.3" font-family="Times,serif" font-size="14.00">concatenation</text>
</g>
<!-- nt13&#45;&gt;nt11 -->
<g id="edge19" class="edge">
<title>nt13&#45;&gt;nt11</title>
<path fill="none" stroke="black" d="M2329.03,-70.35C2346.91,-73.88 2366.98,-77.25 2385.53,-79 2471.63,-87.12 2493.76,-83.7 2580.11,-79 2588.94,-78.52 2598.34,-77.72 2607.36,-76.8"/>
<polygon fill="black" stroke="black" points="2607.77,-80.28 2617.34,-75.73 2607.02,-73.32 2607.77,-80.28"/>
</g>
<!-- nt13&#45;&gt;nt12 -->
<g id="edge20" class="edge">
<title>nt13&#45;&gt;nt12</title>
<path fill="none" stroke="black" d="M2348.74,-54.93C2357.78,-54.55 2366.78,-54.18 2375.18,-53.83"/>
<polygon fill="black" stroke="black" points="2375.6,-57.31 2385.45,-53.4 2375.31,-50.32 2375.6,-57.31"/>
</g>
<!-- nt14 -->
<g id="node15" class="node">
<title>nt14</title>
<ellipse fill="none" stroke="black" cx="3048.44" cy="-113" rx="64.19" ry="18"/>
<text text-anchor="middle" x="3048.44" y="-109.3" font-family="Times,serif" font-size="14.00">char_class1</text>
</g>
<!-- nt15&#45;&gt;nt14 -->
<g id="edge21" class="edge">
<title>nt15&#45;&gt;nt14</title>
<path fill="none" stroke="black" d="M2948.11,-113C2956.46,-113 2965.16,-113 2973.79,-113"/>
<polygon fill="black" stroke="black" points="2973.85,-116.5 2983.85,-113 2973.85,-109.5 2973.85,-116.5"/>
</g>
<!-- nt16&#45;&gt;nt13 -->
<g id="edge22" class="edge">
<title>nt16&#45;&gt;nt13</title>
<path fill="none" stroke="black" d="M2049.93,-73.99C2083.74,-74.5 2125.46,-74.35 2162.74,-72 2174.64,-71.25 2187.22,-70.05 2199.46,-68.65"/>
<polygon fill="black" stroke="black" points="2200.12,-72.1 2209.64,-67.44 2199.29,-65.15 2200.12,-72.1"/>
</g>
<!-- nt18 -->
<g id="node19" class="node">
<title>nt18</title>
<ellipse fill="none" stroke="black" cx="2124.4" cy="-45" rx="38.19" ry="18"/>
<text text-anchor="middle" x="2124.4" y="-41.3" font-family="Times,serif" font-size="14.00">alter2</text>
</g>
<!-- nt16&#45;&gt;nt18 -->
<g id="edge23" class="edge">
<title>nt16&#45;&gt;nt18</title>
<path fill="none" stroke="black" d="M2037.56,-61.56C2051.03,-58.96 2065.33,-56.2 2078.32,-53.7"/>
<polygon fill="black" stroke="black" points="2079.25,-57.08 2088.41,-51.75 2077.93,-50.21 2079.25,-57.08"/>
</g>
<!-- nt17&#45;&gt;nt8 -->
<g id="edge24" class="edge">
<title>nt17&#45;&gt;nt8</title>
<path fill="none" stroke="black" d="M1562.98,-78.69C1572.99,-78.31 1583.74,-77.9 1594.81,-77.48"/>
<polygon fill="black" stroke="black" points="1595.19,-80.97 1605.05,-77.09 1594.92,-73.97 1595.19,-80.97"/>
</g>
<!-- nt18&#45;&gt;nt13 -->
<g id="edge25" class="edge">
<title>nt18&#45;&gt;nt13</title>
<path fill="none" stroke="black" d="M2162.29,-48.25C2171.69,-49.07 2182.15,-49.99 2192.8,-50.93"/>
<polygon fill="black" stroke="black" points="2192.76,-54.44 2203.03,-51.83 2193.38,-47.47 2192.76,-54.44"/>
</g>
</g>
</svg>
