<?xml version="1.0" encoding="UTF-8" standalone="no"?>
<!DOCTYPE svg PUBLIC "-//W3C//DTD SVG 1.1//EN"
 "http://www.w3.org/Graphics/SVG/1.1/DTD/svg11.dtd">
<!-- Generated by graphviz version 2.43.0 (0)
 -->
<!-- Title: G Pages: 1 -->
<svg width="2550pt" height="278pt"
 viewBox="0.00 0.00 612.00 66.72" xmlns="http://www.w3.org/2000/svg" xmlns:xlink="http://www.w3.org/1999/xlink">
<g id="graph0" class="graph" transform="scale(1.26 1.26) rotate(0) translate(4 347)">
<title>G</title>
<polygon fill="white" stroke="transparent" points="-4,4 -4,-347 3215.57,-347 3215.57,4 -4,4"/>
<!-- nt0 -->
<g id="node1" class="node">
<title>nt0</title>
<ellipse fill="none" stroke="black" cx="55.9" cy="-54" rx="55.79" ry="18"/>
<text text-anchor="middle" x="55.9" y="-50.3" font-family="Times,serif" font-size="14.00">grammar&#39;</text>
</g>
<!-- nt14 -->
<g id="node15" class="node">
<title>nt14</title>
<ellipse fill="none" stroke="black" cx="201.74" cy="-54" rx="53.89" ry="18"/>
<text text-anchor="middle" x="201.74" y="-50.3" font-family="Times,serif" font-size="14.00">grammar</text>
</g>
<!-- nt0&#45;&gt;nt14 -->
<g id="edge1" class="edge">
<title>nt0&#45;&gt;nt14</title>
<path fill="none" stroke="black" d="M112.1,-54C120.32,-54 128.85,-54 137.23,-54"/>
<polygon fill="black" stroke="black" points="137.34,-57.5 147.34,-54 137.34,-50.5 137.34,-57.5"/>
</g>
<!-- nt1 -->
<g id="node2" class="node">
<title>nt1</title>
<ellipse fill="none" stroke="black" cx="2720.75" cy="-274" rx="60.39" ry="18"/>
<text text-anchor="middle" x="2720.75" y="-270.3" font-family="Times,serif" font-size="14.00">termfactor</text>
</g>
<!-- nt2 -->
<g id="node3" class="node">
<title>nt2</title>
<ellipse fill="none" stroke="black" cx="2857.5" cy="-298" rx="33.29" ry="18"/>
<text text-anchor="middle" x="2857.5" y="-294.3" font-family="Times,serif" font-size="14.00">term</text>
</g>
<!-- nt1&#45;&gt;nt2 -->
<g id="edge2" class="edge">
<title>nt1&#45;&gt;nt2</title>
<path fill="none" stroke="black" d="M2773.08,-283.14C2787.18,-285.65 2802.29,-288.34 2815.71,-290.74"/>
<polygon fill="black" stroke="black" points="2815.14,-294.19 2825.6,-292.5 2816.37,-287.3 2815.14,-294.19"/>
</g>
<!-- nt3 -->
<g id="node4" class="node">
<title>nt3</title>
<ellipse fill="none" stroke="black" cx="3010.49" cy="-298" rx="38.19" ry="18"/>
<text text-anchor="middle" x="3010.49" y="-294.3" font-family="Times,serif" font-size="14.00">sterm</text>
</g>
<!-- nt2&#45;&gt;nt3 -->
<g id="edge3" class="edge">
<title>nt2&#45;&gt;nt3</title>
<path fill="none" stroke="black" d="M2890.89,-298C2911.55,-298 2938.7,-298 2961.8,-298"/>
<polygon fill="black" stroke="black" points="2962.09,-301.5 2972.09,-298 2962.09,-294.5 2962.09,-301.5"/>
</g>
<!-- nt22 -->
<g id="node23" class="node">
<title>nt22</title>
<ellipse fill="none" stroke="black" cx="3010.49" cy="-136" rx="76.89" ry="18"/>
<text text-anchor="middle" x="3010.49" y="-132.3" font-family="Times,serif" font-size="14.00">complexterms</text>
</g>
<!-- nt2&#45;&gt;nt22 -->
<g id="edge4" class="edge">
<title>nt2&#45;&gt;nt22</title>
<path fill="none" stroke="black" d="M2880.11,-284.73C2886.09,-280.64 2892.42,-275.92 2897.79,-271 2934.82,-237.14 2970.5,-190.87 2991.2,-162.24"/>
<polygon fill="black" stroke="black" points="2994.15,-164.12 2997.12,-153.95 2988.46,-160.05 2994.15,-164.12"/>
</g>
<!-- nt7 -->
<g id="node8" class="node">
<title>nt7</title>
<ellipse fill="none" stroke="black" cx="3167.37" cy="-325" rx="27" ry="18"/>
<text text-anchor="middle" x="3167.37" y="-321.3" font-family="Times,serif" font-size="14.00">qid</text>
</g>
<!-- nt3&#45;&gt;nt7 -->
<g id="edge5" class="edge">
<title>nt3&#45;&gt;nt7</title>
<path fill="none" stroke="black" d="M3046.63,-304.13C3071.89,-308.53 3105.81,-314.44 3131.1,-318.85"/>
<polygon fill="black" stroke="black" points="3130.56,-322.31 3141.02,-320.58 3131.77,-315.41 3130.56,-322.31"/>
</g>
<!-- nt12 -->
<g id="node13" class="node">
<title>nt12</title>
<ellipse fill="none" stroke="black" cx="3167.37" cy="-271" rx="27" ry="18"/>
<text text-anchor="middle" x="3167.37" y="-267.3" font-family="Times,serif" font-size="14.00">lid</text>
</g>
<!-- nt3&#45;&gt;nt12 -->
<g id="edge6" class="edge">
<title>nt3&#45;&gt;nt12</title>
<path fill="none" stroke="black" d="M3046.63,-291.87C3071.89,-287.47 3105.81,-281.56 3131.1,-277.15"/>
<polygon fill="black" stroke="black" points="3131.77,-280.59 3141.02,-275.42 3130.56,-273.69 3131.77,-280.59"/>
</g>
<!-- nt4 -->
<g id="node5" class="node">
<title>nt4</title>
<ellipse fill="none" stroke="black" cx="690.35" cy="-54" rx="293.55" ry="18"/>
<text text-anchor="middle" x="690.35" y="-50.3" font-family="Times,serif" font-size="14.00">separated_nonempty_list(nonempty_list(NEWLINE),old_rule)</text>
</g>
<!-- nt4&#45;&gt;nt4 -->
<g id="edge7" class="edge">
<title>nt4&#45;&gt;nt4</title>
<path fill="none" stroke="black" d="M624.91,-71.78C613.79,-81.31 635.61,-90 690.35,-90 724.56,-90 745.91,-86.61 754.4,-81.74"/>
<polygon fill="black" stroke="black" points="757.87,-82.17 755.78,-71.78 750.94,-81.2 757.87,-82.17"/>
</g>
<!-- nt8 -->
<g id="node9" class="node">
<title>nt8</title>
<ellipse fill="none" stroke="black" cx="1150.76" cy="-90" rx="48.19" ry="18"/>
<text text-anchor="middle" x="1150.76" y="-86.3" font-family="Times,serif" font-size="14.00">old_rule</text>
</g>
<!-- nt4&#45;&gt;nt8 -->
<g id="edge8" class="edge">
<title>nt4&#45;&gt;nt8</title>
<path fill="none" stroke="black" d="M871.87,-68.18C950.72,-74.37 1037.63,-81.19 1092.9,-85.53"/>
<polygon fill="black" stroke="black" points="1092.94,-89.05 1103.18,-86.34 1093.49,-82.07 1092.94,-89.05"/>
</g>
<!-- nt10 -->
<g id="node11" class="node">
<title>nt10</title>
<ellipse fill="none" stroke="black" cx="1150.76" cy="-18" rx="130.78" ry="18"/>
<text text-anchor="middle" x="1150.76" y="-14.3" font-family="Times,serif" font-size="14.00">nonempty_list(NEWLINE)</text>
</g>
<!-- nt4&#45;&gt;nt10 -->
<g id="edge9" class="edge">
<title>nt4&#45;&gt;nt10</title>
<path fill="none" stroke="black" d="M871.87,-39.82C923.8,-35.75 979.22,-31.39 1026.8,-27.66"/>
<polygon fill="black" stroke="black" points="1027.13,-31.14 1036.83,-26.87 1026.59,-24.16 1027.13,-31.14"/>
</g>
<!-- nt5 -->
<g id="node6" class="node">
<title>nt5</title>
<ellipse fill="none" stroke="black" cx="326.13" cy="-54" rx="34.39" ry="18"/>
<text text-anchor="middle" x="326.13" y="-50.3" font-family="Times,serif" font-size="14.00">rules</text>
</g>
<!-- nt5&#45;&gt;nt4 -->
<g id="edge10" class="edge">
<title>nt5&#45;&gt;nt4</title>
<path fill="none" stroke="black" d="M360.88,-54C368.37,-54 376.9,-54 386.24,-54"/>
<polygon fill="black" stroke="black" points="386.25,-57.5 396.25,-54 386.25,-50.5 386.25,-57.5"/>
</g>
<!-- nt6 -->
<g id="node7" class="node">
<title>nt6</title>
<ellipse fill="none" stroke="black" cx="1344.4" cy="-90" rx="27" ry="18"/>
<text text-anchor="middle" x="1344.4" y="-86.3" font-family="Times,serif" font-size="14.00">rhs</text>
</g>
<!-- nt25 -->
<g id="node26" class="node">
<title>nt25</title>
<ellipse fill="none" stroke="black" cx="1469.14" cy="-136" rx="61.99" ry="18"/>
<text text-anchor="middle" x="1469.14" y="-132.3" font-family="Times,serif" font-size="14.00">alternation</text>
</g>
<!-- nt6&#45;&gt;nt25 -->
<g id="edge11" class="edge">
<title>nt6&#45;&gt;nt25</title>
<path fill="none" stroke="black" d="M1368.2,-98.54C1382.94,-104.07 1402.67,-111.46 1420.71,-118.22"/>
<polygon fill="black" stroke="black" points="1419.92,-121.67 1430.52,-121.9 1422.38,-115.11 1419.92,-121.67"/>
</g>
<!-- nt8&#45;&gt;nt6 -->
<g id="edge12" class="edge">
<title>nt8&#45;&gt;nt6</title>
<path fill="none" stroke="black" d="M1199.13,-90C1232.45,-90 1276.36,-90 1306.95,-90"/>
<polygon fill="black" stroke="black" points="1307.18,-93.5 1317.18,-90 1307.18,-86.5 1307.18,-93.5"/>
</g>
<!-- nt9 -->
<g id="node10" class="node">
<title>nt9</title>
<ellipse fill="none" stroke="black" cx="1706.63" cy="-136" rx="139.98" ry="18"/>
<text text-anchor="middle" x="1706.63" y="-132.3" font-family="Times,serif" font-size="14.00">nonempty_list(alternation1)</text>
</g>
<!-- nt9&#45;&gt;nt9 -->
<g id="edge13" class="edge">
<title>nt9&#45;&gt;nt9</title>
<path fill="none" stroke="black" d="M1664.49,-153.41C1656.63,-163.09 1670.67,-172 1706.63,-172 1729.1,-172 1743.01,-168.52 1748.36,-163.54"/>
<polygon fill="black" stroke="black" points="1751.87,-163.54 1748.76,-153.41 1744.87,-163.27 1751.87,-163.54"/>
</g>
<!-- nt24 -->
<g id="node25" class="node">
<title>nt24</title>
<ellipse fill="none" stroke="black" cx="1949.96" cy="-136" rx="67.69" ry="18"/>
<text text-anchor="middle" x="1949.96" y="-132.3" font-family="Times,serif" font-size="14.00">alternation1</text>
</g>
<!-- nt9&#45;&gt;nt24 -->
<g id="edge14" class="edge">
<title>nt9&#45;&gt;nt24</title>
<path fill="none" stroke="black" d="M1846.61,-136C1855.23,-136 1863.72,-136 1871.91,-136"/>
<polygon fill="black" stroke="black" points="1872.09,-139.5 1882.09,-136 1872.09,-132.5 1872.09,-139.5"/>
</g>
<!-- nt10&#45;&gt;nt10 -->
<g id="edge15" class="edge">
<title>nt10&#45;&gt;nt10</title>
<path fill="none" stroke="black" d="M1116.48,-35.41C1110.08,-45.09 1121.51,-54 1150.76,-54 1169.04,-54 1180.36,-50.52 1184.72,-45.54"/>
<polygon fill="black" stroke="black" points="1188.22,-45.52 1185.04,-35.41 1181.22,-45.29 1188.22,-45.52"/>
</g>
<!-- nt11 -->
<g id="node12" class="node">
<title>nt11</title>
<ellipse fill="none" stroke="black" cx="2720.75" cy="-193" rx="49.29" ry="18"/>
<text text-anchor="middle" x="2720.75" y="-189.3" font-family="Times,serif" font-size="14.00">modifier</text>
</g>
<!-- nt15 -->
<g id="node16" class="node">
<title>nt15</title>
<ellipse fill="none" stroke="black" cx="2857.5" cy="-244" rx="32.49" ry="18"/>
<text text-anchor="middle" x="2857.5" y="-240.3" font-family="Times,serif" font-size="14.00">fstar</text>
</g>
<!-- nt11&#45;&gt;nt15 -->
<g id="edge16" class="edge">
<title>nt11&#45;&gt;nt15</title>
<path fill="none" stroke="black" d="M2755.76,-205.87C2775.59,-213.38 2800.58,-222.84 2820.71,-230.45"/>
<polygon fill="black" stroke="black" points="2819.57,-233.76 2830.16,-234.03 2822.04,-227.22 2819.57,-233.76"/>
</g>
<!-- nt16 -->
<g id="node17" class="node">
<title>nt16</title>
<ellipse fill="none" stroke="black" cx="2857.5" cy="-190" rx="40.09" ry="18"/>
<text text-anchor="middle" x="2857.5" y="-186.3" font-family="Times,serif" font-size="14.00">fquest</text>
</g>
<!-- nt11&#45;&gt;nt16 -->
<g id="edge17" class="edge">
<title>nt11&#45;&gt;nt16</title>
<path fill="none" stroke="black" d="M2770.4,-191.92C2782.29,-191.65 2795.03,-191.37 2806.97,-191.1"/>
<polygon fill="black" stroke="black" points="2807.29,-194.6 2817.21,-190.87 2807.13,-187.6 2807.29,-194.6"/>
</g>
<!-- nt17 -->
<g id="node18" class="node">
<title>nt17</title>
<ellipse fill="none" stroke="black" cx="2857.5" cy="-136" rx="33.6" ry="18"/>
<text text-anchor="middle" x="2857.5" y="-132.3" font-family="Times,serif" font-size="14.00">fplus</text>
</g>
<!-- nt11&#45;&gt;nt17 -->
<g id="edge18" class="edge">
<title>nt11&#45;&gt;nt17</title>
<path fill="none" stroke="black" d="M2753.69,-179.49C2773.84,-170.97 2799.91,-159.94 2820.76,-151.12"/>
<polygon fill="black" stroke="black" points="2822.38,-154.23 2830.22,-147.11 2819.65,-147.79 2822.38,-154.23"/>
</g>
<!-- nt13 -->
<g id="node14" class="node">
<title>nt13</title>
<ellipse fill="none" stroke="black" cx="3167.37" cy="-121" rx="44.39" ry="18"/>
<text text-anchor="middle" x="3167.37" y="-117.3" font-family="Times,serif" font-size="14.00">group1</text>
</g>
<!-- nt13&#45;&gt;nt6 -->
<g id="edge19" class="edge">
<title>nt13&#45;&gt;nt6</title>
<path fill="none" stroke="black" d="M3126.16,-114.35C3067.49,-105.24 2954.93,-90 2858.5,-90 1705.63,-90 1705.63,-90 1705.63,-90 1587.14,-90 1446.74,-90 1381.75,-90"/>
<polygon fill="black" stroke="black" points="1381.61,-86.5 1371.61,-90 1381.61,-93.5 1381.61,-86.5"/>
</g>
<!-- nt14&#45;&gt;nt5 -->
<g id="edge20" class="edge">
<title>nt14&#45;&gt;nt5</title>
<path fill="none" stroke="black" d="M255.71,-54C264.25,-54 273,-54 281.3,-54"/>
<polygon fill="black" stroke="black" points="281.5,-57.5 291.5,-54 281.5,-50.5 281.5,-57.5"/>
</g>
<!-- nt18 -->
<g id="node19" class="node">
<title>nt18</title>
<ellipse fill="none" stroke="black" cx="2432.32" cy="-202" rx="79.09" ry="18"/>
<text text-anchor="middle" x="2432.32" y="-198.3" font-family="Times,serif" font-size="14.00">fconcatenation</text>
</g>
<!-- nt19 -->
<g id="node20" class="node">
<title>nt19</title>
<ellipse fill="none" stroke="black" cx="2585.96" cy="-199" rx="38.19" ry="18"/>
<text text-anchor="middle" x="2585.96" y="-195.3" font-family="Times,serif" font-size="14.00">factor</text>
</g>
<!-- nt18&#45;&gt;nt19 -->
<g id="edge21" class="edge">
<title>nt18&#45;&gt;nt19</title>
<path fill="none" stroke="black" d="M2511.36,-200.46C2520.24,-200.28 2529.08,-200.11 2537.39,-199.94"/>
<polygon fill="black" stroke="black" points="2537.67,-203.44 2547.6,-199.74 2537.53,-196.44 2537.67,-203.44"/>
</g>
<!-- nt19&#45;&gt;nt1 -->
<g id="edge22" class="edge">
<title>nt19&#45;&gt;nt1</title>
<path fill="none" stroke="black" d="M2611.32,-212.76C2631.28,-224.03 2659.86,-240.17 2682.66,-253.05"/>
<polygon fill="black" stroke="black" points="2680.98,-256.12 2691.41,-257.99 2684.42,-250.02 2680.98,-256.12"/>
</g>
<!-- nt19&#45;&gt;nt11 -->
<g id="edge23" class="edge">
<title>nt19&#45;&gt;nt11</title>
<path fill="none" stroke="black" d="M2624.31,-197.31C2635.69,-196.8 2648.5,-196.22 2660.95,-195.66"/>
<polygon fill="black" stroke="black" points="2661.45,-199.14 2671.28,-195.19 2661.13,-192.15 2661.45,-199.14"/>
</g>
<!-- nt20 -->
<g id="node21" class="node">
<title>nt20</title>
<ellipse fill="none" stroke="black" cx="2432.32" cy="-148" rx="34.39" ry="18"/>
<text text-anchor="middle" x="2432.32" y="-144.3" font-family="Times,serif" font-size="14.00">cpair</text>
</g>
<!-- nt20&#45;&gt;nt19 -->
<g id="edge24" class="edge">
<title>nt20&#45;&gt;nt19</title>
<path fill="none" stroke="black" d="M2461.85,-157.59C2485.2,-165.45 2518.53,-176.66 2544.62,-185.43"/>
<polygon fill="black" stroke="black" points="2543.63,-188.79 2554.22,-188.66 2545.86,-182.16 2543.63,-188.79"/>
</g>
<!-- nt21 -->
<g id="node22" class="node">
<title>nt21</title>
<ellipse fill="none" stroke="black" cx="2241.64" cy="-159" rx="75.29" ry="18"/>
<text text-anchor="middle" x="2241.64" y="-155.3" font-family="Times,serif" font-size="14.00">concatenation</text>
</g>
<!-- nt21&#45;&gt;nt18 -->
<g id="edge25" class="edge">
<title>nt21&#45;&gt;nt18</title>
<path fill="none" stroke="black" d="M2296.71,-171.32C2318.24,-176.23 2343.22,-181.92 2365.77,-187.06"/>
<polygon fill="black" stroke="black" points="2365.08,-190.49 2375.61,-189.3 2366.63,-183.67 2365.08,-190.49"/>
</g>
<!-- nt21&#45;&gt;nt20 -->
<g id="edge26" class="edge">
<title>nt21&#45;&gt;nt20</title>
<path fill="none" stroke="black" d="M2315.05,-154.78C2339.61,-153.35 2366.27,-151.79 2387.86,-150.53"/>
<polygon fill="black" stroke="black" points="2388.24,-154.02 2398.02,-149.94 2387.83,-147.03 2388.24,-154.02"/>
</g>
<!-- nt22&#45;&gt;nt13 -->
<g id="edge27" class="edge">
<title>nt22&#45;&gt;nt13</title>
<path fill="none" stroke="black" d="M3081.68,-129.2C3092.48,-128.16 3103.48,-127.09 3113.81,-126.09"/>
<polygon fill="black" stroke="black" points="3114.28,-129.56 3123.9,-125.11 3113.61,-122.59 3114.28,-129.56"/>
</g>
<!-- nt23 -->
<g id="node24" class="node">
<title>nt23</title>
<ellipse fill="none" stroke="black" cx="3167.37" cy="-60" rx="39.79" ry="18"/>
<text text-anchor="middle" x="3167.37" y="-56.3" font-family="Times,serif" font-size="14.00">class1</text>
</g>
<!-- nt22&#45;&gt;nt23 -->
<g id="edge28" class="edge">
<title>nt22&#45;&gt;nt23</title>
<path fill="none" stroke="black" d="M3044.71,-119.7C3070.05,-107.27 3104.87,-90.18 3130.78,-77.47"/>
<polygon fill="black" stroke="black" points="3132.44,-80.55 3139.88,-73 3129.36,-74.26 3132.44,-80.55"/>
</g>
<!-- nt23&#45;&gt;nt6 -->
<g id="edge29" class="edge">
<title>nt23&#45;&gt;nt6</title>
<path fill="none" stroke="black" d="M3127.5,-58.34C3069.11,-56 2955.28,-52 2858.5,-52 1705.63,-52 1705.63,-52 1705.63,-52 1572.65,-52 1538.86,-55.97 1407.4,-76 1398.28,-77.39 1388.51,-79.36 1379.49,-81.39"/>
<polygon fill="black" stroke="black" points="1378.63,-78 1369.69,-83.68 1380.22,-84.81 1378.63,-78"/>
</g>
<!-- nt24&#45;&gt;nt21 -->
<g id="edge30" class="edge">
<title>nt24&#45;&gt;nt21</title>
<path fill="none" stroke="black" d="M1993.4,-149.79C2011.69,-155.05 2033.46,-160.4 2053.55,-163 2088.59,-167.53 2127.62,-167.49 2160.93,-165.95"/>
<polygon fill="black" stroke="black" points="2161.27,-169.43 2171.07,-165.42 2160.9,-162.44 2161.27,-169.43"/>
</g>
<!-- nt26 -->
<g id="node27" class="node">
<title>nt26</title>
<ellipse fill="none" stroke="black" cx="2091.9" cy="-136" rx="38.19" ry="18"/>
<text text-anchor="middle" x="2091.9" y="-132.3" font-family="Times,serif" font-size="14.00">alter2</text>
</g>
<!-- nt24&#45;&gt;nt26 -->
<g id="edge31" class="edge">
<title>nt24&#45;&gt;nt26</title>
<path fill="none" stroke="black" d="M2017.65,-136C2026.26,-136 2034.94,-136 2043.16,-136"/>
<polygon fill="black" stroke="black" points="2043.29,-139.5 2053.29,-136 2043.29,-132.5 2043.29,-139.5"/>
</g>
<!-- nt25&#45;&gt;nt9 -->
<g id="edge32" class="edge">
<title>nt25&#45;&gt;nt9</title>
<path fill="none" stroke="black" d="M1531.09,-136C1539.21,-136 1547.8,-136 1556.65,-136"/>
<polygon fill="black" stroke="black" points="1556.73,-139.5 1566.73,-136 1556.73,-132.5 1556.73,-139.5"/>
</g>
<!-- nt26&#45;&gt;nt21 -->
<g id="edge33" class="edge">
<title>nt26&#45;&gt;nt21</title>
<path fill="none" stroke="black" d="M2128.66,-141.57C2140.62,-143.43 2154.41,-145.58 2168.14,-147.71"/>
<polygon fill="black" stroke="black" points="2167.68,-151.18 2178.1,-149.26 2168.75,-144.27 2167.68,-151.18"/>
</g>
</g>
</svg>
