<?xml version="1.0" encoding="UTF-8" standalone="no"?>
<!DOCTYPE svg PUBLIC "-//W3C//DTD SVG 1.1//EN"
 "http://www.w3.org/Graphics/SVG/1.1/DTD/svg11.dtd">
<!-- Generated by graphviz version 2.43.0 (0)
 -->
<!-- Title: G Pages: 1 -->
<svg width="2550pt" height="269pt"
 viewBox="0.00 0.00 612.00 64.57" xmlns="http://www.w3.org/2000/svg" xmlns:xlink="http://www.w3.org/1999/xlink">
<g id="graph0" class="graph" transform="scale(0.68 0.68) rotate(0) translate(4 178)">
<title>G</title>
<polygon fill="white" stroke="transparent" points="-4,4 -4,-178 1721.08,-178 1721.08,4 -4,4"/>
<!-- nt0 -->
<g id="node1" class="node">
<title>nt0</title>
<ellipse fill="none" stroke="black" cx="55.9" cy="-34" rx="55.79" ry="18"/>
<text text-anchor="middle" x="55.9" y="-30.3" font-family="Times,serif" font-size="14.00">grammar&#39;</text>
</g>
<!-- nt8 -->
<g id="node9" class="node">
<title>nt8</title>
<ellipse fill="none" stroke="black" cx="201.74" cy="-34" rx="53.89" ry="18"/>
<text text-anchor="middle" x="201.74" y="-30.3" font-family="Times,serif" font-size="14.00">grammar</text>
</g>
<!-- nt0&#45;&gt;nt8 -->
<g id="edge1" class="edge">
<title>nt0&#45;&gt;nt8</title>
<path fill="none" stroke="black" d="M112.1,-34C120.32,-34 128.85,-34 137.23,-34"/>
<polygon fill="black" stroke="black" points="137.34,-37.5 147.34,-34 137.34,-30.5 137.34,-37.5"/>
</g>
<!-- nt1 -->
<g id="node2" class="node">
<title>nt1</title>
<ellipse fill="none" stroke="black" cx="1323.36" cy="-111" rx="33.29" ry="18"/>
<text text-anchor="middle" x="1323.36" y="-107.3" font-family="Times,serif" font-size="14.00">term</text>
</g>
<!-- nt4 -->
<g id="node5" class="node">
<title>nt4</title>
<ellipse fill="none" stroke="black" cx="744.55" cy="-90" rx="27" ry="18"/>
<text text-anchor="middle" x="744.55" y="-86.3" font-family="Times,serif" font-size="14.00">rhs</text>
</g>
<!-- nt1&#45;&gt;nt4 -->
<g id="edge2" class="edge">
<title>nt1&#45;&gt;nt4</title>
<path fill="none" stroke="black" d="M1294.46,-120.09C1282.23,-123.73 1267.63,-127.62 1254.21,-130 1069.11,-162.88 1013.2,-182.3 831.24,-135 810.44,-129.59 789.03,-118.36 772.82,-108.47"/>
<polygon fill="black" stroke="black" points="774.24,-105.22 763.92,-102.85 770.51,-111.15 774.24,-105.22"/>
</g>
<!-- nt7 -->
<g id="node8" class="node">
<title>nt7</title>
<ellipse fill="none" stroke="black" cx="1472.45" cy="-43" rx="79.89" ry="18"/>
<text text-anchor="middle" x="1472.45" y="-39.3" font-family="Times,serif" font-size="14.00">list(NEWLINE)</text>
</g>
<!-- nt1&#45;&gt;nt7 -->
<g id="edge3" class="edge">
<title>nt1&#45;&gt;nt7</title>
<path fill="none" stroke="black" d="M1349.31,-99.46C1370.63,-89.61 1401.8,-75.2 1427.32,-63.4"/>
<polygon fill="black" stroke="black" points="1428.82,-66.56 1436.43,-59.19 1425.89,-60.21 1428.82,-66.56"/>
</g>
<!-- nt12 -->
<g id="node13" class="node">
<title>nt12</title>
<ellipse fill="none" stroke="black" cx="1472.45" cy="-115" rx="58.49" ry="18"/>
<text text-anchor="middle" x="1472.45" y="-111.3" font-family="Times,serif" font-size="14.00">char_class</text>
</g>
<!-- nt1&#45;&gt;nt12 -->
<g id="edge4" class="edge">
<title>nt1&#45;&gt;nt12</title>
<path fill="none" stroke="black" d="M1356.64,-111.88C1370.57,-112.26 1387.43,-112.72 1403.89,-113.16"/>
<polygon fill="black" stroke="black" points="1403.96,-116.67 1414.06,-113.44 1404.15,-109.67 1403.96,-116.67"/>
</g>
<!-- nt2 -->
<g id="node3" class="node">
<title>nt2</title>
<ellipse fill="none" stroke="black" cx="326.13" cy="-84" rx="34.39" ry="18"/>
<text text-anchor="middle" x="326.13" y="-80.3" font-family="Times,serif" font-size="14.00">rules</text>
</g>
<!-- nt2&#45;&gt;nt2 -->
<g id="edge5" class="edge">
<title>nt2&#45;&gt;nt2</title>
<path fill="none" stroke="black" d="M305.38,-98.79C298.63,-109.42 305.54,-120 326.13,-120 339.96,-120 347.62,-115.22 349.11,-108.86"/>
<polygon fill="black" stroke="black" points="352.46,-107.8 346.87,-98.79 345.62,-109.31 352.46,-107.8"/>
</g>
<!-- nt3 -->
<g id="node4" class="node">
<title>nt3</title>
<ellipse fill="none" stroke="black" cx="527.21" cy="-84" rx="29.5" ry="18"/>
<text text-anchor="middle" x="527.21" y="-80.3" font-family="Times,serif" font-size="14.00">rule</text>
</g>
<!-- nt2&#45;&gt;nt3 -->
<g id="edge6" class="edge">
<title>nt2&#45;&gt;nt3</title>
<path fill="none" stroke="black" d="M360.9,-84C395.94,-84 450.65,-84 487.43,-84"/>
<polygon fill="black" stroke="black" points="487.77,-87.5 497.77,-84 487.77,-80.5 487.77,-87.5"/>
</g>
<!-- nt6 -->
<g id="node7" class="node">
<title>nt6</title>
<ellipse fill="none" stroke="black" cx="527.21" cy="-138" rx="130.78" ry="18"/>
<text text-anchor="middle" x="527.21" y="-134.3" font-family="Times,serif" font-size="14.00">nonempty_list(NEWLINE)</text>
</g>
<!-- nt2&#45;&gt;nt6 -->
<g id="edge7" class="edge">
<title>nt2&#45;&gt;nt6</title>
<path fill="none" stroke="black" d="M353.15,-95.3C366.04,-100.59 381.94,-106.66 396.57,-111 409.61,-114.86 423.54,-118.38 437.26,-121.51"/>
<polygon fill="black" stroke="black" points="436.68,-124.97 447.2,-123.72 438.2,-118.13 436.68,-124.97"/>
</g>
<!-- nt3&#45;&gt;nt4 -->
<g id="edge8" class="edge">
<title>nt3&#45;&gt;nt4</title>
<path fill="none" stroke="black" d="M556.81,-84.8C595.62,-85.88 664.98,-87.81 707.37,-88.99"/>
<polygon fill="black" stroke="black" points="707.44,-92.5 717.53,-89.28 707.63,-85.5 707.44,-92.5"/>
</g>
<!-- nt13 -->
<g id="node14" class="node">
<title>nt13</title>
<ellipse fill="none" stroke="black" cx="892.99" cy="-90" rx="61.99" ry="18"/>
<text text-anchor="middle" x="892.99" y="-86.3" font-family="Times,serif" font-size="14.00">alternation</text>
</g>
<!-- nt4&#45;&gt;nt13 -->
<g id="edge9" class="edge">
<title>nt4&#45;&gt;nt13</title>
<path fill="none" stroke="black" d="M771.73,-90C785.55,-90 803.25,-90 820.8,-90"/>
<polygon fill="black" stroke="black" points="821.08,-93.5 831.08,-90 821.08,-86.5 821.08,-93.5"/>
</g>
<!-- nt5 -->
<g id="node6" class="node">
<title>nt5</title>
<ellipse fill="none" stroke="black" cx="744.55" cy="-18" rx="50.89" ry="18"/>
<text text-anchor="middle" x="744.55" y="-14.3" font-family="Times,serif" font-size="14.00">postlude</text>
</g>
<!-- nt5&#45;&gt;nt7 -->
<g id="edge10" class="edge">
<title>nt5&#45;&gt;nt7</title>
<path fill="none" stroke="black" d="M795.08,-15.99C857.89,-13.62 969.53,-10 1065.12,-10 1065.12,-10 1065.12,-10 1216.86,-10 1280.17,-10 1351.59,-20.16 1402.64,-29.2"/>
<polygon fill="black" stroke="black" points="1402.11,-32.66 1412.57,-30.99 1403.35,-25.77 1402.11,-32.66"/>
</g>
<!-- nt6&#45;&gt;nt6 -->
<g id="edge11" class="edge">
<title>nt6&#45;&gt;nt6</title>
<path fill="none" stroke="black" d="M491.51,-155.41C484.84,-165.09 496.74,-174 527.21,-174 546.26,-174 558.05,-170.52 562.58,-165.54"/>
<polygon fill="black" stroke="black" points="566.09,-165.52 562.92,-155.41 559.09,-165.29 566.09,-165.52"/>
</g>
<!-- nt7&#45;&gt;nt7 -->
<g id="edge12" class="edge">
<title>nt7&#45;&gt;nt7</title>
<path fill="none" stroke="black" d="M1446.22,-60.04C1440.87,-69.86 1449.61,-79 1472.45,-79 1486.72,-79 1495.49,-75.43 1498.75,-70.35"/>
<polygon fill="black" stroke="black" points="1502.25,-70.01 1498.67,-60.04 1495.25,-70.06 1502.25,-70.01"/>
</g>
<!-- nt8&#45;&gt;nt2 -->
<g id="edge13" class="edge">
<title>nt8&#45;&gt;nt2</title>
<path fill="none" stroke="black" d="M236.5,-47.8C252.83,-54.46 272.44,-62.47 289.05,-69.26"/>
<polygon fill="black" stroke="black" points="287.86,-72.56 298.45,-73.1 290.51,-66.08 287.86,-72.56"/>
</g>
<!-- nt8&#45;&gt;nt5 -->
<g id="edge14" class="edge">
<title>nt8&#45;&gt;nt5</title>
<path fill="none" stroke="black" d="M255.58,-32.44C356.66,-29.45 576.84,-22.93 683.39,-19.78"/>
<polygon fill="black" stroke="black" points="683.76,-23.27 693.65,-19.48 683.55,-16.27 683.76,-23.27"/>
</g>
<!-- nt9 -->
<g id="node10" class="node">
<title>nt9</title>
<ellipse fill="none" stroke="black" cx="1215.86" cy="-103" rx="38.19" ry="18"/>
<text text-anchor="middle" x="1215.86" y="-99.3" font-family="Times,serif" font-size="14.00">factor</text>
</g>
<!-- nt9&#45;&gt;nt1 -->
<g id="edge15" class="edge">
<title>nt9&#45;&gt;nt1</title>
<path fill="none" stroke="black" d="M1253.76,-105.8C1262.3,-106.45 1271.45,-107.14 1280.2,-107.8"/>
<polygon fill="black" stroke="black" points="1279.99,-111.3 1290.22,-108.56 1280.52,-104.32 1279.99,-111.3"/>
</g>
<!-- nt10 -->
<g id="node11" class="node">
<title>nt10</title>
<ellipse fill="none" stroke="black" cx="1066.12" cy="-94" rx="75.29" ry="18"/>
<text text-anchor="middle" x="1066.12" y="-90.3" font-family="Times,serif" font-size="14.00">concatenation</text>
</g>
<!-- nt10&#45;&gt;nt9 -->
<g id="edge16" class="edge">
<title>nt10&#45;&gt;nt9</title>
<path fill="none" stroke="black" d="M1139.26,-98.39C1148.85,-98.98 1158.47,-99.56 1167.48,-100.11"/>
<polygon fill="black" stroke="black" points="1167.55,-103.62 1177.74,-100.74 1167.98,-96.64 1167.55,-103.62"/>
</g>
<!-- nt10&#45;&gt;nt10 -->
<g id="edge17" class="edge">
<title>nt10&#45;&gt;nt10</title>
<path fill="none" stroke="black" d="M1039.9,-111.04C1034.55,-120.86 1043.29,-130 1066.12,-130 1080.4,-130 1089.16,-126.43 1092.43,-121.35"/>
<polygon fill="black" stroke="black" points="1095.92,-121.01 1092.35,-111.04 1088.92,-121.06 1095.92,-121.01"/>
</g>
<!-- nt11 -->
<g id="node12" class="node">
<title>nt11</title>
<ellipse fill="none" stroke="black" cx="1652.74" cy="-115" rx="64.19" ry="18"/>
<text text-anchor="middle" x="1652.74" y="-111.3" font-family="Times,serif" font-size="14.00">char_class1</text>
</g>
<!-- nt11&#45;&gt;nt11 -->
<g id="edge18" class="edge">
<title>nt11&#45;&gt;nt11</title>
<path fill="none" stroke="black" d="M1621.65,-130.92C1613.55,-141.15 1623.91,-151 1652.74,-151 1671.65,-151 1682.62,-146.76 1685.63,-140.95"/>
<polygon fill="black" stroke="black" points="1689.04,-140.13 1683.82,-130.92 1682.15,-141.38 1689.04,-140.13"/>
</g>
<!-- nt12&#45;&gt;nt11 -->
<g id="edge19" class="edge">
<title>nt12&#45;&gt;nt11</title>
<path fill="none" stroke="black" d="M1531.33,-115C1546.26,-115 1562.53,-115 1578.14,-115"/>
<polygon fill="black" stroke="black" points="1578.29,-118.5 1588.29,-115 1578.29,-111.5 1578.29,-118.5"/>
</g>
<!-- nt13&#45;&gt;nt7 -->
<g id="edge20" class="edge">
<title>nt13&#45;&gt;nt7</title>
<path fill="none" stroke="black" d="M938.45,-77.62C954.77,-73.56 973.47,-69.46 990.73,-67 1126.36,-47.66 1285.43,-43.25 1382.29,-42.58"/>
<polygon fill="black" stroke="black" points="1382.36,-46.08 1392.34,-42.52 1382.32,-39.08 1382.36,-46.08"/>
</g>
<!-- nt13&#45;&gt;nt10 -->
<g id="edge21" class="edge">
<title>nt13&#45;&gt;nt10</title>
<path fill="none" stroke="black" d="M954.81,-91.42C963.23,-91.62 972,-91.82 980.76,-92.03"/>
<polygon fill="black" stroke="black" points="980.93,-95.53 991.01,-92.27 981.1,-88.54 980.93,-95.53"/>
</g>
<!-- nt13&#45;&gt;nt13 -->
<g id="edge22" class="edge">
<title>nt13&#45;&gt;nt13</title>
<path fill="none" stroke="black" d="M866.97,-106.66C861.19,-116.62 869.86,-126 892.99,-126 907.8,-126 916.68,-122.15 919.64,-116.77"/>
<polygon fill="black" stroke="black" points="923.12,-116.43 919,-106.66 916.13,-116.86 923.12,-116.43"/>
</g>
</g>
</svg>
