<?xml version="1.0" encoding="UTF-8" standalone="no"?>
<!DOCTYPE svg PUBLIC "-//W3C//DTD SVG 1.1//EN"
 "http://www.w3.org/Graphics/SVG/1.1/DTD/svg11.dtd">
<!-- Generated by graphviz version 2.43.0 (0)
 -->
<!-- Title: G Pages: 1 -->
<svg width="2550pt" height="187pt"
 viewBox="0.00 0.00 612.00 44.84" xmlns="http://www.w3.org/2000/svg" xmlns:xlink="http://www.w3.org/1999/xlink">
<g id="graph0" class="graph" transform="scale(0.92 0.92) rotate(0) translate(4 167)">
<title>G</title>
<polygon fill="white" stroke="transparent" points="-4,4 -4,-167 2329.73,-167 2329.73,4 -4,4"/>
<!-- nt0 -->
<g id="node1" class="node">
<title>nt0</title>
<ellipse fill="none" stroke="black" cx="55.9" cy="-64" rx="55.79" ry="18"/>
<text text-anchor="middle" x="55.9" y="-60.3" font-family="Times,serif" font-size="14.00">grammar&#39;</text>
</g>
<!-- nt9 -->
<g id="node10" class="node">
<title>nt9</title>
<ellipse fill="none" stroke="black" cx="201.74" cy="-64" rx="53.89" ry="18"/>
<text text-anchor="middle" x="201.74" y="-60.3" font-family="Times,serif" font-size="14.00">grammar</text>
</g>
<!-- nt0&#45;&gt;nt9 -->
<g id="edge1" class="edge">
<title>nt0&#45;&gt;nt9</title>
<path fill="none" stroke="black" d="M112.1,-64C120.32,-64 128.85,-64 137.23,-64"/>
<polygon fill="black" stroke="black" points="137.34,-67.5 147.34,-64 137.34,-60.5 137.34,-67.5"/>
</g>
<!-- nt1 -->
<g id="node2" class="node">
<title>nt1</title>
<ellipse fill="none" stroke="black" cx="1932.01" cy="-86" rx="33.29" ry="18"/>
<text text-anchor="middle" x="1932.01" y="-82.3" font-family="Times,serif" font-size="14.00">term</text>
</g>
<!-- nt4 -->
<g id="node5" class="node">
<title>nt4</title>
<ellipse fill="none" stroke="black" cx="1376.9" cy="-145" rx="27" ry="18"/>
<text text-anchor="middle" x="1376.9" y="-141.3" font-family="Times,serif" font-size="14.00">rhs</text>
</g>
<!-- nt1&#45;&gt;nt4 -->
<g id="edge2" class="edge">
<title>nt1&#45;&gt;nt4</title>
<path fill="none" stroke="black" d="M1905.89,-97.13C1893.21,-102.35 1877.46,-108.23 1862.87,-112 1699.63,-154.16 1495.82,-150.62 1414.17,-147.02"/>
<polygon fill="black" stroke="black" points="1414.08,-143.52 1403.93,-146.54 1413.75,-150.51 1414.08,-143.52"/>
</g>
<!-- nt8 -->
<g id="node9" class="node">
<title>nt8</title>
<ellipse fill="none" stroke="black" cx="2081.1" cy="-18" rx="79.89" ry="18"/>
<text text-anchor="middle" x="2081.1" y="-14.3" font-family="Times,serif" font-size="14.00">list(NEWLINE)</text>
</g>
<!-- nt1&#45;&gt;nt8 -->
<g id="edge3" class="edge">
<title>nt1&#45;&gt;nt8</title>
<path fill="none" stroke="black" d="M1957.96,-74.46C1979.28,-64.61 2010.45,-50.2 2035.97,-38.4"/>
<polygon fill="black" stroke="black" points="2037.48,-41.56 2045.09,-34.19 2034.54,-35.21 2037.48,-41.56"/>
</g>
<!-- nt13 -->
<g id="node14" class="node">
<title>nt13</title>
<ellipse fill="none" stroke="black" cx="2081.1" cy="-90" rx="58.49" ry="18"/>
<text text-anchor="middle" x="2081.1" y="-86.3" font-family="Times,serif" font-size="14.00">char_class</text>
</g>
<!-- nt1&#45;&gt;nt13 -->
<g id="edge4" class="edge">
<title>nt1&#45;&gt;nt13</title>
<path fill="none" stroke="black" d="M1965.29,-86.88C1979.23,-87.26 1996.09,-87.72 2012.54,-88.16"/>
<polygon fill="black" stroke="black" points="2012.62,-91.67 2022.71,-88.44 2012.81,-84.67 2012.62,-91.67"/>
</g>
<!-- nt2 -->
<g id="node3" class="node">
<title>nt2</title>
<ellipse fill="none" stroke="black" cx="722.85" cy="-118" rx="293.55" ry="18"/>
<text text-anchor="middle" x="722.85" y="-114.3" font-family="Times,serif" font-size="14.00">separated_nonempty_list(nonempty_list(NEWLINE),old_rule)</text>
</g>
<!-- nt2&#45;&gt;nt2 -->
<g id="edge5" class="edge">
<title>nt2&#45;&gt;nt2</title>
<path fill="none" stroke="black" d="M654.54,-135.78C642.93,-145.31 665.7,-154 722.85,-154 758.56,-154 780.85,-150.61 789.71,-145.74"/>
<polygon fill="black" stroke="black" points="793.18,-146.18 791.16,-135.78 786.26,-145.18 793.18,-146.18"/>
</g>
<!-- nt6 -->
<g id="node7" class="node">
<title>nt6</title>
<ellipse fill="none" stroke="black" cx="1183.26" cy="-145" rx="48.19" ry="18"/>
<text text-anchor="middle" x="1183.26" y="-141.3" font-family="Times,serif" font-size="14.00">old_rule</text>
</g>
<!-- nt2&#45;&gt;nt6 -->
<g id="edge6" class="edge">
<title>nt2&#45;&gt;nt6</title>
<path fill="none" stroke="black" d="M935.27,-130.45C1005.05,-134.56 1077.04,-138.8 1125.16,-141.64"/>
<polygon fill="black" stroke="black" points="1125.17,-145.14 1135.36,-142.24 1125.58,-138.16 1125.17,-145.14"/>
</g>
<!-- nt7 -->
<g id="node8" class="node">
<title>nt7</title>
<ellipse fill="none" stroke="black" cx="1183.26" cy="-73" rx="130.78" ry="18"/>
<text text-anchor="middle" x="1183.26" y="-69.3" font-family="Times,serif" font-size="14.00">nonempty_list(NEWLINE)</text>
</g>
<!-- nt2&#45;&gt;nt7 -->
<g id="edge7" class="edge">
<title>nt2&#45;&gt;nt7</title>
<path fill="none" stroke="black" d="M879.36,-102.73C940.6,-96.72 1009.69,-89.94 1066.4,-84.37"/>
<polygon fill="black" stroke="black" points="1066.87,-87.84 1076.48,-83.38 1066.19,-80.88 1066.87,-87.84"/>
</g>
<!-- nt3 -->
<g id="node4" class="node">
<title>nt3</title>
<ellipse fill="none" stroke="black" cx="342.38" cy="-118" rx="34.39" ry="18"/>
<text text-anchor="middle" x="342.38" y="-114.3" font-family="Times,serif" font-size="14.00">rules</text>
</g>
<!-- nt3&#45;&gt;nt2 -->
<g id="edge8" class="edge">
<title>nt3&#45;&gt;nt2</title>
<path fill="none" stroke="black" d="M376.96,-118C388.65,-118 402.87,-118 418.81,-118"/>
<polygon fill="black" stroke="black" points="418.95,-121.5 428.95,-118 418.95,-114.5 418.95,-121.5"/>
</g>
<!-- nt14 -->
<g id="node15" class="node">
<title>nt14</title>
<ellipse fill="none" stroke="black" cx="1501.64" cy="-83" rx="61.99" ry="18"/>
<text text-anchor="middle" x="1501.64" y="-79.3" font-family="Times,serif" font-size="14.00">alternation</text>
</g>
<!-- nt4&#45;&gt;nt14 -->
<g id="edge9" class="edge">
<title>nt4&#45;&gt;nt14</title>
<path fill="none" stroke="black" d="M1399,-134.34C1415.88,-125.81 1440.04,-113.61 1460.57,-103.24"/>
<polygon fill="black" stroke="black" points="1462.36,-106.26 1469.7,-98.63 1459.2,-100.01 1462.36,-106.26"/>
</g>
<!-- nt5 -->
<g id="node6" class="node">
<title>nt5</title>
<ellipse fill="none" stroke="black" cx="342.38" cy="-64" rx="50.89" ry="18"/>
<text text-anchor="middle" x="342.38" y="-60.3" font-family="Times,serif" font-size="14.00">postlude</text>
</g>
<!-- nt6&#45;&gt;nt4 -->
<g id="edge10" class="edge">
<title>nt6&#45;&gt;nt4</title>
<path fill="none" stroke="black" d="M1231.63,-145C1264.94,-145 1308.86,-145 1339.45,-145"/>
<polygon fill="black" stroke="black" points="1339.68,-148.5 1349.68,-145 1339.68,-141.5 1339.68,-148.5"/>
</g>
<!-- nt7&#45;&gt;nt7 -->
<g id="edge11" class="edge">
<title>nt7&#45;&gt;nt7</title>
<path fill="none" stroke="black" d="M1148.98,-90.41C1142.58,-100.09 1154.01,-109 1183.26,-109 1201.54,-109 1212.86,-105.52 1217.21,-100.54"/>
<polygon fill="black" stroke="black" points="1220.72,-100.52 1217.54,-90.41 1213.72,-100.29 1220.72,-100.52"/>
</g>
<!-- nt8&#45;&gt;nt8 -->
<g id="edge12" class="edge">
<title>nt8&#45;&gt;nt8</title>
<path fill="none" stroke="black" d="M2054.88,-35.04C2049.52,-44.86 2058.27,-54 2081.1,-54 2095.37,-54 2104.14,-50.43 2107.4,-45.35"/>
<polygon fill="black" stroke="black" points="2110.9,-45.01 2107.33,-35.04 2103.9,-45.06 2110.9,-45.01"/>
</g>
<!-- nt9&#45;&gt;nt3 -->
<g id="edge13" class="edge">
<title>nt9&#45;&gt;nt3</title>
<path fill="none" stroke="black" d="M237.72,-77.63C258.22,-85.61 284.07,-95.68 304.84,-103.77"/>
<polygon fill="black" stroke="black" points="303.69,-107.08 314.27,-107.44 306.23,-100.55 303.69,-107.08"/>
</g>
<!-- nt9&#45;&gt;nt5 -->
<g id="edge14" class="edge">
<title>nt9&#45;&gt;nt5</title>
<path fill="none" stroke="black" d="M255.94,-64C264.19,-64 272.77,-64 281.16,-64"/>
<polygon fill="black" stroke="black" points="281.27,-67.5 291.27,-64 281.27,-60.5 281.27,-67.5"/>
</g>
<!-- nt9&#45;&gt;nt8 -->
<g id="edge15" class="edge">
<title>nt9&#45;&gt;nt8</title>
<path fill="none" stroke="black" d="M239.02,-50.73C254.96,-45.5 274.02,-40.02 291.68,-37 480.31,-4.73 530.47,-18 721.85,-18 721.85,-18 721.85,-18 1825.52,-18 1880.4,-18 1941.93,-18 1990.76,-18"/>
<polygon fill="black" stroke="black" points="1990.98,-21.5 2000.98,-18 1990.98,-14.5 1990.98,-21.5"/>
</g>
<!-- nt10 -->
<g id="node11" class="node">
<title>nt10</title>
<ellipse fill="none" stroke="black" cx="1824.52" cy="-85" rx="38.19" ry="18"/>
<text text-anchor="middle" x="1824.52" y="-81.3" font-family="Times,serif" font-size="14.00">factor</text>
</g>
<!-- nt10&#45;&gt;nt1 -->
<g id="edge16" class="edge">
<title>nt10&#45;&gt;nt1</title>
<path fill="none" stroke="black" d="M1863.01,-85.36C1871.26,-85.43 1880.06,-85.52 1888.49,-85.6"/>
<polygon fill="black" stroke="black" points="1888.51,-89.1 1898.54,-85.69 1888.57,-82.1 1888.51,-89.1"/>
</g>
<!-- nt11 -->
<g id="node12" class="node">
<title>nt11</title>
<ellipse fill="none" stroke="black" cx="1674.78" cy="-83" rx="75.29" ry="18"/>
<text text-anchor="middle" x="1674.78" y="-79.3" font-family="Times,serif" font-size="14.00">concatenation</text>
</g>
<!-- nt11&#45;&gt;nt10 -->
<g id="edge17" class="edge">
<title>nt11&#45;&gt;nt10</title>
<path fill="none" stroke="black" d="M1750.08,-84.01C1758.87,-84.12 1767.66,-84.24 1775.93,-84.36"/>
<polygon fill="black" stroke="black" points="1776.06,-87.86 1786.11,-84.49 1776.16,-80.86 1776.06,-87.86"/>
</g>
<!-- nt11&#45;&gt;nt11 -->
<g id="edge18" class="edge">
<title>nt11&#45;&gt;nt11</title>
<path fill="none" stroke="black" d="M1648.55,-100.04C1643.2,-109.86 1651.94,-119 1674.78,-119 1689.05,-119 1697.82,-115.43 1701.08,-110.35"/>
<polygon fill="black" stroke="black" points="1704.58,-110.01 1701,-100.04 1697.58,-110.06 1704.58,-110.01"/>
</g>
<!-- nt12 -->
<g id="node13" class="node">
<title>nt12</title>
<ellipse fill="none" stroke="black" cx="2261.39" cy="-90" rx="64.19" ry="18"/>
<text text-anchor="middle" x="2261.39" y="-86.3" font-family="Times,serif" font-size="14.00">char_class1</text>
</g>
<!-- nt12&#45;&gt;nt12 -->
<g id="edge19" class="edge">
<title>nt12&#45;&gt;nt12</title>
<path fill="none" stroke="black" d="M2230.31,-105.92C2222.2,-116.15 2232.56,-126 2261.39,-126 2280.31,-126 2291.27,-121.76 2294.28,-115.95"/>
<polygon fill="black" stroke="black" points="2297.69,-115.13 2292.47,-105.92 2290.81,-116.38 2297.69,-115.13"/>
</g>
<!-- nt13&#45;&gt;nt12 -->
<g id="edge20" class="edge">
<title>nt13&#45;&gt;nt12</title>
<path fill="none" stroke="black" d="M2139.99,-90C2154.92,-90 2171.19,-90 2186.8,-90"/>
<polygon fill="black" stroke="black" points="2186.94,-93.5 2196.94,-90 2186.94,-86.5 2186.94,-93.5"/>
</g>
<!-- nt14&#45;&gt;nt11 -->
<g id="edge21" class="edge">
<title>nt14&#45;&gt;nt11</title>
<path fill="none" stroke="black" d="M1563.46,-83C1571.81,-83 1580.51,-83 1589.2,-83"/>
<polygon fill="black" stroke="black" points="1589.37,-86.5 1599.37,-83 1589.37,-79.5 1589.37,-86.5"/>
</g>
<!-- nt14&#45;&gt;nt14 -->
<g id="edge22" class="edge">
<title>nt14&#45;&gt;nt14</title>
<path fill="none" stroke="black" d="M1479.67,-100.04C1475.18,-109.86 1482.51,-119 1501.64,-119 1513.6,-119 1520.94,-115.43 1523.68,-110.35"/>
<polygon fill="black" stroke="black" points="1527.17,-110.02 1523.61,-100.04 1520.17,-110.06 1527.17,-110.02"/>
</g>
</g>
</svg>
