<?xml version="1.0" encoding="UTF-8" standalone="no"?>
<!DOCTYPE svg PUBLIC "-//W3C//DTD SVG 1.1//EN"
 "http://www.w3.org/Graphics/SVG/1.1/DTD/svg11.dtd">
<!-- Generated by graphviz version 2.43.0 (0)
 -->
<!-- Title: G Pages: 1 -->
<svg width="2550pt" height="132pt"
 viewBox="0.00 0.00 612.00 31.77" xmlns="http://www.w3.org/2000/svg" xmlns:xlink="http://www.w3.org/1999/xlink">
<g id="graph0" class="graph" transform="scale(0.95 0.95) rotate(0) translate(4 122)">
<title>G</title>
<polygon fill="white" stroke="transparent" points="-4,4 -4,-122 2423.33,-122 2423.33,4 -4,4"/>
<!-- nt0 -->
<g id="node1" class="node">
<title>nt0</title>
<ellipse fill="none" stroke="black" cx="55.9" cy="-54" rx="55.79" ry="18"/>
<text text-anchor="middle" x="55.9" y="-50.3" font-family="Times,serif" font-size="14.00">grammar&#39;</text>
</g>
<!-- nt8 -->
<g id="node9" class="node">
<title>nt8</title>
<ellipse fill="none" stroke="black" cx="201.74" cy="-54" rx="53.89" ry="18"/>
<text text-anchor="middle" x="201.74" y="-50.3" font-family="Times,serif" font-size="14.00">grammar</text>
</g>
<!-- nt0&#45;&gt;nt8 -->
<g id="edge1" class="edge">
<title>nt0&#45;&gt;nt8</title>
<path fill="none" stroke="black" d="M112.1,-54C120.32,-54 128.85,-54 137.23,-54"/>
<polygon fill="black" stroke="black" points="137.34,-57.5 147.34,-54 137.34,-50.5 137.34,-57.5"/>
</g>
<!-- nt1 -->
<g id="node2" class="node">
<title>nt1</title>
<ellipse fill="none" stroke="black" cx="2386.18" cy="-94" rx="33.29" ry="18"/>
<text text-anchor="middle" x="2386.18" y="-90.3" font-family="Times,serif" font-size="14.00">term</text>
</g>
<!-- nt4 -->
<g id="node5" class="node">
<title>nt4</title>
<ellipse fill="none" stroke="black" cx="1344.4" cy="-90" rx="27" ry="18"/>
<text text-anchor="middle" x="1344.4" y="-86.3" font-family="Times,serif" font-size="14.00">rhs</text>
</g>
<!-- nt1&#45;&gt;nt4 -->
<g id="edge2" class="edge">
<title>nt1&#45;&gt;nt4</title>
<path fill="none" stroke="black" d="M2354.23,-98.8C2306.3,-105.8 2211.17,-118 2129.94,-118 1705.63,-118 1705.63,-118 1705.63,-118 1586.49,-118 1445.85,-102.59 1381.19,-94.63"/>
<polygon fill="black" stroke="black" points="1381.47,-91.14 1371.12,-93.38 1380.61,-98.09 1381.47,-91.14"/>
</g>
<!-- nt2 -->
<g id="node3" class="node">
<title>nt2</title>
<ellipse fill="none" stroke="black" cx="690.35" cy="-54" rx="293.55" ry="18"/>
<text text-anchor="middle" x="690.35" y="-50.3" font-family="Times,serif" font-size="14.00">separated_nonempty_list(nonempty_list(NEWLINE),old_rule)</text>
</g>
<!-- nt2&#45;&gt;nt2 -->
<g id="edge3" class="edge">
<title>nt2&#45;&gt;nt2</title>
<path fill="none" stroke="black" d="M624.91,-71.78C613.79,-81.31 635.61,-90 690.35,-90 724.56,-90 745.91,-86.61 754.4,-81.74"/>
<polygon fill="black" stroke="black" points="757.87,-82.17 755.78,-71.78 750.94,-81.2 757.87,-82.17"/>
</g>
<!-- nt5 -->
<g id="node6" class="node">
<title>nt5</title>
<ellipse fill="none" stroke="black" cx="1150.76" cy="-90" rx="48.19" ry="18"/>
<text text-anchor="middle" x="1150.76" y="-86.3" font-family="Times,serif" font-size="14.00">old_rule</text>
</g>
<!-- nt2&#45;&gt;nt5 -->
<g id="edge4" class="edge">
<title>nt2&#45;&gt;nt5</title>
<path fill="none" stroke="black" d="M871.87,-68.18C950.72,-74.37 1037.63,-81.19 1092.9,-85.53"/>
<polygon fill="black" stroke="black" points="1092.94,-89.05 1103.18,-86.34 1093.49,-82.07 1092.94,-89.05"/>
</g>
<!-- nt7 -->
<g id="node8" class="node">
<title>nt7</title>
<ellipse fill="none" stroke="black" cx="1150.76" cy="-18" rx="130.78" ry="18"/>
<text text-anchor="middle" x="1150.76" y="-14.3" font-family="Times,serif" font-size="14.00">nonempty_list(NEWLINE)</text>
</g>
<!-- nt2&#45;&gt;nt7 -->
<g id="edge5" class="edge">
<title>nt2&#45;&gt;nt7</title>
<path fill="none" stroke="black" d="M871.87,-39.82C923.8,-35.75 979.22,-31.39 1026.8,-27.66"/>
<polygon fill="black" stroke="black" points="1027.13,-31.14 1036.83,-26.87 1026.59,-24.16 1027.13,-31.14"/>
</g>
<!-- nt3 -->
<g id="node4" class="node">
<title>nt3</title>
<ellipse fill="none" stroke="black" cx="326.13" cy="-54" rx="34.39" ry="18"/>
<text text-anchor="middle" x="326.13" y="-50.3" font-family="Times,serif" font-size="14.00">rules</text>
</g>
<!-- nt3&#45;&gt;nt2 -->
<g id="edge6" class="edge">
<title>nt3&#45;&gt;nt2</title>
<path fill="none" stroke="black" d="M360.88,-54C368.37,-54 376.9,-54 386.24,-54"/>
<polygon fill="black" stroke="black" points="386.25,-57.5 396.25,-54 386.25,-50.5 386.25,-57.5"/>
</g>
<!-- nt12 -->
<g id="node13" class="node">
<title>nt12</title>
<ellipse fill="none" stroke="black" cx="1469.14" cy="-63" rx="61.99" ry="18"/>
<text text-anchor="middle" x="1469.14" y="-59.3" font-family="Times,serif" font-size="14.00">alternation</text>
</g>
<!-- nt4&#45;&gt;nt12 -->
<g id="edge7" class="edge">
<title>nt4&#45;&gt;nt12</title>
<path fill="none" stroke="black" d="M1370.24,-84.54C1381.62,-82.03 1395.65,-78.95 1409.49,-75.9"/>
<polygon fill="black" stroke="black" points="1410.48,-79.27 1419.49,-73.7 1408.98,-72.43 1410.48,-79.27"/>
</g>
<!-- nt5&#45;&gt;nt4 -->
<g id="edge8" class="edge">
<title>nt5&#45;&gt;nt4</title>
<path fill="none" stroke="black" d="M1199.13,-90C1232.45,-90 1276.36,-90 1306.95,-90"/>
<polygon fill="black" stroke="black" points="1307.18,-93.5 1317.18,-90 1307.18,-86.5 1307.18,-93.5"/>
</g>
<!-- nt6 -->
<g id="node7" class="node">
<title>nt6</title>
<ellipse fill="none" stroke="black" cx="1706.63" cy="-54" rx="139.98" ry="18"/>
<text text-anchor="middle" x="1706.63" y="-50.3" font-family="Times,serif" font-size="14.00">nonempty_list(alternation1)</text>
</g>
<!-- nt6&#45;&gt;nt6 -->
<g id="edge9" class="edge">
<title>nt6&#45;&gt;nt6</title>
<path fill="none" stroke="black" d="M1664.49,-71.41C1656.63,-81.09 1670.67,-90 1706.63,-90 1729.1,-90 1743.01,-86.52 1748.36,-81.54"/>
<polygon fill="black" stroke="black" points="1751.87,-81.54 1748.76,-71.41 1744.87,-81.27 1751.87,-81.54"/>
</g>
<!-- nt11 -->
<g id="node12" class="node">
<title>nt11</title>
<ellipse fill="none" stroke="black" cx="1949.96" cy="-63" rx="67.69" ry="18"/>
<text text-anchor="middle" x="1949.96" y="-59.3" font-family="Times,serif" font-size="14.00">alternation1</text>
</g>
<!-- nt6&#45;&gt;nt11 -->
<g id="edge10" class="edge">
<title>nt6&#45;&gt;nt11</title>
<path fill="none" stroke="black" d="M1841,-58.97C1851.87,-59.38 1862.61,-59.78 1872.84,-60.16"/>
<polygon fill="black" stroke="black" points="1872.78,-63.66 1882.9,-60.54 1873.04,-56.67 1872.78,-63.66"/>
</g>
<!-- nt7&#45;&gt;nt7 -->
<g id="edge11" class="edge">
<title>nt7&#45;&gt;nt7</title>
<path fill="none" stroke="black" d="M1116.48,-35.41C1110.08,-45.09 1121.51,-54 1150.76,-54 1169.04,-54 1180.36,-50.52 1184.72,-45.54"/>
<polygon fill="black" stroke="black" points="1188.22,-45.52 1185.04,-35.41 1181.22,-45.29 1188.22,-45.52"/>
</g>
<!-- nt8&#45;&gt;nt3 -->
<g id="edge12" class="edge">
<title>nt8&#45;&gt;nt3</title>
<path fill="none" stroke="black" d="M255.71,-54C264.25,-54 273,-54 281.3,-54"/>
<polygon fill="black" stroke="black" points="281.5,-57.5 291.5,-54 281.5,-50.5 281.5,-57.5"/>
</g>
<!-- nt9 -->
<g id="node10" class="node">
<title>nt9</title>
<ellipse fill="none" stroke="black" cx="2278.68" cy="-69" rx="38.19" ry="18"/>
<text text-anchor="middle" x="2278.68" y="-65.3" font-family="Times,serif" font-size="14.00">factor</text>
</g>
<!-- nt9&#45;&gt;nt1 -->
<g id="edge13" class="edge">
<title>nt9&#45;&gt;nt1</title>
<path fill="none" stroke="black" d="M2313.35,-76.98C2323.59,-79.4 2334.93,-82.09 2345.52,-84.6"/>
<polygon fill="black" stroke="black" points="2344.85,-88.04 2355.39,-86.94 2346.47,-81.23 2344.85,-88.04"/>
</g>
<!-- nt10 -->
<g id="node11" class="node">
<title>nt10</title>
<ellipse fill="none" stroke="black" cx="2128.94" cy="-67" rx="75.29" ry="18"/>
<text text-anchor="middle" x="2128.94" y="-63.3" font-family="Times,serif" font-size="14.00">concatenation</text>
</g>
<!-- nt10&#45;&gt;nt9 -->
<g id="edge14" class="edge">
<title>nt10&#45;&gt;nt9</title>
<path fill="none" stroke="black" d="M2204.25,-68.01C2213.04,-68.12 2221.82,-68.24 2230.1,-68.36"/>
<polygon fill="black" stroke="black" points="2230.23,-71.86 2240.27,-68.49 2230.32,-64.86 2230.23,-71.86"/>
</g>
<!-- nt11&#45;&gt;nt10 -->
<g id="edge15" class="edge">
<title>nt11&#45;&gt;nt10</title>
<path fill="none" stroke="black" d="M2017.36,-64.5C2025.89,-64.69 2034.72,-64.89 2043.49,-65.09"/>
<polygon fill="black" stroke="black" points="2043.66,-68.6 2053.74,-65.32 2043.82,-61.6 2043.66,-68.6"/>
</g>
<!-- nt12&#45;&gt;nt6 -->
<g id="edge16" class="edge">
<title>nt12&#45;&gt;nt6</title>
<path fill="none" stroke="black" d="M1530.48,-60.69C1540.5,-60.31 1551.25,-59.9 1562.31,-59.48"/>
<polygon fill="black" stroke="black" points="1562.69,-62.97 1572.55,-59.09 1562.43,-55.97 1562.69,-62.97"/>
</g>
</g>
</svg>
