<?xml version="1.0" encoding="UTF-8" standalone="no"?>
<!DOCTYPE svg PUBLIC "-//W3C//DTD SVG 1.1//EN"
 "http://www.w3.org/Graphics/SVG/1.1/DTD/svg11.dtd">
<!-- Generated by graphviz version 2.43.0 (0)
 -->
<!-- Title: G Pages: 1 -->
<svg width="2550pt" height="214pt"
 viewBox="0.00 0.00 612.00 51.45" xmlns="http://www.w3.org/2000/svg" xmlns:xlink="http://www.w3.org/1999/xlink">
<g id="graph0" class="graph" transform="scale(0.9 0.9) rotate(0) translate(4 189.01)">
<title>G</title>
<polygon fill="white" stroke="transparent" points="-4,4 -4,-189.01 2292.04,-189.01 2292.04,4 -4,4"/>
<!-- nt0 -->
<g id="node1" class="node">
<title>nt0</title>
<ellipse fill="none" stroke="black" cx="55.9" cy="-49.01" rx="55.79" ry="18"/>
<text text-anchor="middle" x="55.9" y="-45.31" font-family="Times,serif" font-size="14.00">grammar&#39;</text>
</g>
<!-- nt9 -->
<g id="node10" class="node">
<title>nt9</title>
<ellipse fill="none" stroke="black" cx="201.74" cy="-49.01" rx="53.89" ry="18"/>
<text text-anchor="middle" x="201.74" y="-45.31" font-family="Times,serif" font-size="14.00">grammar</text>
</g>
<!-- nt0&#45;&gt;nt9 -->
<g id="edge1" class="edge">
<title>nt0&#45;&gt;nt9</title>
<path fill="none" stroke="black" d="M112.1,-49.01C120.32,-49.01 128.85,-49.01 137.23,-49.01"/>
<polygon fill="black" stroke="black" points="137.34,-52.51 147.34,-49.01 137.34,-45.51 137.34,-52.51"/>
</g>
<!-- nt1 -->
<g id="node2" class="node">
<title>nt1</title>
<ellipse fill="none" stroke="black" cx="1894.32" cy="-104.01" rx="33.29" ry="18"/>
<text text-anchor="middle" x="1894.32" y="-100.31" font-family="Times,serif" font-size="14.00">term</text>
</g>
<!-- nt5 -->
<g id="node6" class="node">
<title>nt5</title>
<ellipse fill="none" stroke="black" cx="1339.2" cy="-95.01" rx="27" ry="18"/>
<text text-anchor="middle" x="1339.2" y="-91.31" font-family="Times,serif" font-size="14.00">rhs</text>
</g>
<!-- nt1&#45;&gt;nt5 -->
<g id="edge2" class="edge">
<title>nt1&#45;&gt;nt5</title>
<path fill="none" stroke="black" d="M1865.41,-113.1C1853.19,-116.74 1838.59,-120.63 1825.17,-123.01 1775.7,-131.8 1762.68,-130.01 1712.48,-132.01 1574.68,-137.5 1535.14,-168.66 1402.2,-132.01 1389.27,-128.44 1376.31,-121.39 1365.61,-114.39"/>
<polygon fill="black" stroke="black" points="1367.42,-111.39 1357.2,-108.6 1363.45,-117.16 1367.42,-111.39"/>
</g>
<!-- nt8 -->
<g id="node9" class="node">
<title>nt8</title>
<ellipse fill="none" stroke="black" cx="2043.41" cy="-36.01" rx="79.89" ry="18"/>
<text text-anchor="middle" x="2043.41" y="-32.31" font-family="Times,serif" font-size="14.00">list(NEWLINE)</text>
</g>
<!-- nt1&#45;&gt;nt8 -->
<g id="edge3" class="edge">
<title>nt1&#45;&gt;nt8</title>
<path fill="none" stroke="black" d="M1920.27,-92.47C1941.58,-82.62 1972.76,-68.21 1998.27,-56.41"/>
<polygon fill="black" stroke="black" points="1999.78,-59.57 2007.39,-52.2 1996.84,-53.22 1999.78,-59.57"/>
</g>
<!-- nt13 -->
<g id="node14" class="node">
<title>nt13</title>
<ellipse fill="none" stroke="black" cx="2043.41" cy="-108.01" rx="58.49" ry="18"/>
<text text-anchor="middle" x="2043.41" y="-104.31" font-family="Times,serif" font-size="14.00">char_class</text>
</g>
<!-- nt1&#45;&gt;nt13 -->
<g id="edge4" class="edge">
<title>nt1&#45;&gt;nt13</title>
<path fill="none" stroke="black" d="M1927.59,-104.89C1941.53,-105.27 1958.39,-105.73 1974.85,-106.17"/>
<polygon fill="black" stroke="black" points="1974.92,-109.68 1985.01,-106.45 1975.11,-102.68 1974.92,-109.68"/>
</g>
<!-- nt2 -->
<g id="node3" class="node">
<title>nt2</title>
<ellipse fill="none" stroke="black" cx="704" cy="-103.01" rx="274.85" ry="18"/>
<text text-anchor="middle" x="704" y="-99.31" font-family="Times,serif" font-size="14.00">separated_nonempty_list(nonempty_list(NEWLINE),rule)</text>
</g>
<!-- nt2&#45;&gt;nt2 -->
<g id="edge5" class="edge">
<title>nt2&#45;&gt;nt2</title>
<path fill="none" stroke="black" d="M639.28,-120.79C628.28,-130.32 649.86,-139.01 704,-139.01 737.84,-139.01 758.95,-135.62 767.34,-130.75"/>
<polygon fill="black" stroke="black" points="770.82,-131.18 768.71,-120.79 763.88,-130.22 770.82,-131.18"/>
</g>
<!-- nt4 -->
<g id="node5" class="node">
<title>nt4</title>
<ellipse fill="none" stroke="black" cx="1145.56" cy="-95.01" rx="29.5" ry="18"/>
<text text-anchor="middle" x="1145.56" y="-91.31" font-family="Times,serif" font-size="14.00">rule</text>
</g>
<!-- nt2&#45;&gt;nt4 -->
<g id="edge6" class="edge">
<title>nt2&#45;&gt;nt4</title>
<path fill="none" stroke="black" d="M969.25,-98.2C1023.14,-97.22 1073.31,-96.31 1106.05,-95.71"/>
<polygon fill="black" stroke="black" points="1106.12,-99.21 1116.05,-95.53 1105.99,-92.21 1106.12,-99.21"/>
</g>
<!-- nt7 -->
<g id="node8" class="node">
<title>nt7</title>
<ellipse fill="none" stroke="black" cx="1145.56" cy="-149.01" rx="130.78" ry="18"/>
<text text-anchor="middle" x="1145.56" y="-145.31" font-family="Times,serif" font-size="14.00">nonempty_list(NEWLINE)</text>
</g>
<!-- nt2&#45;&gt;nt7 -->
<g id="edge7" class="edge">
<title>nt2&#45;&gt;nt7</title>
<path fill="none" stroke="black" d="M850.76,-118.26C909.34,-124.39 975.86,-131.36 1030.78,-137.1"/>
<polygon fill="black" stroke="black" points="1030.58,-140.6 1040.89,-138.16 1031.31,-133.64 1030.58,-140.6"/>
</g>
<!-- nt3 -->
<g id="node4" class="node">
<title>nt3</title>
<ellipse fill="none" stroke="black" cx="342.38" cy="-103.01" rx="34.39" ry="18"/>
<text text-anchor="middle" x="342.38" y="-99.31" font-family="Times,serif" font-size="14.00">rules</text>
</g>
<!-- nt3&#45;&gt;nt2 -->
<g id="edge8" class="edge">
<title>nt3&#45;&gt;nt2</title>
<path fill="none" stroke="black" d="M376.89,-103.01C388.58,-103.01 402.81,-103.01 418.71,-103.01"/>
<polygon fill="black" stroke="black" points="418.81,-106.51 428.81,-103.01 418.81,-99.51 418.81,-106.51"/>
</g>
<!-- nt4&#45;&gt;nt5 -->
<g id="edge9" class="edge">
<title>nt4&#45;&gt;nt5</title>
<path fill="none" stroke="black" d="M1174.84,-95.01C1208.48,-95.01 1264.72,-95.01 1301.64,-95.01"/>
<polygon fill="black" stroke="black" points="1301.96,-98.51 1311.96,-95.01 1301.96,-91.51 1301.96,-98.51"/>
</g>
<!-- nt14 -->
<g id="node15" class="node">
<title>nt14</title>
<ellipse fill="none" stroke="black" cx="1463.94" cy="-87.01" rx="61.99" ry="18"/>
<text text-anchor="middle" x="1463.94" y="-83.31" font-family="Times,serif" font-size="14.00">alternation</text>
</g>
<!-- nt5&#45;&gt;nt14 -->
<g id="edge10" class="edge">
<title>nt5&#45;&gt;nt14</title>
<path fill="none" stroke="black" d="M1366.23,-93.31C1374.38,-92.78 1383.79,-92.17 1393.47,-91.54"/>
<polygon fill="black" stroke="black" points="1393.87,-95.02 1403.62,-90.88 1393.41,-88.03 1393.87,-95.02"/>
</g>
<!-- nt6 -->
<g id="node7" class="node">
<title>nt6</title>
<ellipse fill="none" stroke="black" cx="342.38" cy="-49.01" rx="50.89" ry="18"/>
<text text-anchor="middle" x="342.38" y="-45.31" font-family="Times,serif" font-size="14.00">postlude</text>
</g>
<!-- nt7&#45;&gt;nt7 -->
<g id="edge11" class="edge">
<title>nt7&#45;&gt;nt7</title>
<path fill="none" stroke="black" d="M1111.28,-166.42C1104.89,-176.1 1116.31,-185.01 1145.56,-185.01 1163.84,-185.01 1175.16,-181.53 1179.52,-176.55"/>
<polygon fill="black" stroke="black" points="1183.02,-176.53 1179.84,-166.42 1176.02,-176.3 1183.02,-176.53"/>
</g>
<!-- nt8&#45;&gt;nt8 -->
<g id="edge12" class="edge">
<title>nt8&#45;&gt;nt8</title>
<path fill="none" stroke="black" d="M2017.18,-53.05C2011.83,-62.87 2020.57,-72.01 2043.41,-72.01 2057.68,-72.01 2066.44,-68.44 2069.71,-63.36"/>
<polygon fill="black" stroke="black" points="2073.2,-63.02 2069.63,-53.05 2066.2,-63.07 2073.2,-63.02"/>
</g>
<!-- nt9&#45;&gt;nt3 -->
<g id="edge13" class="edge">
<title>nt9&#45;&gt;nt3</title>
<path fill="none" stroke="black" d="M237.72,-62.64C258.22,-70.62 284.07,-80.69 304.84,-88.78"/>
<polygon fill="black" stroke="black" points="303.69,-92.09 314.27,-92.45 306.23,-85.56 303.69,-92.09"/>
</g>
<!-- nt9&#45;&gt;nt6 -->
<g id="edge14" class="edge">
<title>nt9&#45;&gt;nt6</title>
<path fill="none" stroke="black" d="M255.94,-49.01C264.19,-49.01 272.77,-49.01 281.16,-49.01"/>
<polygon fill="black" stroke="black" points="281.27,-52.51 291.27,-49.01 281.27,-45.51 281.27,-52.51"/>
</g>
<!-- nt9&#45;&gt;nt8 -->
<g id="edge15" class="edge">
<title>nt9&#45;&gt;nt8</title>
<path fill="none" stroke="black" d="M239.03,-35.76C254.96,-30.53 274.03,-25.05 291.68,-22.01 472.03,9.03 519.99,-3.01 703,-3.01 703,-3.01 703,-3.01 1787.82,-3.01 1851.12,-3.01 1922.55,-13.17 1973.6,-22.21"/>
<polygon fill="black" stroke="black" points="1973.07,-25.67 1983.53,-24 1974.31,-18.78 1973.07,-25.67"/>
</g>
<!-- nt10 -->
<g id="node11" class="node">
<title>nt10</title>
<ellipse fill="none" stroke="black" cx="1786.82" cy="-96.01" rx="38.19" ry="18"/>
<text text-anchor="middle" x="1786.82" y="-92.31" font-family="Times,serif" font-size="14.00">factor</text>
</g>
<!-- nt10&#45;&gt;nt1 -->
<g id="edge16" class="edge">
<title>nt10&#45;&gt;nt1</title>
<path fill="none" stroke="black" d="M1824.72,-98.81C1833.26,-99.46 1842.41,-100.15 1851.16,-100.81"/>
<polygon fill="black" stroke="black" points="1850.94,-104.31 1861.18,-101.57 1851.47,-97.33 1850.94,-104.31"/>
</g>
<!-- nt11 -->
<g id="node12" class="node">
<title>nt11</title>
<ellipse fill="none" stroke="black" cx="1637.08" cy="-87.01" rx="75.29" ry="18"/>
<text text-anchor="middle" x="1637.08" y="-83.31" font-family="Times,serif" font-size="14.00">concatenation</text>
</g>
<!-- nt11&#45;&gt;nt10 -->
<g id="edge17" class="edge">
<title>nt11&#45;&gt;nt10</title>
<path fill="none" stroke="black" d="M1710.22,-91.4C1719.8,-91.99 1729.42,-92.57 1738.44,-93.12"/>
<polygon fill="black" stroke="black" points="1738.51,-96.63 1748.7,-93.75 1738.93,-89.65 1738.51,-96.63"/>
</g>
<!-- nt11&#45;&gt;nt11 -->
<g id="edge18" class="edge">
<title>nt11&#45;&gt;nt11</title>
<path fill="none" stroke="black" d="M1610.86,-104.05C1605.5,-113.87 1614.25,-123.01 1637.08,-123.01 1651.35,-123.01 1660.12,-119.44 1663.38,-114.36"/>
<polygon fill="black" stroke="black" points="1666.88,-114.02 1663.31,-104.05 1659.88,-114.07 1666.88,-114.02"/>
</g>
<!-- nt12 -->
<g id="node13" class="node">
<title>nt12</title>
<ellipse fill="none" stroke="black" cx="2223.69" cy="-108.01" rx="64.19" ry="18"/>
<text text-anchor="middle" x="2223.69" y="-104.31" font-family="Times,serif" font-size="14.00">char_class1</text>
</g>
<!-- nt12&#45;&gt;nt12 -->
<g id="edge19" class="edge">
<title>nt12&#45;&gt;nt12</title>
<path fill="none" stroke="black" d="M2192.61,-123.93C2184.5,-134.16 2194.86,-144.01 2223.69,-144.01 2242.61,-144.01 2253.58,-139.77 2256.59,-133.96"/>
<polygon fill="black" stroke="black" points="2260,-133.14 2254.77,-123.93 2253.11,-134.39 2260,-133.14"/>
</g>
<!-- nt13&#45;&gt;nt12 -->
<g id="edge20" class="edge">
<title>nt13&#45;&gt;nt12</title>
<path fill="none" stroke="black" d="M2102.29,-108.01C2117.22,-108.01 2133.49,-108.01 2149.1,-108.01"/>
<polygon fill="black" stroke="black" points="2149.25,-111.51 2159.25,-108.01 2149.25,-104.51 2149.25,-111.51"/>
</g>
<!-- nt14&#45;&gt;nt8 -->
<g id="edge21" class="edge">
<title>nt14&#45;&gt;nt8</title>
<path fill="none" stroke="black" d="M1505.45,-73.54C1522.6,-68.4 1542.93,-63.06 1561.69,-60.01 1697.11,-38.01 1856.57,-34.36 1953.52,-34.57"/>
<polygon fill="black" stroke="black" points="1953.56,-38.07 1963.57,-34.6 1953.59,-31.07 1953.56,-38.07"/>
</g>
<!-- nt14&#45;&gt;nt11 -->
<g id="edge22" class="edge">
<title>nt14&#45;&gt;nt11</title>
<path fill="none" stroke="black" d="M1525.76,-87.01C1534.12,-87.01 1542.82,-87.01 1551.5,-87.01"/>
<polygon fill="black" stroke="black" points="1551.67,-90.51 1561.67,-87.01 1551.67,-83.51 1551.67,-90.51"/>
</g>
<!-- nt14&#45;&gt;nt14 -->
<g id="edge23" class="edge">
<title>nt14&#45;&gt;nt14</title>
<path fill="none" stroke="black" d="M1441.97,-104.05C1437.49,-113.87 1444.81,-123.01 1463.94,-123.01 1475.9,-123.01 1483.25,-119.44 1485.98,-114.36"/>
<polygon fill="black" stroke="black" points="1489.48,-114.03 1485.92,-104.05 1482.48,-114.07 1489.48,-114.03"/>
</g>
</g>
</svg>
