<?xml version="1.0" encoding="UTF-8" standalone="no"?>
<!DOCTYPE svg PUBLIC "-//W3C//DTD SVG 1.1//EN"
 "http://www.w3.org/Graphics/SVG/1.1/DTD/svg11.dtd">
<!-- Generated by graphviz version 2.43.0 (0)
 -->
<!-- Title: G Pages: 1 -->
<svg width="139pt" height="2550pt"
 viewBox="0.00 0.00 33.42 612.00" xmlns="http://www.w3.org/2000/svg" xmlns:xlink="http://www.w3.org/1999/xlink">
<g id="graph0" class="graph" transform="scale(1.24 1.24) rotate(-90) translate(-3145.36 168)">
<title>G</title>
<polygon fill="white" stroke="transparent" points="-4,4 -4,-168 3145.36,-168 3145.36,4 -4,4"/>
<!-- nt0 -->
<g id="node1" class="node">
<title>nt0</title>
<ellipse fill="none" stroke="black" cx="55.9" cy="-69" rx="55.79" ry="18"/>
<text text-anchor="middle" x="55.9" y="-65.3" font-family="Times,serif" font-size="14.00">grammar&#39;</text>
</g>
<!-- nt11 -->
<g id="node12" class="node">
<title>nt11</title>
<ellipse fill="none" stroke="black" cx="201.74" cy="-69" rx="53.89" ry="18"/>
<text text-anchor="middle" x="201.74" y="-65.3" font-family="Times,serif" font-size="14.00">grammar</text>
</g>
<!-- nt0&#45;&gt;nt11 -->
<g id="edge1" class="edge">
<title>nt0&#45;&gt;nt11</title>
<path fill="none" stroke="black" d="M112.1,-69C120.32,-69 128.85,-69 137.23,-69"/>
<polygon fill="black" stroke="black" points="137.34,-72.5 147.34,-69 137.34,-65.5 137.34,-72.5"/>
</g>
<!-- nt1 -->
<g id="node2" class="node">
<title>nt1</title>
<ellipse fill="none" stroke="black" cx="3097.16" cy="-50" rx="44.39" ry="18"/>
<text text-anchor="middle" x="3097.16" y="-46.3" font-family="Times,serif" font-size="14.00">symbol</text>
</g>
<!-- nt2 -->
<g id="node3" class="node">
<title>nt2</title>
<ellipse fill="none" stroke="black" cx="585.45" cy="-69" rx="293.55" ry="18"/>
<text text-anchor="middle" x="585.45" y="-65.3" font-family="Times,serif" font-size="14.00">separated_nonempty_list(nonempty_list(NEWLINE),old_rule)</text>
</g>
<!-- nt2&#45;&gt;nt2 -->
<g id="edge2" class="edge">
<title>nt2&#45;&gt;nt2</title>
<path fill="none" stroke="black" d="M516.78,-86.78C505.12,-96.31 528.01,-105 585.45,-105 621.36,-105 643.77,-101.61 652.67,-96.74"/>
<polygon fill="black" stroke="black" points="656.14,-97.18 654.12,-86.78 649.22,-96.17 656.14,-97.18"/>
</g>
<!-- nt7 -->
<g id="node8" class="node">
<title>nt7</title>
<ellipse fill="none" stroke="black" cx="1045.87" cy="-105" rx="48.19" ry="18"/>
<text text-anchor="middle" x="1045.87" y="-101.3" font-family="Times,serif" font-size="14.00">old_rule</text>
</g>
<!-- nt2&#45;&gt;nt7 -->
<g id="edge3" class="edge">
<title>nt2&#45;&gt;nt7</title>
<path fill="none" stroke="black" d="M766.97,-83.18C845.83,-89.37 932.74,-96.19 988.01,-100.53"/>
<polygon fill="black" stroke="black" points="988.05,-104.05 998.29,-101.34 988.59,-97.07 988.05,-104.05"/>
</g>
<!-- nt8 -->
<g id="node9" class="node">
<title>nt8</title>
<ellipse fill="none" stroke="black" cx="1045.87" cy="-33" rx="130.78" ry="18"/>
<text text-anchor="middle" x="1045.87" y="-29.3" font-family="Times,serif" font-size="14.00">nonempty_list(NEWLINE)</text>
</g>
<!-- nt2&#45;&gt;nt8 -->
<g id="edge4" class="edge">
<title>nt2&#45;&gt;nt8</title>
<path fill="none" stroke="black" d="M766.97,-54.82C818.9,-50.75 874.33,-46.39 921.91,-42.66"/>
<polygon fill="black" stroke="black" points="922.24,-46.14 931.94,-41.87 921.69,-39.16 922.24,-46.14"/>
</g>
<!-- nt3 -->
<g id="node4" class="node">
<title>nt3</title>
<ellipse fill="none" stroke="black" cx="1419.19" cy="-105" rx="206.86" ry="18"/>
<text text-anchor="middle" x="1419.19" y="-101.3" font-family="Times,serif" font-size="14.00">separated_nonempty_list(BAR,production)</text>
</g>
<!-- nt3&#45;&gt;nt3 -->
<g id="edge5" class="edge">
<title>nt3&#45;&gt;nt3</title>
<path fill="none" stroke="black" d="M1365.27,-122.41C1355.21,-132.09 1373.18,-141 1419.19,-141 1447.94,-141 1465.75,-137.52 1472.6,-132.54"/>
<polygon fill="black" stroke="black" points="1476.1,-132.57 1473.1,-122.41 1469.11,-132.22 1476.1,-132.57"/>
</g>
<!-- nt5 -->
<g id="node6" class="node">
<title>nt5</title>
<ellipse fill="none" stroke="black" cx="1722.96" cy="-105" rx="61.19" ry="18"/>
<text text-anchor="middle" x="1722.96" y="-101.3" font-family="Times,serif" font-size="14.00">production</text>
</g>
<!-- nt3&#45;&gt;nt5 -->
<g id="edge6" class="edge">
<title>nt3&#45;&gt;nt5</title>
<path fill="none" stroke="black" d="M1626.06,-105C1634.91,-105 1643.47,-105 1651.58,-105"/>
<polygon fill="black" stroke="black" points="1651.61,-108.5 1661.61,-105 1651.61,-101.5 1651.61,-108.5"/>
</g>
<!-- nt4 -->
<g id="node5" class="node">
<title>nt4</title>
<ellipse fill="none" stroke="black" cx="2717.34" cy="-18" rx="299.75" ry="18"/>
<text text-anchor="middle" x="2717.34" y="-14.3" font-family="Times,serif" font-size="14.00">reversed_preceded_or_separated_nonempty_llist(BAR,symbol)</text>
</g>
<!-- nt4&#45;&gt;nt1 -->
<g id="edge7" class="edge">
<title>nt4&#45;&gt;nt1</title>
<path fill="none" stroke="black" d="M2891.49,-32.67C2946.86,-37.35 3004.04,-42.2 3043.84,-45.57"/>
<polygon fill="black" stroke="black" points="3043.57,-49.06 3053.83,-46.41 3044.16,-42.08 3043.57,-49.06"/>
</g>
<!-- nt4&#45;&gt;nt4 -->
<g id="edge8" class="edge">
<title>nt4&#45;&gt;nt4</title>
<path fill="none" stroke="black" d="M2649.39,-35.78C2637.84,-45.31 2660.49,-54 2717.34,-54 2752.87,-54 2775.04,-50.61 2783.86,-45.74"/>
<polygon fill="black" stroke="black" points="2787.33,-46.18 2785.29,-35.78 2780.4,-45.18 2787.33,-46.18"/>
</g>
<!-- nt9 -->
<g id="node10" class="node">
<title>nt9</title>
<ellipse fill="none" stroke="black" cx="1894.15" cy="-105" rx="74.19" ry="18"/>
<text text-anchor="middle" x="1894.15" y="-101.3" font-family="Times,serif" font-size="14.00">list(producer)</text>
</g>
<!-- nt5&#45;&gt;nt9 -->
<g id="edge9" class="edge">
<title>nt5&#45;&gt;nt9</title>
<path fill="none" stroke="black" d="M1784.09,-105C1792.42,-105 1801.09,-105 1809.75,-105"/>
<polygon fill="black" stroke="black" points="1809.88,-108.5 1819.88,-105 1809.88,-101.5 1809.88,-108.5"/>
</g>
<!-- nt6 -->
<g id="node7" class="node">
<title>nt6</title>
<ellipse fill="none" stroke="black" cx="2056.89" cy="-105" rx="52.79" ry="18"/>
<text text-anchor="middle" x="2056.89" y="-101.3" font-family="Times,serif" font-size="14.00">producer</text>
</g>
<!-- nt13 -->
<g id="node14" class="node">
<title>nt13</title>
<ellipse fill="none" stroke="black" cx="2184.53" cy="-105" rx="38.99" ry="18"/>
<text text-anchor="middle" x="2184.53" y="-101.3" font-family="Times,serif" font-size="14.00">actual</text>
</g>
<!-- nt6&#45;&gt;nt13 -->
<g id="edge10" class="edge">
<title>nt6&#45;&gt;nt13</title>
<path fill="none" stroke="black" d="M2109.72,-105C2118.08,-105 2126.72,-105 2135,-105"/>
<polygon fill="black" stroke="black" points="2135.26,-108.5 2145.26,-105 2135.26,-101.5 2135.26,-108.5"/>
</g>
<!-- nt7&#45;&gt;nt3 -->
<g id="edge11" class="edge">
<title>nt7&#45;&gt;nt3</title>
<path fill="none" stroke="black" d="M1094.27,-105C1122.9,-105 1161.65,-105 1202.38,-105"/>
<polygon fill="black" stroke="black" points="1202.5,-108.5 1212.5,-105 1202.5,-101.5 1202.5,-108.5"/>
</g>
<!-- nt8&#45;&gt;nt8 -->
<g id="edge12" class="edge">
<title>nt8&#45;&gt;nt8</title>
<path fill="none" stroke="black" d="M981.94,-48.73C964.62,-59.03 985.93,-69 1045.87,-69 1088.95,-69 1112.07,-63.85 1115.24,-57.13"/>
<polygon fill="black" stroke="black" points="1118.17,-55.21 1109.79,-48.73 1112.3,-59.02 1118.17,-55.21"/>
</g>
<!-- nt9&#45;&gt;nt6 -->
<g id="edge13" class="edge">
<title>nt9&#45;&gt;nt6</title>
<path fill="none" stroke="black" d="M1968.46,-105C1976.85,-105 1985.33,-105 1993.56,-105"/>
<polygon fill="black" stroke="black" points="1993.8,-108.5 2003.8,-105 1993.8,-101.5 1993.8,-108.5"/>
</g>
<!-- nt9&#45;&gt;nt9 -->
<g id="edge14" class="edge">
<title>nt9&#45;&gt;nt9</title>
<path fill="none" stroke="black" d="M1865.67,-121.66C1859.35,-131.62 1868.84,-141 1894.15,-141 1910.37,-141 1920.09,-137.15 1923.32,-131.77"/>
<polygon fill="black" stroke="black" points="1926.8,-131.4 1922.63,-121.66 1919.82,-131.88 1926.8,-131.4"/>
</g>
<!-- nt10 -->
<g id="node11" class="node">
<title>nt10</title>
<ellipse fill="none" stroke="black" cx="2717.34" cy="-128" rx="82.59" ry="18"/>
<text text-anchor="middle" x="2717.34" y="-124.3" font-family="Times,serif" font-size="14.00">list(expression)</text>
</g>
<!-- nt10&#45;&gt;nt10 -->
<g id="edge15" class="edge">
<title>nt10&#45;&gt;nt10</title>
<path fill="none" stroke="black" d="M2658.62,-140.73C2630.95,-152 2650.53,-164 2717.34,-164 2774.76,-164 2797.29,-155.14 2784.93,-145.49"/>
<polygon fill="black" stroke="black" points="2786.53,-142.38 2776.06,-140.73 2783.22,-148.55 2786.53,-142.38"/>
</g>
<!-- nt12 -->
<g id="node13" class="node">
<title>nt12</title>
<ellipse fill="none" stroke="black" cx="2320.62" cy="-105" rx="61.19" ry="18"/>
<text text-anchor="middle" x="2320.62" y="-101.3" font-family="Times,serif" font-size="14.00">expression</text>
</g>
<!-- nt10&#45;&gt;nt12 -->
<g id="edge16" class="edge">
<title>nt10&#45;&gt;nt12</title>
<path fill="none" stroke="black" d="M2634.86,-128.84C2561.04,-126.23 2453.72,-119.82 2385.81,-113.88"/>
<polygon fill="black" stroke="black" points="2385.95,-110.38 2375.68,-112.97 2385.33,-117.35 2385.95,-110.38"/>
</g>
<!-- nt11&#45;&gt;nt2 -->
<g id="edge17" class="edge">
<title>nt11&#45;&gt;nt2</title>
<path fill="none" stroke="black" d="M255.81,-69C263.71,-69 272.28,-69 281.38,-69"/>
<polygon fill="black" stroke="black" points="281.46,-72.5 291.46,-69 281.46,-65.5 281.46,-72.5"/>
</g>
<!-- nt12&#45;&gt;nt1 -->
<g id="edge18" class="edge">
<title>nt12&#45;&gt;nt1</title>
<path fill="none" stroke="black" d="M2381.13,-102.19C2526.06,-95.22 2894.45,-76.72 3016.96,-63 3026.52,-61.93 3036.68,-60.49 3046.43,-58.96"/>
<polygon fill="black" stroke="black" points="3047.08,-62.4 3056.39,-57.35 3045.96,-55.49 3047.08,-62.4"/>
</g>
<!-- nt12&#45;&gt;nt4 -->
<g id="edge19" class="edge">
<title>nt12&#45;&gt;nt4</title>
<path fill="none" stroke="black" d="M2355.31,-90.11C2373.49,-82.56 2396.51,-73.8 2417.72,-68 2468.23,-54.2 2524.64,-43.57 2574.72,-35.73"/>
<polygon fill="black" stroke="black" points="2575.29,-39.18 2584.64,-34.2 2574.23,-32.26 2575.29,-39.18"/>
</g>
<!-- nt12&#45;&gt;nt10 -->
<g id="edge20" class="edge">
<title>nt12&#45;&gt;nt10</title>
<path fill="none" stroke="black" d="M2381.57,-103.48C2449.54,-105.32 2560.69,-111.62 2636.1,-117.77"/>
<polygon fill="black" stroke="black" points="2636.23,-121.29 2646.49,-118.63 2636.82,-114.31 2636.23,-121.29"/>
</g>
<!-- nt13&#45;&gt;nt12 -->
<g id="edge21" class="edge">
<title>nt13&#45;&gt;nt12</title>
<path fill="none" stroke="black" d="M2223.6,-105C2231.7,-105 2240.5,-105 2249.37,-105"/>
<polygon fill="black" stroke="black" points="2249.39,-108.5 2259.39,-105 2249.39,-101.5 2249.39,-108.5"/>
</g>
</g>
</svg>
