<?xml version="1.0" encoding="UTF-8" standalone="no"?>
<!DOCTYPE svg PUBLIC "-//W3C//DTD SVG 1.1//EN"
 "http://www.w3.org/Graphics/SVG/1.1/DTD/svg11.dtd">
<!-- Generated by graphviz version 2.43.0 (0)
 -->
<!-- Title: G Pages: 1 -->
<svg width="2550pt" height="258pt"
 viewBox="0.00 0.00 612.00 61.89" xmlns="http://www.w3.org/2000/svg" xmlns:xlink="http://www.w3.org/1999/xlink">
<g id="graph0" class="graph" transform="scale(1.4 1.4) rotate(0) translate(4 357)">
<title>G</title>
<polygon fill="white" stroke="transparent" points="-4,4 -4,-357 3565.75,-357 3565.75,4 -4,4"/>
<!-- nt0 -->
<g id="node1" class="node">
<title>nt0</title>
<ellipse fill="none" stroke="black" cx="55.9" cy="-45" rx="55.79" ry="18"/>
<text text-anchor="middle" x="55.9" y="-41.3" font-family="Times,serif" font-size="14.00">grammar&#39;</text>
</g>
<!-- nt15 -->
<g id="node16" class="node">
<title>nt15</title>
<ellipse fill="none" stroke="black" cx="201.74" cy="-45" rx="53.89" ry="18"/>
<text text-anchor="middle" x="201.74" y="-41.3" font-family="Times,serif" font-size="14.00">grammar</text>
</g>
<!-- nt0&#45;&gt;nt15 -->
<g id="edge1" class="edge">
<title>nt0&#45;&gt;nt15</title>
<path fill="none" stroke="black" d="M112.1,-45C120.32,-45 128.85,-45 137.23,-45"/>
<polygon fill="black" stroke="black" points="137.34,-48.5 147.34,-45 137.34,-41.5 137.34,-48.5"/>
</g>
<!-- nt1 -->
<g id="node2" class="node">
<title>nt1</title>
<ellipse fill="none" stroke="black" cx="2753.25" cy="-269" rx="60.39" ry="18"/>
<text text-anchor="middle" x="2753.25" y="-265.3" font-family="Times,serif" font-size="14.00">termfactor</text>
</g>
<!-- nt2 -->
<g id="node3" class="node">
<title>nt2</title>
<ellipse fill="none" stroke="black" cx="2889.99" cy="-293" rx="33.29" ry="18"/>
<text text-anchor="middle" x="2889.99" y="-289.3" font-family="Times,serif" font-size="14.00">term</text>
</g>
<!-- nt1&#45;&gt;nt2 -->
<g id="edge2" class="edge">
<title>nt1&#45;&gt;nt2</title>
<path fill="none" stroke="black" d="M2805.58,-278.14C2819.68,-280.65 2834.78,-283.34 2848.21,-285.74"/>
<polygon fill="black" stroke="black" points="2847.64,-289.19 2858.1,-287.5 2848.87,-282.3 2847.64,-289.19"/>
</g>
<!-- nt3 -->
<g id="node4" class="node">
<title>nt3</title>
<ellipse fill="none" stroke="black" cx="3042.98" cy="-293" rx="38.19" ry="18"/>
<text text-anchor="middle" x="3042.98" y="-289.3" font-family="Times,serif" font-size="14.00">sterm</text>
</g>
<!-- nt2&#45;&gt;nt3 -->
<g id="edge3" class="edge">
<title>nt2&#45;&gt;nt3</title>
<path fill="none" stroke="black" d="M2923.38,-293C2944.05,-293 2971.19,-293 2994.3,-293"/>
<polygon fill="black" stroke="black" points="2994.59,-296.5 3004.59,-293 2994.59,-289.5 2994.59,-296.5"/>
</g>
<!-- nt23 -->
<g id="node24" class="node">
<title>nt23</title>
<ellipse fill="none" stroke="black" cx="3042.98" cy="-214" rx="76.89" ry="18"/>
<text text-anchor="middle" x="3042.98" y="-210.3" font-family="Times,serif" font-size="14.00">complexterms</text>
</g>
<!-- nt2&#45;&gt;nt23 -->
<g id="edge4" class="edge">
<title>nt2&#45;&gt;nt23</title>
<path fill="none" stroke="black" d="M2914.59,-280.66C2937.83,-268.49 2973.81,-249.67 3001.61,-235.12"/>
<polygon fill="black" stroke="black" points="3003.46,-238.11 3010.7,-230.37 3000.21,-231.9 3003.46,-238.11"/>
</g>
<!-- nt7 -->
<g id="node8" class="node">
<title>nt7</title>
<ellipse fill="none" stroke="black" cx="3199.87" cy="-335" rx="27" ry="18"/>
<text text-anchor="middle" x="3199.87" y="-331.3" font-family="Times,serif" font-size="14.00">qid</text>
</g>
<!-- nt3&#45;&gt;nt7 -->
<g id="edge5" class="edge">
<title>nt3&#45;&gt;nt7</title>
<path fill="none" stroke="black" d="M3076.45,-301.8C3102.3,-308.81 3138.36,-318.59 3164.65,-325.72"/>
<polygon fill="black" stroke="black" points="3163.99,-329.17 3174.56,-328.41 3165.82,-322.41 3163.99,-329.17"/>
</g>
<!-- nt13 -->
<g id="node14" class="node">
<title>nt13</title>
<ellipse fill="none" stroke="black" cx="3199.87" cy="-281" rx="27" ry="18"/>
<text text-anchor="middle" x="3199.87" y="-277.3" font-family="Times,serif" font-size="14.00">lid</text>
</g>
<!-- nt3&#45;&gt;nt13 -->
<g id="edge6" class="edge">
<title>nt3&#45;&gt;nt13</title>
<path fill="none" stroke="black" d="M3081.08,-290.13C3105.83,-288.21 3138.2,-285.7 3162.74,-283.8"/>
<polygon fill="black" stroke="black" points="3163.04,-287.29 3172.74,-283.02 3162.5,-280.31 3163.04,-287.29"/>
</g>
<!-- nt4 -->
<g id="node5" class="node">
<title>nt4</title>
<ellipse fill="none" stroke="black" cx="722.85" cy="-72" rx="293.55" ry="18"/>
<text text-anchor="middle" x="722.85" y="-68.3" font-family="Times,serif" font-size="14.00">separated_nonempty_list(nonempty_list(NEWLINE),old_rule)</text>
</g>
<!-- nt4&#45;&gt;nt4 -->
<g id="edge7" class="edge">
<title>nt4&#45;&gt;nt4</title>
<path fill="none" stroke="black" d="M654.54,-89.78C642.93,-99.31 665.7,-108 722.85,-108 758.56,-108 780.85,-104.61 789.71,-99.74"/>
<polygon fill="black" stroke="black" points="793.18,-100.18 791.16,-89.78 786.26,-99.18 793.18,-100.18"/>
</g>
<!-- nt9 -->
<g id="node10" class="node">
<title>nt9</title>
<ellipse fill="none" stroke="black" cx="1183.26" cy="-108" rx="48.19" ry="18"/>
<text text-anchor="middle" x="1183.26" y="-104.3" font-family="Times,serif" font-size="14.00">old_rule</text>
</g>
<!-- nt4&#45;&gt;nt9 -->
<g id="edge8" class="edge">
<title>nt4&#45;&gt;nt9</title>
<path fill="none" stroke="black" d="M904.36,-86.18C983.22,-92.37 1070.13,-99.19 1125.4,-103.53"/>
<polygon fill="black" stroke="black" points="1125.44,-107.05 1135.68,-104.34 1125.98,-100.07 1125.44,-107.05"/>
</g>
<!-- nt11 -->
<g id="node12" class="node">
<title>nt11</title>
<ellipse fill="none" stroke="black" cx="1183.26" cy="-36" rx="130.78" ry="18"/>
<text text-anchor="middle" x="1183.26" y="-32.3" font-family="Times,serif" font-size="14.00">nonempty_list(NEWLINE)</text>
</g>
<!-- nt4&#45;&gt;nt11 -->
<g id="edge9" class="edge">
<title>nt4&#45;&gt;nt11</title>
<path fill="none" stroke="black" d="M904.36,-57.82C956.29,-53.75 1011.72,-49.39 1059.3,-45.66"/>
<polygon fill="black" stroke="black" points="1059.63,-49.14 1069.33,-44.87 1059.08,-42.16 1059.63,-49.14"/>
</g>
<!-- nt5 -->
<g id="node6" class="node">
<title>nt5</title>
<ellipse fill="none" stroke="black" cx="342.38" cy="-72" rx="34.39" ry="18"/>
<text text-anchor="middle" x="342.38" y="-68.3" font-family="Times,serif" font-size="14.00">rules</text>
</g>
<!-- nt5&#45;&gt;nt4 -->
<g id="edge10" class="edge">
<title>nt5&#45;&gt;nt4</title>
<path fill="none" stroke="black" d="M376.96,-72C388.65,-72 402.87,-72 418.81,-72"/>
<polygon fill="black" stroke="black" points="418.95,-75.5 428.95,-72 418.95,-68.5 418.95,-75.5"/>
</g>
<!-- nt6 -->
<g id="node7" class="node">
<title>nt6</title>
<ellipse fill="none" stroke="black" cx="1376.9" cy="-108" rx="27" ry="18"/>
<text text-anchor="middle" x="1376.9" y="-104.3" font-family="Times,serif" font-size="14.00">rhs</text>
</g>
<!-- nt28 -->
<g id="node29" class="node">
<title>nt28</title>
<ellipse fill="none" stroke="black" cx="1501.64" cy="-131" rx="61.99" ry="18"/>
<text text-anchor="middle" x="1501.64" y="-127.3" font-family="Times,serif" font-size="14.00">alternation</text>
</g>
<!-- nt6&#45;&gt;nt28 -->
<g id="edge11" class="edge">
<title>nt6&#45;&gt;nt28</title>
<path fill="none" stroke="black" d="M1403.03,-112.71C1413.55,-114.68 1426.27,-117.06 1439.01,-119.45"/>
<polygon fill="black" stroke="black" points="1438.72,-122.96 1449.19,-121.36 1440.01,-116.08 1438.72,-122.96"/>
</g>
<!-- nt8 -->
<g id="node9" class="node">
<title>nt8</title>
<ellipse fill="none" stroke="black" cx="342.38" cy="-18" rx="50.89" ry="18"/>
<text text-anchor="middle" x="342.38" y="-14.3" font-family="Times,serif" font-size="14.00">postlude</text>
</g>
<!-- nt9&#45;&gt;nt6 -->
<g id="edge12" class="edge">
<title>nt9&#45;&gt;nt6</title>
<path fill="none" stroke="black" d="M1231.63,-108C1264.94,-108 1308.86,-108 1339.45,-108"/>
<polygon fill="black" stroke="black" points="1339.68,-111.5 1349.68,-108 1339.68,-104.5 1339.68,-111.5"/>
</g>
<!-- nt10 -->
<g id="node11" class="node">
<title>nt10</title>
<ellipse fill="none" stroke="black" cx="1739.12" cy="-131" rx="139.98" ry="18"/>
<text text-anchor="middle" x="1739.12" y="-127.3" font-family="Times,serif" font-size="14.00">nonempty_list(alternation1)</text>
</g>
<!-- nt10&#45;&gt;nt10 -->
<g id="edge13" class="edge">
<title>nt10&#45;&gt;nt10</title>
<path fill="none" stroke="black" d="M1696.99,-148.41C1689.13,-158.09 1703.17,-167 1739.12,-167 1761.59,-167 1775.51,-163.52 1780.86,-158.54"/>
<polygon fill="black" stroke="black" points="1784.36,-158.54 1781.26,-148.41 1777.37,-158.27 1784.36,-158.54"/>
</g>
<!-- nt27 -->
<g id="node28" class="node">
<title>nt27</title>
<ellipse fill="none" stroke="black" cx="1982.45" cy="-131" rx="67.69" ry="18"/>
<text text-anchor="middle" x="1982.45" y="-127.3" font-family="Times,serif" font-size="14.00">alternation1</text>
</g>
<!-- nt10&#45;&gt;nt27 -->
<g id="edge14" class="edge">
<title>nt10&#45;&gt;nt27</title>
<path fill="none" stroke="black" d="M1879.11,-131C1887.73,-131 1896.22,-131 1904.4,-131"/>
<polygon fill="black" stroke="black" points="1904.59,-134.5 1914.59,-131 1904.59,-127.5 1904.59,-134.5"/>
</g>
<!-- nt11&#45;&gt;nt11 -->
<g id="edge15" class="edge">
<title>nt11&#45;&gt;nt11</title>
<path fill="none" stroke="black" d="M1148.98,-53.41C1142.58,-63.09 1154.01,-72 1183.26,-72 1201.54,-72 1212.86,-68.52 1217.21,-63.54"/>
<polygon fill="black" stroke="black" points="1220.72,-63.52 1217.54,-53.41 1213.72,-63.29 1220.72,-63.52"/>
</g>
<!-- nt12 -->
<g id="node13" class="node">
<title>nt12</title>
<ellipse fill="none" stroke="black" cx="2753.25" cy="-188" rx="49.29" ry="18"/>
<text text-anchor="middle" x="2753.25" y="-184.3" font-family="Times,serif" font-size="14.00">modifier</text>
</g>
<!-- nt16 -->
<g id="node17" class="node">
<title>nt16</title>
<ellipse fill="none" stroke="black" cx="2889.99" cy="-239" rx="32.49" ry="18"/>
<text text-anchor="middle" x="2889.99" y="-235.3" font-family="Times,serif" font-size="14.00">fstar</text>
</g>
<!-- nt12&#45;&gt;nt16 -->
<g id="edge16" class="edge">
<title>nt12&#45;&gt;nt16</title>
<path fill="none" stroke="black" d="M2788.25,-200.87C2808.08,-208.38 2833.08,-217.84 2853.21,-225.45"/>
<polygon fill="black" stroke="black" points="2852.06,-228.76 2862.65,-229.03 2854.54,-222.22 2852.06,-228.76"/>
</g>
<!-- nt17 -->
<g id="node18" class="node">
<title>nt17</title>
<ellipse fill="none" stroke="black" cx="2889.99" cy="-185" rx="40.09" ry="18"/>
<text text-anchor="middle" x="2889.99" y="-181.3" font-family="Times,serif" font-size="14.00">fquest</text>
</g>
<!-- nt12&#45;&gt;nt17 -->
<g id="edge17" class="edge">
<title>nt12&#45;&gt;nt17</title>
<path fill="none" stroke="black" d="M2802.9,-186.92C2814.79,-186.65 2827.53,-186.37 2839.46,-186.1"/>
<polygon fill="black" stroke="black" points="2839.78,-189.6 2849.7,-185.87 2839.63,-182.6 2839.78,-189.6"/>
</g>
<!-- nt18 -->
<g id="node19" class="node">
<title>nt18</title>
<ellipse fill="none" stroke="black" cx="2889.99" cy="-131" rx="33.6" ry="18"/>
<text text-anchor="middle" x="2889.99" y="-127.3" font-family="Times,serif" font-size="14.00">fplus</text>
</g>
<!-- nt12&#45;&gt;nt18 -->
<g id="edge18" class="edge">
<title>nt12&#45;&gt;nt18</title>
<path fill="none" stroke="black" d="M2786.18,-174.49C2806.34,-165.97 2832.41,-154.94 2853.25,-146.12"/>
<polygon fill="black" stroke="black" points="2854.87,-149.23 2862.72,-142.11 2852.15,-142.79 2854.87,-149.23"/>
</g>
<!-- nt14 -->
<g id="node15" class="node">
<title>nt14</title>
<ellipse fill="none" stroke="black" cx="3199.87" cy="-135" rx="44.39" ry="18"/>
<text text-anchor="middle" x="3199.87" y="-131.3" font-family="Times,serif" font-size="14.00">group1</text>
</g>
<!-- nt14&#45;&gt;nt6 -->
<g id="edge19" class="edge">
<title>nt14&#45;&gt;nt6</title>
<path fill="none" stroke="black" d="M3162.69,-125.24C3105.46,-110.69 2990.36,-85 2890.99,-85 1738.12,-85 1738.12,-85 1738.12,-85 1619.1,-85 1478.41,-97.66 1413.71,-104.19"/>
<polygon fill="black" stroke="black" points="1413.22,-100.73 1403.63,-105.23 1413.94,-107.69 1413.22,-100.73"/>
</g>
<!-- nt15&#45;&gt;nt5 -->
<g id="edge20" class="edge">
<title>nt15&#45;&gt;nt5</title>
<path fill="none" stroke="black" d="M248.9,-53.99C265.31,-57.19 283.68,-60.76 299.7,-63.88"/>
<polygon fill="black" stroke="black" points="299.35,-67.38 309.84,-65.86 300.69,-60.51 299.35,-67.38"/>
</g>
<!-- nt15&#45;&gt;nt8 -->
<g id="edge21" class="edge">
<title>nt15&#45;&gt;nt8</title>
<path fill="none" stroke="black" d="M248.9,-36.01C261.21,-33.61 274.61,-31 287.3,-28.53"/>
<polygon fill="black" stroke="black" points="288.15,-31.93 297.29,-26.59 286.81,-25.06 288.15,-31.93"/>
</g>
<!-- nt19 -->
<g id="node20" class="node">
<title>nt19</title>
<ellipse fill="none" stroke="black" cx="2464.82" cy="-197" rx="79.09" ry="18"/>
<text text-anchor="middle" x="2464.82" y="-193.3" font-family="Times,serif" font-size="14.00">fconcatenation</text>
</g>
<!-- nt20 -->
<g id="node21" class="node">
<title>nt20</title>
<ellipse fill="none" stroke="black" cx="2618.46" cy="-194" rx="38.19" ry="18"/>
<text text-anchor="middle" x="2618.46" y="-190.3" font-family="Times,serif" font-size="14.00">factor</text>
</g>
<!-- nt19&#45;&gt;nt20 -->
<g id="edge22" class="edge">
<title>nt19&#45;&gt;nt20</title>
<path fill="none" stroke="black" d="M2543.86,-195.46C2552.74,-195.28 2561.58,-195.11 2569.89,-194.94"/>
<polygon fill="black" stroke="black" points="2570.17,-198.44 2580.09,-194.74 2570.03,-191.44 2570.17,-198.44"/>
</g>
<!-- nt20&#45;&gt;nt1 -->
<g id="edge23" class="edge">
<title>nt20&#45;&gt;nt1</title>
<path fill="none" stroke="black" d="M2643.82,-207.76C2663.78,-219.03 2692.35,-235.17 2715.16,-248.05"/>
<polygon fill="black" stroke="black" points="2713.47,-251.12 2723.9,-252.99 2716.92,-245.02 2713.47,-251.12"/>
</g>
<!-- nt20&#45;&gt;nt12 -->
<g id="edge24" class="edge">
<title>nt20&#45;&gt;nt12</title>
<path fill="none" stroke="black" d="M2656.8,-192.31C2668.19,-191.8 2681,-191.22 2693.44,-190.66"/>
<polygon fill="black" stroke="black" points="2693.94,-194.14 2703.78,-190.19 2693.63,-187.15 2693.94,-194.14"/>
</g>
<!-- nt21 -->
<g id="node22" class="node">
<title>nt21</title>
<ellipse fill="none" stroke="black" cx="2464.82" cy="-143" rx="34.39" ry="18"/>
<text text-anchor="middle" x="2464.82" y="-139.3" font-family="Times,serif" font-size="14.00">cpair</text>
</g>
<!-- nt21&#45;&gt;nt20 -->
<g id="edge25" class="edge">
<title>nt21&#45;&gt;nt20</title>
<path fill="none" stroke="black" d="M2494.34,-152.59C2517.7,-160.45 2551.02,-171.66 2577.11,-180.43"/>
<polygon fill="black" stroke="black" points="2576.13,-183.79 2586.72,-183.66 2578.36,-177.16 2576.13,-183.79"/>
</g>
<!-- nt22 -->
<g id="node23" class="node">
<title>nt22</title>
<ellipse fill="none" stroke="black" cx="2274.13" cy="-154" rx="75.29" ry="18"/>
<text text-anchor="middle" x="2274.13" y="-150.3" font-family="Times,serif" font-size="14.00">concatenation</text>
</g>
<!-- nt22&#45;&gt;nt19 -->
<g id="edge26" class="edge">
<title>nt22&#45;&gt;nt19</title>
<path fill="none" stroke="black" d="M2329.2,-166.32C2350.74,-171.23 2375.72,-176.92 2398.27,-182.06"/>
<polygon fill="black" stroke="black" points="2397.58,-185.49 2408.1,-184.3 2399.13,-178.67 2397.58,-185.49"/>
</g>
<!-- nt22&#45;&gt;nt21 -->
<g id="edge27" class="edge">
<title>nt22&#45;&gt;nt21</title>
<path fill="none" stroke="black" d="M2347.55,-149.78C2372.11,-148.35 2398.77,-146.79 2420.36,-145.53"/>
<polygon fill="black" stroke="black" points="2420.74,-149.02 2430.52,-144.94 2420.33,-142.03 2420.74,-149.02"/>
</g>
<!-- nt23&#45;&gt;nt14 -->
<g id="edge28" class="edge">
<title>nt23&#45;&gt;nt14</title>
<path fill="none" stroke="black" d="M3076.08,-197.63C3101.17,-184.83 3136.08,-167.03 3162.26,-153.67"/>
<polygon fill="black" stroke="black" points="3164.16,-156.63 3171.48,-148.97 3160.98,-150.4 3164.16,-156.63"/>
</g>
<!-- nt24 -->
<g id="node25" class="node">
<title>nt24</title>
<ellipse fill="none" stroke="black" cx="3199.87" cy="-214" rx="39.79" ry="18"/>
<text text-anchor="middle" x="3199.87" y="-210.3" font-family="Times,serif" font-size="14.00">class1</text>
</g>
<!-- nt23&#45;&gt;nt24 -->
<g id="edge29" class="edge">
<title>nt23&#45;&gt;nt24</title>
<path fill="none" stroke="black" d="M3120.07,-214C3130.29,-214 3140.55,-214 3150.12,-214"/>
<polygon fill="black" stroke="black" points="3150.21,-217.5 3160.21,-214 3150.21,-210.5 3150.21,-217.5"/>
</g>
<!-- nt26 -->
<g id="node27" class="node">
<title>nt26</title>
<ellipse fill="none" stroke="black" cx="3338.56" cy="-214" rx="58.49" ry="18"/>
<text text-anchor="middle" x="3338.56" y="-210.3" font-family="Times,serif" font-size="14.00">char_class</text>
</g>
<!-- nt24&#45;&gt;nt26 -->
<g id="edge30" class="edge">
<title>nt24&#45;&gt;nt26</title>
<path fill="none" stroke="black" d="M3239.68,-214C3249.09,-214 3259.43,-214 3269.75,-214"/>
<polygon fill="black" stroke="black" points="3270.03,-217.5 3280.03,-214 3270.03,-210.5 3270.03,-217.5"/>
</g>
<!-- nt25 -->
<g id="node26" class="node">
<title>nt25</title>
<ellipse fill="none" stroke="black" cx="3497.4" cy="-214" rx="64.19" ry="18"/>
<text text-anchor="middle" x="3497.4" y="-210.3" font-family="Times,serif" font-size="14.00">char_class1</text>
</g>
<!-- nt26&#45;&gt;nt25 -->
<g id="edge31" class="edge">
<title>nt26&#45;&gt;nt25</title>
<path fill="none" stroke="black" d="M3397.07,-214C3405.43,-214 3414.13,-214 3422.75,-214"/>
<polygon fill="black" stroke="black" points="3422.81,-217.5 3432.81,-214 3422.81,-210.5 3422.81,-217.5"/>
</g>
<!-- nt27&#45;&gt;nt22 -->
<g id="edge32" class="edge">
<title>nt27&#45;&gt;nt22</title>
<path fill="none" stroke="black" d="M2025.9,-144.79C2044.19,-150.05 2065.96,-155.4 2086.05,-158 2121.09,-162.53 2160.12,-162.49 2193.43,-160.95"/>
<polygon fill="black" stroke="black" points="2193.76,-164.43 2203.57,-160.42 2193.4,-157.44 2193.76,-164.43"/>
</g>
<!-- nt29 -->
<g id="node30" class="node">
<title>nt29</title>
<ellipse fill="none" stroke="black" cx="2124.4" cy="-131" rx="38.19" ry="18"/>
<text text-anchor="middle" x="2124.4" y="-127.3" font-family="Times,serif" font-size="14.00">alter2</text>
</g>
<!-- nt27&#45;&gt;nt29 -->
<g id="edge33" class="edge">
<title>nt27&#45;&gt;nt29</title>
<path fill="none" stroke="black" d="M2050.15,-131C2058.76,-131 2067.44,-131 2075.66,-131"/>
<polygon fill="black" stroke="black" points="2075.79,-134.5 2085.79,-131 2075.79,-127.5 2075.79,-134.5"/>
</g>
<!-- nt28&#45;&gt;nt10 -->
<g id="edge34" class="edge">
<title>nt28&#45;&gt;nt10</title>
<path fill="none" stroke="black" d="M1563.59,-131C1571.71,-131 1580.3,-131 1589.15,-131"/>
<polygon fill="black" stroke="black" points="1589.23,-134.5 1599.23,-131 1589.23,-127.5 1589.23,-134.5"/>
</g>
<!-- nt29&#45;&gt;nt22 -->
<g id="edge35" class="edge">
<title>nt29&#45;&gt;nt22</title>
<path fill="none" stroke="black" d="M2161.16,-136.57C2173.12,-138.43 2186.91,-140.58 2200.64,-142.71"/>
<polygon fill="black" stroke="black" points="2200.17,-146.18 2210.59,-144.26 2201.25,-139.27 2200.17,-146.18"/>
</g>
</g>
</svg>
