<?xml version="1.0" encoding="UTF-8" standalone="no"?>
<!DOCTYPE svg PUBLIC "-//W3C//DTD SVG 1.1//EN"
 "http://www.w3.org/Graphics/SVG/1.1/DTD/svg11.dtd">
<!-- Generated by graphviz version 2.43.0 (0)
 -->
<!-- Title: G Pages: 1 -->
<svg width="2550pt" height="219pt"
 viewBox="0.00 0.00 612.00 52.49" xmlns="http://www.w3.org/2000/svg" xmlns:xlink="http://www.w3.org/1999/xlink">
<g id="graph0" class="graph" transform="scale(0.6 0.6) rotate(0) translate(4 128)">
<title>G</title>
<polygon fill="white" stroke="transparent" points="-4,4 -4,-128 1535,-128 1535,4 -4,4"/>
<!-- nt0 -->
<g id="node1" class="node">
<title>nt0</title>
<ellipse fill="none" stroke="black" cx="55.9" cy="-54" rx="55.79" ry="18"/>
<text text-anchor="middle" x="55.9" y="-50.3" font-family="Times,serif" font-size="14.00">grammar&#39;</text>
</g>
<!-- nt8 -->
<g id="node9" class="node">
<title>nt8</title>
<ellipse fill="none" stroke="black" cx="201.74" cy="-54" rx="53.89" ry="18"/>
<text text-anchor="middle" x="201.74" y="-50.3" font-family="Times,serif" font-size="14.00">grammar</text>
</g>
<!-- nt0&#45;&gt;nt8 -->
<g id="edge1" class="edge">
<title>nt0&#45;&gt;nt8</title>
<path fill="none" stroke="black" d="M112.1,-54C120.32,-54 128.85,-54 137.23,-54"/>
<polygon fill="black" stroke="black" points="137.34,-57.5 147.34,-54 137.34,-50.5 137.34,-57.5"/>
</g>
<!-- nt1 -->
<g id="node2" class="node">
<title>nt1</title>
<ellipse fill="none" stroke="black" cx="1373.46" cy="-78" rx="33.29" ry="18"/>
<text text-anchor="middle" x="1373.46" y="-74.3" font-family="Times,serif" font-size="14.00">term</text>
</g>
<!-- nt2 -->
<g id="node3" class="node">
<title>nt2</title>
<ellipse fill="none" stroke="black" cx="1486.8" cy="-101" rx="44.39" ry="18"/>
<text text-anchor="middle" x="1486.8" y="-97.3" font-family="Times,serif" font-size="14.00">symbol</text>
</g>
<!-- nt1&#45;&gt;nt2 -->
<g id="edge2" class="edge">
<title>nt1&#45;&gt;nt2</title>
<path fill="none" stroke="black" d="M1404.59,-84.22C1414.55,-86.28 1425.9,-88.63 1436.9,-90.9"/>
<polygon fill="black" stroke="black" points="1436.34,-94.36 1446.85,-92.95 1437.76,-87.5 1436.34,-94.36"/>
</g>
<!-- nt4 -->
<g id="node5" class="node">
<title>nt4</title>
<ellipse fill="none" stroke="black" cx="720.85" cy="-78" rx="27" ry="18"/>
<text text-anchor="middle" x="720.85" y="-74.3" font-family="Times,serif" font-size="14.00">rhs</text>
</g>
<!-- nt1&#45;&gt;nt4 -->
<g id="edge3" class="edge">
<title>nt1&#45;&gt;nt4</title>
<path fill="none" stroke="black" d="M1340.2,-78C1230.72,-78 873.75,-78 758.26,-78"/>
<polygon fill="black" stroke="black" points="758.16,-74.5 748.16,-78 758.16,-81.5 758.16,-74.5"/>
</g>
<!-- nt3 -->
<g id="node4" class="node">
<title>nt3</title>
<ellipse fill="none" stroke="black" cx="326.13" cy="-54" rx="34.39" ry="18"/>
<text text-anchor="middle" x="326.13" y="-50.3" font-family="Times,serif" font-size="14.00">rules</text>
</g>
<!-- nt5 -->
<g id="node6" class="node">
<title>nt5</title>
<ellipse fill="none" stroke="black" cx="527.21" cy="-90" rx="48.19" ry="18"/>
<text text-anchor="middle" x="527.21" y="-86.3" font-family="Times,serif" font-size="14.00">old_rule</text>
</g>
<!-- nt3&#45;&gt;nt5 -->
<g id="edge4" class="edge">
<title>nt3&#45;&gt;nt5</title>
<path fill="none" stroke="black" d="M359.11,-59.78C389.96,-65.36 437.19,-73.9 473.58,-80.48"/>
<polygon fill="black" stroke="black" points="473.07,-83.95 483.53,-82.28 474.31,-77.06 473.07,-83.95"/>
</g>
<!-- nt7 -->
<g id="node8" class="node">
<title>nt7</title>
<ellipse fill="none" stroke="black" cx="527.21" cy="-18" rx="130.78" ry="18"/>
<text text-anchor="middle" x="527.21" y="-14.3" font-family="Times,serif" font-size="14.00">nonempty_list(NEWLINE)</text>
</g>
<!-- nt3&#45;&gt;nt7 -->
<g id="edge5" class="edge">
<title>nt3&#45;&gt;nt7</title>
<path fill="none" stroke="black" d="M359.11,-48.22C380.26,-44.39 409.1,-39.18 436.88,-34.15"/>
<polygon fill="black" stroke="black" points="437.83,-37.54 447.05,-32.32 436.58,-30.65 437.83,-37.54"/>
</g>
<!-- nt10 -->
<g id="node11" class="node">
<title>nt10</title>
<ellipse fill="none" stroke="black" cx="859.24" cy="-27" rx="75.29" ry="18"/>
<text text-anchor="middle" x="859.24" y="-23.3" font-family="Times,serif" font-size="14.00">concatenation</text>
</g>
<!-- nt4&#45;&gt;nt10 -->
<g id="edge6" class="edge">
<title>nt4&#45;&gt;nt10</title>
<path fill="none" stroke="black" d="M744.68,-69.46C762.05,-62.97 786.62,-53.78 808.46,-45.62"/>
<polygon fill="black" stroke="black" points="809.8,-48.85 817.94,-42.07 807.35,-42.29 809.8,-48.85"/>
</g>
<!-- nt5&#45;&gt;nt2 -->
<g id="edge7" class="edge">
<title>nt5&#45;&gt;nt2</title>
<path fill="none" stroke="black" d="M571.31,-97.29C634.19,-107.28 754.85,-124 858.24,-124 858.24,-124 858.24,-124 1266.96,-124 1325.09,-124 1391.42,-115.88 1435.68,-109.28"/>
<polygon fill="black" stroke="black" points="1436.24,-112.74 1445.6,-107.78 1435.19,-105.82 1436.24,-112.74"/>
</g>
<!-- nt5&#45;&gt;nt4 -->
<g id="edge8" class="edge">
<title>nt5&#45;&gt;nt4</title>
<path fill="none" stroke="black" d="M575.09,-87.06C608.5,-84.97 652.75,-82.2 683.49,-80.28"/>
<polygon fill="black" stroke="black" points="684,-83.75 693.77,-79.63 683.57,-76.77 684,-83.75"/>
</g>
<!-- nt6 -->
<g id="node7" class="node">
<title>nt6</title>
<ellipse fill="none" stroke="black" cx="1081.13" cy="-18" rx="110.48" ry="18"/>
<text text-anchor="middle" x="1081.13" y="-14.3" font-family="Times,serif" font-size="14.00">nonempty_list(factor)</text>
</g>
<!-- nt6&#45;&gt;nt6 -->
<g id="edge9" class="edge">
<title>nt6&#45;&gt;nt6</title>
<path fill="none" stroke="black" d="M1048.28,-35.41C1042.15,-45.09 1053.1,-54 1081.13,-54 1098.65,-54 1109.49,-50.52 1113.67,-45.54"/>
<polygon fill="black" stroke="black" points="1117.17,-45.51 1113.98,-35.41 1110.17,-45.3 1117.17,-45.51"/>
</g>
<!-- nt9 -->
<g id="node10" class="node">
<title>nt9</title>
<ellipse fill="none" stroke="black" cx="1265.96" cy="-27" rx="38.19" ry="18"/>
<text text-anchor="middle" x="1265.96" y="-23.3" font-family="Times,serif" font-size="14.00">factor</text>
</g>
<!-- nt6&#45;&gt;nt9 -->
<g id="edge10" class="edge">
<title>nt6&#45;&gt;nt9</title>
<path fill="none" stroke="black" d="M1187.16,-23.17C1197.8,-23.69 1208.18,-24.2 1217.72,-24.67"/>
<polygon fill="black" stroke="black" points="1217.56,-28.17 1227.72,-25.17 1217.9,-21.18 1217.56,-28.17"/>
</g>
<!-- nt7&#45;&gt;nt7 -->
<g id="edge11" class="edge">
<title>nt7&#45;&gt;nt7</title>
<path fill="none" stroke="black" d="M492.94,-35.41C486.54,-45.09 497.96,-54 527.21,-54 545.49,-54 556.81,-50.52 561.17,-45.54"/>
<polygon fill="black" stroke="black" points="564.67,-45.52 561.49,-35.41 557.67,-45.29 564.67,-45.52"/>
</g>
<!-- nt8&#45;&gt;nt3 -->
<g id="edge12" class="edge">
<title>nt8&#45;&gt;nt3</title>
<path fill="none" stroke="black" d="M255.71,-54C264.25,-54 273,-54 281.3,-54"/>
<polygon fill="black" stroke="black" points="281.5,-57.5 291.5,-54 281.5,-50.5 281.5,-57.5"/>
</g>
<!-- nt9&#45;&gt;nt1 -->
<g id="edge13" class="edge">
<title>nt9&#45;&gt;nt1</title>
<path fill="none" stroke="black" d="M1293.31,-39.74C1307.13,-46.42 1324.2,-54.67 1338.95,-61.8"/>
<polygon fill="black" stroke="black" points="1337.72,-65.1 1348.25,-66.3 1340.77,-58.79 1337.72,-65.1"/>
</g>
<!-- nt10&#45;&gt;nt6 -->
<g id="edge14" class="edge">
<title>nt10&#45;&gt;nt6</title>
<path fill="none" stroke="black" d="M933.77,-23.99C943.41,-23.6 953.48,-23.18 963.62,-22.77"/>
<polygon fill="black" stroke="black" points="963.92,-26.26 973.77,-22.35 963.64,-19.27 963.92,-26.26"/>
</g>
</g>
</svg>
