<?xml version="1.0" encoding="UTF-8" standalone="no"?>
<!DOCTYPE svg PUBLIC "-//W3C//DTD SVG 1.1//EN"
 "http://www.w3.org/Graphics/SVG/1.1/DTD/svg11.dtd">
<!-- Generated by graphviz version 2.43.0 (0)
 -->
<!-- Title: G Pages: 1 -->
<svg width="2550pt" height="174pt"
 viewBox="0.00 0.00 612.00 41.68" xmlns="http://www.w3.org/2000/svg" xmlns:xlink="http://www.w3.org/1999/xlink">
<g id="graph0" class="graph" transform="scale(0.9 0.9) rotate(0) translate(4 152)">
<title>G</title>
<polygon fill="white" stroke="transparent" points="-4,4 -4,-152 2286.84,-152 2286.84,4 -4,4"/>
<!-- nt0 -->
<g id="node1" class="node">
<title>nt0</title>
<ellipse fill="none" stroke="black" cx="55.9" cy="-45" rx="55.79" ry="18"/>
<text text-anchor="middle" x="55.9" y="-41.3" font-family="Times,serif" font-size="14.00">grammar&#39;</text>
</g>
<!-- nt8 -->
<g id="node9" class="node">
<title>nt8</title>
<ellipse fill="none" stroke="black" cx="201.74" cy="-45" rx="53.89" ry="18"/>
<text text-anchor="middle" x="201.74" y="-41.3" font-family="Times,serif" font-size="14.00">grammar</text>
</g>
<!-- nt0&#45;&gt;nt8 -->
<g id="edge1" class="edge">
<title>nt0&#45;&gt;nt8</title>
<path fill="none" stroke="black" d="M112.1,-45C120.32,-45 128.85,-45 137.23,-45"/>
<polygon fill="black" stroke="black" points="137.34,-48.5 147.34,-45 137.34,-41.5 137.34,-48.5"/>
</g>
<!-- nt1 -->
<g id="node2" class="node">
<title>nt1</title>
<ellipse fill="none" stroke="black" cx="1932.01" cy="-112" rx="33.29" ry="18"/>
<text text-anchor="middle" x="1932.01" y="-108.3" font-family="Times,serif" font-size="14.00">term</text>
</g>
<!-- nt4 -->
<g id="node5" class="node">
<title>nt4</title>
<ellipse fill="none" stroke="black" cx="1376.9" cy="-108" rx="27" ry="18"/>
<text text-anchor="middle" x="1376.9" y="-104.3" font-family="Times,serif" font-size="14.00">rhs</text>
</g>
<!-- nt1&#45;&gt;nt4 -->
<g id="edge2" class="edge">
<title>nt1&#45;&gt;nt4</title>
<path fill="none" stroke="black" d="M1899.3,-115.24C1821.03,-122.66 1612.51,-138.9 1439.9,-121 1430.93,-120.07 1421.36,-118.4 1412.48,-116.57"/>
<polygon fill="black" stroke="black" points="1412.97,-113.09 1402.45,-114.37 1411.47,-119.93 1412.97,-113.09"/>
</g>
<!-- nt12 -->
<g id="node13" class="node">
<title>nt12</title>
<ellipse fill="none" stroke="black" cx="2059.65" cy="-112" rx="58.49" ry="18"/>
<text text-anchor="middle" x="2059.65" y="-108.3" font-family="Times,serif" font-size="14.00">char_class</text>
</g>
<!-- nt1&#45;&gt;nt12 -->
<g id="edge3" class="edge">
<title>nt1&#45;&gt;nt12</title>
<path fill="none" stroke="black" d="M1965.37,-112C1973.29,-112 1982.07,-112 1990.98,-112"/>
<polygon fill="black" stroke="black" points="1991.05,-115.5 2001.05,-112 1991.05,-108.5 1991.05,-115.5"/>
</g>
<!-- nt2 -->
<g id="node3" class="node">
<title>nt2</title>
<ellipse fill="none" stroke="black" cx="722.85" cy="-72" rx="293.55" ry="18"/>
<text text-anchor="middle" x="722.85" y="-68.3" font-family="Times,serif" font-size="14.00">separated_nonempty_list(nonempty_list(NEWLINE),old_rule)</text>
</g>
<!-- nt2&#45;&gt;nt2 -->
<g id="edge4" class="edge">
<title>nt2&#45;&gt;nt2</title>
<path fill="none" stroke="black" d="M654.54,-89.78C642.93,-99.31 665.7,-108 722.85,-108 758.56,-108 780.85,-104.61 789.71,-99.74"/>
<polygon fill="black" stroke="black" points="793.18,-100.18 791.16,-89.78 786.26,-99.18 793.18,-100.18"/>
</g>
<!-- nt6 -->
<g id="node7" class="node">
<title>nt6</title>
<ellipse fill="none" stroke="black" cx="1183.26" cy="-108" rx="48.19" ry="18"/>
<text text-anchor="middle" x="1183.26" y="-104.3" font-family="Times,serif" font-size="14.00">old_rule</text>
</g>
<!-- nt2&#45;&gt;nt6 -->
<g id="edge5" class="edge">
<title>nt2&#45;&gt;nt6</title>
<path fill="none" stroke="black" d="M904.36,-86.18C983.22,-92.37 1070.13,-99.19 1125.4,-103.53"/>
<polygon fill="black" stroke="black" points="1125.44,-107.05 1135.68,-104.34 1125.98,-100.07 1125.44,-107.05"/>
</g>
<!-- nt7 -->
<g id="node8" class="node">
<title>nt7</title>
<ellipse fill="none" stroke="black" cx="1183.26" cy="-36" rx="130.78" ry="18"/>
<text text-anchor="middle" x="1183.26" y="-32.3" font-family="Times,serif" font-size="14.00">nonempty_list(NEWLINE)</text>
</g>
<!-- nt2&#45;&gt;nt7 -->
<g id="edge6" class="edge">
<title>nt2&#45;&gt;nt7</title>
<path fill="none" stroke="black" d="M904.36,-57.82C956.29,-53.75 1011.72,-49.39 1059.3,-45.66"/>
<polygon fill="black" stroke="black" points="1059.63,-49.14 1069.33,-44.87 1059.08,-42.16 1059.63,-49.14"/>
</g>
<!-- nt3 -->
<g id="node4" class="node">
<title>nt3</title>
<ellipse fill="none" stroke="black" cx="342.38" cy="-72" rx="34.39" ry="18"/>
<text text-anchor="middle" x="342.38" y="-68.3" font-family="Times,serif" font-size="14.00">rules</text>
</g>
<!-- nt3&#45;&gt;nt2 -->
<g id="edge7" class="edge">
<title>nt3&#45;&gt;nt2</title>
<path fill="none" stroke="black" d="M376.96,-72C388.65,-72 402.87,-72 418.81,-72"/>
<polygon fill="black" stroke="black" points="418.95,-75.5 428.95,-72 418.95,-68.5 418.95,-75.5"/>
</g>
<!-- nt13 -->
<g id="node14" class="node">
<title>nt13</title>
<ellipse fill="none" stroke="black" cx="1501.64" cy="-76" rx="61.99" ry="18"/>
<text text-anchor="middle" x="1501.64" y="-72.3" font-family="Times,serif" font-size="14.00">alternation</text>
</g>
<!-- nt4&#45;&gt;nt13 -->
<g id="edge8" class="edge">
<title>nt4&#45;&gt;nt13</title>
<path fill="none" stroke="black" d="M1402.44,-101.6C1414.72,-98.4 1430.13,-94.38 1445.07,-90.49"/>
<polygon fill="black" stroke="black" points="1445.99,-93.87 1454.78,-87.96 1444.22,-87.09 1445.99,-93.87"/>
</g>
<!-- nt5 -->
<g id="node6" class="node">
<title>nt5</title>
<ellipse fill="none" stroke="black" cx="342.38" cy="-18" rx="50.89" ry="18"/>
<text text-anchor="middle" x="342.38" y="-14.3" font-family="Times,serif" font-size="14.00">postlude</text>
</g>
<!-- nt6&#45;&gt;nt4 -->
<g id="edge9" class="edge">
<title>nt6&#45;&gt;nt4</title>
<path fill="none" stroke="black" d="M1231.63,-108C1264.94,-108 1308.86,-108 1339.45,-108"/>
<polygon fill="black" stroke="black" points="1339.68,-111.5 1349.68,-108 1339.68,-104.5 1339.68,-111.5"/>
</g>
<!-- nt7&#45;&gt;nt7 -->
<g id="edge10" class="edge">
<title>nt7&#45;&gt;nt7</title>
<path fill="none" stroke="black" d="M1148.98,-53.41C1142.58,-63.09 1154.01,-72 1183.26,-72 1201.54,-72 1212.86,-68.52 1217.21,-63.54"/>
<polygon fill="black" stroke="black" points="1220.72,-63.52 1217.54,-53.41 1213.72,-63.29 1220.72,-63.52"/>
</g>
<!-- nt8&#45;&gt;nt3 -->
<g id="edge11" class="edge">
<title>nt8&#45;&gt;nt3</title>
<path fill="none" stroke="black" d="M248.9,-53.99C265.31,-57.19 283.68,-60.76 299.7,-63.88"/>
<polygon fill="black" stroke="black" points="299.35,-67.38 309.84,-65.86 300.69,-60.51 299.35,-67.38"/>
</g>
<!-- nt8&#45;&gt;nt5 -->
<g id="edge12" class="edge">
<title>nt8&#45;&gt;nt5</title>
<path fill="none" stroke="black" d="M248.9,-36.01C261.21,-33.61 274.61,-31 287.3,-28.53"/>
<polygon fill="black" stroke="black" points="288.15,-31.93 297.29,-26.59 286.81,-25.06 288.15,-31.93"/>
</g>
<!-- nt9 -->
<g id="node10" class="node">
<title>nt9</title>
<ellipse fill="none" stroke="black" cx="1824.52" cy="-85" rx="38.19" ry="18"/>
<text text-anchor="middle" x="1824.52" y="-81.3" font-family="Times,serif" font-size="14.00">factor</text>
</g>
<!-- nt9&#45;&gt;nt1 -->
<g id="edge13" class="edge">
<title>nt9&#45;&gt;nt1</title>
<path fill="none" stroke="black" d="M1858.61,-93.47C1869.16,-96.17 1880.93,-99.18 1891.86,-101.98"/>
<polygon fill="black" stroke="black" points="1891.06,-105.39 1901.61,-104.48 1892.79,-98.6 1891.06,-105.39"/>
</g>
<!-- nt10 -->
<g id="node11" class="node">
<title>nt10</title>
<ellipse fill="none" stroke="black" cx="1674.78" cy="-76" rx="75.29" ry="18"/>
<text text-anchor="middle" x="1674.78" y="-72.3" font-family="Times,serif" font-size="14.00">concatenation</text>
</g>
<!-- nt10&#45;&gt;nt9 -->
<g id="edge14" class="edge">
<title>nt10&#45;&gt;nt9</title>
<path fill="none" stroke="black" d="M1747.92,-80.39C1757.5,-80.98 1767.12,-81.56 1776.13,-82.11"/>
<polygon fill="black" stroke="black" points="1776.2,-85.62 1786.4,-82.74 1776.63,-78.64 1776.2,-85.62"/>
</g>
<!-- nt10&#45;&gt;nt10 -->
<g id="edge15" class="edge">
<title>nt10&#45;&gt;nt10</title>
<path fill="none" stroke="black" d="M1648.55,-93.04C1643.2,-102.86 1651.94,-112 1674.78,-112 1689.05,-112 1697.82,-108.43 1701.08,-103.35"/>
<polygon fill="black" stroke="black" points="1704.58,-103.01 1701,-93.04 1697.58,-103.06 1704.58,-103.01"/>
</g>
<!-- nt11 -->
<g id="node12" class="node">
<title>nt11</title>
<ellipse fill="none" stroke="black" cx="2218.49" cy="-112" rx="64.19" ry="18"/>
<text text-anchor="middle" x="2218.49" y="-108.3" font-family="Times,serif" font-size="14.00">char_class1</text>
</g>
<!-- nt11&#45;&gt;nt11 -->
<g id="edge16" class="edge">
<title>nt11&#45;&gt;nt11</title>
<path fill="none" stroke="black" d="M2190.96,-128.29C2184.32,-138.39 2193.5,-148 2218.49,-148 2234.51,-148 2244.03,-144.06 2247.06,-138.57"/>
<polygon fill="black" stroke="black" points="2250.51,-137.89 2246.03,-128.29 2243.54,-138.59 2250.51,-137.89"/>
</g>
<!-- nt12&#45;&gt;nt11 -->
<g id="edge17" class="edge">
<title>nt12&#45;&gt;nt11</title>
<path fill="none" stroke="black" d="M2118.16,-112C2126.52,-112 2135.22,-112 2143.84,-112"/>
<polygon fill="black" stroke="black" points="2143.9,-115.5 2153.9,-112 2143.9,-108.5 2143.9,-115.5"/>
</g>
<!-- nt13&#45;&gt;nt10 -->
<g id="edge18" class="edge">
<title>nt13&#45;&gt;nt10</title>
<path fill="none" stroke="black" d="M1563.46,-76C1571.81,-76 1580.51,-76 1589.2,-76"/>
<polygon fill="black" stroke="black" points="1589.37,-79.5 1599.37,-76 1589.37,-72.5 1589.37,-79.5"/>
</g>
<!-- nt13&#45;&gt;nt13 -->
<g id="edge19" class="edge">
<title>nt13&#45;&gt;nt13</title>
<path fill="none" stroke="black" d="M1479.67,-93.04C1475.18,-102.86 1482.51,-112 1501.64,-112 1513.6,-112 1520.94,-108.43 1523.68,-103.35"/>
<polygon fill="black" stroke="black" points="1527.17,-103.02 1523.61,-93.04 1520.17,-103.06 1527.17,-103.02"/>
</g>
</g>
</svg>
