<?xml version="1.0" encoding="UTF-8" standalone="no"?>
<!DOCTYPE svg PUBLIC "-//W3C//DTD SVG 1.1//EN"
 "http://www.w3.org/Graphics/SVG/1.1/DTD/svg11.dtd">
<!-- Generated by graphviz version 2.43.0 (0)
 -->
<!-- Title: G Pages: 1 -->
<svg width="2550pt" height="208pt"
 viewBox="0.00 0.00 612.00 49.80" xmlns="http://www.w3.org/2000/svg" xmlns:xlink="http://www.w3.org/1999/xlink">
<g id="graph0" class="graph" transform="scale(1.26 1.26) rotate(0) translate(4 258)">
<title>G</title>
<polygon fill="white" stroke="transparent" points="-4,4 -4,-258 3215.57,-258 3215.57,4 -4,4"/>
<!-- nt0 -->
<g id="node1" class="node">
<title>nt0</title>
<ellipse fill="none" stroke="black" cx="55.9" cy="-54" rx="55.79" ry="18"/>
<text text-anchor="middle" x="55.9" y="-50.3" font-family="Times,serif" font-size="14.00">grammar&#39;</text>
</g>
<!-- nt11 -->
<g id="node12" class="node">
<title>nt11</title>
<ellipse fill="none" stroke="black" cx="201.74" cy="-54" rx="53.89" ry="18"/>
<text text-anchor="middle" x="201.74" y="-50.3" font-family="Times,serif" font-size="14.00">grammar</text>
</g>
<!-- nt0&#45;&gt;nt11 -->
<g id="edge1" class="edge">
<title>nt0&#45;&gt;nt11</title>
<path fill="none" stroke="black" d="M112.1,-54C120.32,-54 128.85,-54 137.23,-54"/>
<polygon fill="black" stroke="black" points="137.34,-57.5 147.34,-54 137.34,-50.5 137.34,-57.5"/>
</g>
<!-- nt1 -->
<g id="node2" class="node">
<title>nt1</title>
<ellipse fill="none" stroke="black" cx="2720.75" cy="-59" rx="60.39" ry="18"/>
<text text-anchor="middle" x="2720.75" y="-55.3" font-family="Times,serif" font-size="14.00">termfactor</text>
</g>
<!-- nt2 -->
<g id="node3" class="node">
<title>nt2</title>
<ellipse fill="none" stroke="black" cx="2857.5" cy="-46" rx="33.29" ry="18"/>
<text text-anchor="middle" x="2857.5" y="-42.3" font-family="Times,serif" font-size="14.00">term</text>
</g>
<!-- nt1&#45;&gt;nt2 -->
<g id="edge2" class="edge">
<title>nt1&#45;&gt;nt2</title>
<path fill="none" stroke="black" d="M2778.51,-53.52C2790.62,-52.36 2803.21,-51.14 2814.64,-50.04"/>
<polygon fill="black" stroke="black" points="2815.15,-53.51 2824.77,-49.06 2814.48,-46.54 2815.15,-53.51"/>
</g>
<!-- nt19 -->
<g id="node20" class="node">
<title>nt19</title>
<ellipse fill="none" stroke="black" cx="3010.49" cy="-46" rx="76.89" ry="18"/>
<text text-anchor="middle" x="3010.49" y="-42.3" font-family="Times,serif" font-size="14.00">complexterms</text>
</g>
<!-- nt2&#45;&gt;nt19 -->
<g id="edge3" class="edge">
<title>nt2&#45;&gt;nt19</title>
<path fill="none" stroke="black" d="M2890.89,-46C2900.67,-46 2911.91,-46 2923.48,-46"/>
<polygon fill="black" stroke="black" points="2923.71,-49.5 2933.71,-46 2923.71,-42.5 2923.71,-49.5"/>
</g>
<!-- nt3 -->
<g id="node4" class="node">
<title>nt3</title>
<ellipse fill="none" stroke="black" cx="690.35" cy="-54" rx="293.55" ry="18"/>
<text text-anchor="middle" x="690.35" y="-50.3" font-family="Times,serif" font-size="14.00">separated_nonempty_list(nonempty_list(NEWLINE),old_rule)</text>
</g>
<!-- nt3&#45;&gt;nt3 -->
<g id="edge4" class="edge">
<title>nt3&#45;&gt;nt3</title>
<path fill="none" stroke="black" d="M624.91,-71.78C613.79,-81.31 635.61,-90 690.35,-90 724.56,-90 745.91,-86.61 754.4,-81.74"/>
<polygon fill="black" stroke="black" points="757.87,-82.17 755.78,-71.78 750.94,-81.2 757.87,-82.17"/>
</g>
<!-- nt6 -->
<g id="node7" class="node">
<title>nt6</title>
<ellipse fill="none" stroke="black" cx="1150.76" cy="-90" rx="48.19" ry="18"/>
<text text-anchor="middle" x="1150.76" y="-86.3" font-family="Times,serif" font-size="14.00">old_rule</text>
</g>
<!-- nt3&#45;&gt;nt6 -->
<g id="edge5" class="edge">
<title>nt3&#45;&gt;nt6</title>
<path fill="none" stroke="black" d="M871.87,-68.18C950.72,-74.37 1037.63,-81.19 1092.9,-85.53"/>
<polygon fill="black" stroke="black" points="1092.94,-89.05 1103.18,-86.34 1093.49,-82.07 1092.94,-89.05"/>
</g>
<!-- nt8 -->
<g id="node9" class="node">
<title>nt8</title>
<ellipse fill="none" stroke="black" cx="1150.76" cy="-18" rx="130.78" ry="18"/>
<text text-anchor="middle" x="1150.76" y="-14.3" font-family="Times,serif" font-size="14.00">nonempty_list(NEWLINE)</text>
</g>
<!-- nt3&#45;&gt;nt8 -->
<g id="edge6" class="edge">
<title>nt3&#45;&gt;nt8</title>
<path fill="none" stroke="black" d="M871.87,-39.82C923.8,-35.75 979.22,-31.39 1026.8,-27.66"/>
<polygon fill="black" stroke="black" points="1027.13,-31.14 1036.83,-26.87 1026.59,-24.16 1027.13,-31.14"/>
</g>
<!-- nt4 -->
<g id="node5" class="node">
<title>nt4</title>
<ellipse fill="none" stroke="black" cx="326.13" cy="-54" rx="34.39" ry="18"/>
<text text-anchor="middle" x="326.13" y="-50.3" font-family="Times,serif" font-size="14.00">rules</text>
</g>
<!-- nt4&#45;&gt;nt3 -->
<g id="edge7" class="edge">
<title>nt4&#45;&gt;nt3</title>
<path fill="none" stroke="black" d="M360.88,-54C368.37,-54 376.9,-54 386.24,-54"/>
<polygon fill="black" stroke="black" points="386.25,-57.5 396.25,-54 386.25,-50.5 386.25,-57.5"/>
</g>
<!-- nt5 -->
<g id="node6" class="node">
<title>nt5</title>
<ellipse fill="none" stroke="black" cx="1344.4" cy="-90" rx="27" ry="18"/>
<text text-anchor="middle" x="1344.4" y="-86.3" font-family="Times,serif" font-size="14.00">rhs</text>
</g>
<!-- nt22 -->
<g id="node23" class="node">
<title>nt22</title>
<ellipse fill="none" stroke="black" cx="1469.14" cy="-90" rx="61.99" ry="18"/>
<text text-anchor="middle" x="1469.14" y="-86.3" font-family="Times,serif" font-size="14.00">alternation</text>
</g>
<!-- nt5&#45;&gt;nt22 -->
<g id="edge8" class="edge">
<title>nt5&#45;&gt;nt22</title>
<path fill="none" stroke="black" d="M1371.43,-90C1379.18,-90 1388.08,-90 1397.26,-90"/>
<polygon fill="black" stroke="black" points="1397.3,-93.5 1407.3,-90 1397.3,-86.5 1397.3,-93.5"/>
</g>
<!-- nt6&#45;&gt;nt5 -->
<g id="edge9" class="edge">
<title>nt6&#45;&gt;nt5</title>
<path fill="none" stroke="black" d="M1199.13,-90C1232.45,-90 1276.36,-90 1306.95,-90"/>
<polygon fill="black" stroke="black" points="1307.18,-93.5 1317.18,-90 1307.18,-86.5 1307.18,-93.5"/>
</g>
<!-- nt7 -->
<g id="node8" class="node">
<title>nt7</title>
<ellipse fill="none" stroke="black" cx="1706.63" cy="-90" rx="139.98" ry="18"/>
<text text-anchor="middle" x="1706.63" y="-86.3" font-family="Times,serif" font-size="14.00">nonempty_list(alternation1)</text>
</g>
<!-- nt7&#45;&gt;nt7 -->
<g id="edge10" class="edge">
<title>nt7&#45;&gt;nt7</title>
<path fill="none" stroke="black" d="M1664.49,-107.41C1656.63,-117.09 1670.67,-126 1706.63,-126 1729.1,-126 1743.01,-122.52 1748.36,-117.54"/>
<polygon fill="black" stroke="black" points="1751.87,-117.54 1748.76,-107.41 1744.87,-117.27 1751.87,-117.54"/>
</g>
<!-- nt21 -->
<g id="node22" class="node">
<title>nt21</title>
<ellipse fill="none" stroke="black" cx="1949.96" cy="-90" rx="67.69" ry="18"/>
<text text-anchor="middle" x="1949.96" y="-86.3" font-family="Times,serif" font-size="14.00">alternation1</text>
</g>
<!-- nt7&#45;&gt;nt21 -->
<g id="edge11" class="edge">
<title>nt7&#45;&gt;nt21</title>
<path fill="none" stroke="black" d="M1846.61,-90C1855.23,-90 1863.72,-90 1871.91,-90"/>
<polygon fill="black" stroke="black" points="1872.09,-93.5 1882.09,-90 1872.09,-86.5 1872.09,-93.5"/>
</g>
<!-- nt8&#45;&gt;nt8 -->
<g id="edge12" class="edge">
<title>nt8&#45;&gt;nt8</title>
<path fill="none" stroke="black" d="M1116.48,-35.41C1110.08,-45.09 1121.51,-54 1150.76,-54 1169.04,-54 1180.36,-50.52 1184.72,-45.54"/>
<polygon fill="black" stroke="black" points="1188.22,-45.52 1185.04,-35.41 1181.22,-45.29 1188.22,-45.52"/>
</g>
<!-- nt9 -->
<g id="node10" class="node">
<title>nt9</title>
<ellipse fill="none" stroke="black" cx="2720.75" cy="-127" rx="49.29" ry="18"/>
<text text-anchor="middle" x="2720.75" y="-123.3" font-family="Times,serif" font-size="14.00">modifier</text>
</g>
<!-- nt12 -->
<g id="node13" class="node">
<title>nt12</title>
<ellipse fill="none" stroke="black" cx="2857.5" cy="-208" rx="32.49" ry="18"/>
<text text-anchor="middle" x="2857.5" y="-204.3" font-family="Times,serif" font-size="14.00">fstar</text>
</g>
<!-- nt9&#45;&gt;nt12 -->
<g id="edge13" class="edge">
<title>nt9&#45;&gt;nt12</title>
<path fill="none" stroke="black" d="M2747.1,-142.24C2769.54,-155.73 2802.34,-175.45 2826.17,-189.77"/>
<polygon fill="black" stroke="black" points="2824.45,-192.82 2834.82,-194.97 2828.06,-186.82 2824.45,-192.82"/>
</g>
<!-- nt13 -->
<g id="node14" class="node">
<title>nt13</title>
<ellipse fill="none" stroke="black" cx="2857.5" cy="-154" rx="40.09" ry="18"/>
<text text-anchor="middle" x="2857.5" y="-150.3" font-family="Times,serif" font-size="14.00">fquest</text>
</g>
<!-- nt9&#45;&gt;nt13 -->
<g id="edge14" class="edge">
<title>nt9&#45;&gt;nt13</title>
<path fill="none" stroke="black" d="M2764.39,-135.54C2779.05,-138.48 2795.52,-141.78 2810.44,-144.77"/>
<polygon fill="black" stroke="black" points="2809.98,-148.25 2820.48,-146.78 2811.36,-141.39 2809.98,-148.25"/>
</g>
<!-- nt14 -->
<g id="node15" class="node">
<title>nt14</title>
<ellipse fill="none" stroke="black" cx="2857.5" cy="-100" rx="33.6" ry="18"/>
<text text-anchor="middle" x="2857.5" y="-96.3" font-family="Times,serif" font-size="14.00">fplus</text>
</g>
<!-- nt9&#45;&gt;nt14 -->
<g id="edge15" class="edge">
<title>nt9&#45;&gt;nt14</title>
<path fill="none" stroke="black" d="M2764.39,-118.46C2780.71,-115.19 2799.27,-111.47 2815.44,-108.23"/>
<polygon fill="black" stroke="black" points="2816.55,-111.57 2825.67,-106.18 2815.18,-104.71 2816.55,-111.57"/>
</g>
<!-- nt10 -->
<g id="node11" class="node">
<title>nt10</title>
<ellipse fill="none" stroke="black" cx="3167.37" cy="-166" rx="44.39" ry="18"/>
<text text-anchor="middle" x="3167.37" y="-162.3" font-family="Times,serif" font-size="14.00">group1</text>
</g>
<!-- nt10&#45;&gt;nt5 -->
<g id="edge16" class="edge">
<title>nt10&#45;&gt;nt5</title>
<path fill="none" stroke="black" d="M3138.28,-179.75C3085.05,-204.5 2965.23,-254 2858.5,-254 1705.63,-254 1705.63,-254 1705.63,-254 1568.37,-254 1426,-154.16 1370.05,-110.28"/>
<polygon fill="black" stroke="black" points="1372.14,-107.46 1362.13,-103.98 1367.79,-112.94 1372.14,-107.46"/>
</g>
<!-- nt11&#45;&gt;nt4 -->
<g id="edge17" class="edge">
<title>nt11&#45;&gt;nt4</title>
<path fill="none" stroke="black" d="M255.71,-54C264.25,-54 273,-54 281.3,-54"/>
<polygon fill="black" stroke="black" points="281.5,-57.5 291.5,-54 281.5,-50.5 281.5,-57.5"/>
</g>
<!-- nt15 -->
<g id="node16" class="node">
<title>nt15</title>
<ellipse fill="none" stroke="black" cx="2432.32" cy="-66" rx="79.09" ry="18"/>
<text text-anchor="middle" x="2432.32" y="-62.3" font-family="Times,serif" font-size="14.00">fconcatenation</text>
</g>
<!-- nt16 -->
<g id="node17" class="node">
<title>nt16</title>
<ellipse fill="none" stroke="black" cx="2585.96" cy="-93" rx="38.19" ry="18"/>
<text text-anchor="middle" x="2585.96" y="-89.3" font-family="Times,serif" font-size="14.00">factor</text>
</g>
<!-- nt15&#45;&gt;nt16 -->
<g id="edge18" class="edge">
<title>nt15&#45;&gt;nt16</title>
<path fill="none" stroke="black" d="M2495.44,-77.06C2510.17,-79.68 2525.61,-82.43 2539.45,-84.9"/>
<polygon fill="black" stroke="black" points="2539.21,-88.41 2549.67,-86.72 2540.44,-81.52 2539.21,-88.41"/>
</g>
<!-- nt16&#45;&gt;nt1 -->
<g id="edge19" class="edge">
<title>nt16&#45;&gt;nt1</title>
<path fill="none" stroke="black" d="M2620.13,-84.51C2633.55,-81.07 2649.42,-77.01 2664.49,-73.15"/>
<polygon fill="black" stroke="black" points="2665.43,-76.52 2674.25,-70.65 2663.7,-69.74 2665.43,-76.52"/>
</g>
<!-- nt16&#45;&gt;nt9 -->
<g id="edge20" class="edge">
<title>nt16&#45;&gt;nt9</title>
<path fill="none" stroke="black" d="M2620.13,-101.49C2635.14,-105.34 2653.21,-109.96 2669.81,-114.21"/>
<polygon fill="black" stroke="black" points="2669.37,-117.71 2679.92,-116.8 2671.1,-110.93 2669.37,-117.71"/>
</g>
<!-- nt17 -->
<g id="node18" class="node">
<title>nt17</title>
<ellipse fill="none" stroke="black" cx="2432.32" cy="-120" rx="34.39" ry="18"/>
<text text-anchor="middle" x="2432.32" y="-116.3" font-family="Times,serif" font-size="14.00">cpair</text>
</g>
<!-- nt17&#45;&gt;nt16 -->
<g id="edge21" class="edge">
<title>nt17&#45;&gt;nt16</title>
<path fill="none" stroke="black" d="M2465.11,-114.34C2486.77,-110.48 2515.76,-105.32 2539.81,-101.04"/>
<polygon fill="black" stroke="black" points="2540.54,-104.46 2549.77,-99.27 2539.31,-97.57 2540.54,-104.46"/>
</g>
<!-- nt18 -->
<g id="node19" class="node">
<title>nt18</title>
<ellipse fill="none" stroke="black" cx="2241.64" cy="-90" rx="75.29" ry="18"/>
<text text-anchor="middle" x="2241.64" y="-86.3" font-family="Times,serif" font-size="14.00">concatenation</text>
</g>
<!-- nt18&#45;&gt;nt15 -->
<g id="edge22" class="edge">
<title>nt18&#45;&gt;nt15</title>
<path fill="none" stroke="black" d="M2308.63,-81.61C2322.88,-79.79 2338.08,-77.86 2352.75,-75.99"/>
<polygon fill="black" stroke="black" points="2353.33,-79.45 2362.81,-74.71 2352.45,-72.5 2353.33,-79.45"/>
</g>
<!-- nt18&#45;&gt;nt17 -->
<g id="edge23" class="edge">
<title>nt18&#45;&gt;nt17</title>
<path fill="none" stroke="black" d="M2304.94,-99.91C2332.56,-104.3 2364.33,-109.35 2389.11,-113.29"/>
<polygon fill="black" stroke="black" points="2388.84,-116.79 2399.26,-114.9 2389.94,-109.88 2388.84,-116.79"/>
</g>
<!-- nt19&#45;&gt;nt10 -->
<g id="edge24" class="edge">
<title>nt19&#45;&gt;nt10</title>
<path fill="none" stroke="black" d="M3033.68,-63.19C3061.05,-84.4 3107.64,-120.49 3137.7,-143.78"/>
<polygon fill="black" stroke="black" points="3135.66,-146.63 3145.71,-149.99 3139.95,-141.1 3135.66,-146.63"/>
</g>
<!-- nt20 -->
<g id="node21" class="node">
<title>nt20</title>
<ellipse fill="none" stroke="black" cx="3167.37" cy="-25" rx="39.79" ry="18"/>
<text text-anchor="middle" x="3167.37" y="-21.3" font-family="Times,serif" font-size="14.00">class1</text>
</g>
<!-- nt19&#45;&gt;nt20 -->
<g id="edge25" class="edge">
<title>nt19&#45;&gt;nt20</title>
<path fill="none" stroke="black" d="M3077.17,-37.09C3091.23,-35.19 3105.81,-33.21 3119.01,-31.42"/>
<polygon fill="black" stroke="black" points="3119.82,-34.84 3129.26,-30.03 3118.88,-27.91 3119.82,-34.84"/>
</g>
<!-- nt20&#45;&gt;nt5 -->
<g id="edge26" class="edge">
<title>nt20&#45;&gt;nt5</title>
<path fill="none" stroke="black" d="M3129.01,-20C3071.16,-12.71 2956.37,0 2858.5,0 1705.63,0 1705.63,0 1705.63,0 1570.16,0 1536.43,-21.74 1407.4,-63 1396.92,-66.35 1385.8,-70.87 1375.91,-75.25"/>
<polygon fill="black" stroke="black" points="1374.16,-72.2 1366.51,-79.54 1377.06,-78.57 1374.16,-72.2"/>
</g>
<!-- nt21&#45;&gt;nt18 -->
<g id="edge27" class="edge">
<title>nt21&#45;&gt;nt18</title>
<path fill="none" stroke="black" d="M2016.9,-87.05C2029.08,-86.61 2041.7,-86.23 2053.55,-86 2087.63,-85.34 2096.16,-85.38 2130.24,-86 2138.95,-86.16 2148.04,-86.39 2157.11,-86.65"/>
<polygon fill="black" stroke="black" points="2157.21,-90.16 2167.31,-86.97 2157.43,-83.16 2157.21,-90.16"/>
</g>
<!-- nt23 -->
<g id="node24" class="node">
<title>nt23</title>
<ellipse fill="none" stroke="black" cx="2091.9" cy="-113" rx="38.19" ry="18"/>
<text text-anchor="middle" x="2091.9" y="-109.3" font-family="Times,serif" font-size="14.00">alter2</text>
</g>
<!-- nt21&#45;&gt;nt23 -->
<g id="edge28" class="edge">
<title>nt21&#45;&gt;nt23</title>
<path fill="none" stroke="black" d="M2007.88,-99.35C2020.28,-101.39 2033.26,-103.53 2045.17,-105.48"/>
<polygon fill="black" stroke="black" points="2044.88,-108.98 2055.31,-107.15 2046.01,-102.08 2044.88,-108.98"/>
</g>
<!-- nt22&#45;&gt;nt7 -->
<g id="edge29" class="edge">
<title>nt22&#45;&gt;nt7</title>
<path fill="none" stroke="black" d="M1531.09,-90C1539.21,-90 1547.8,-90 1556.65,-90"/>
<polygon fill="black" stroke="black" points="1556.73,-93.5 1566.73,-90 1556.73,-86.5 1556.73,-93.5"/>
</g>
<!-- nt23&#45;&gt;nt18 -->
<g id="edge30" class="edge">
<title>nt23&#45;&gt;nt18</title>
<path fill="none" stroke="black" d="M2128.66,-107.43C2140.62,-105.57 2154.41,-103.42 2168.14,-101.29"/>
<polygon fill="black" stroke="black" points="2168.75,-104.73 2178.1,-99.74 2167.68,-97.82 2168.75,-104.73"/>
</g>
</g>
</svg>
