<?xml version="1.0" encoding="UTF-8" standalone="no"?>
<!DOCTYPE svg PUBLIC "-//W3C//DTD SVG 1.1//EN"
 "http://www.w3.org/Graphics/SVG/1.1/DTD/svg11.dtd">
<!-- Generated by graphviz version 2.43.0 (0)
 -->
<!-- Title: G Pages: 1 -->
<svg width="2550pt" height="196pt"
 viewBox="0.00 0.00 612.00 47.05" xmlns="http://www.w3.org/2000/svg" xmlns:xlink="http://www.w3.org/1999/xlink">
<g id="graph0" class="graph" transform="scale(0.83 0.83) rotate(0) translate(4 158)">
<title>G</title>
<polygon fill="white" stroke="transparent" points="-4,4 -4,-158 2103.25,-158 2103.25,4 -4,4"/>
<!-- nt0 -->
<g id="node1" class="node">
<title>nt0</title>
<ellipse fill="none" stroke="black" cx="55.9" cy="-54" rx="55.79" ry="18"/>
<text text-anchor="middle" x="55.9" y="-50.3" font-family="Times,serif" font-size="14.00">grammar&#39;</text>
</g>
<!-- nt10 -->
<g id="node11" class="node">
<title>nt10</title>
<ellipse fill="none" stroke="black" cx="201.74" cy="-54" rx="53.89" ry="18"/>
<text text-anchor="middle" x="201.74" y="-50.3" font-family="Times,serif" font-size="14.00">grammar</text>
</g>
<!-- nt0&#45;&gt;nt10 -->
<g id="edge1" class="edge">
<title>nt0&#45;&gt;nt10</title>
<path fill="none" stroke="black" d="M112.1,-54C120.32,-54 128.85,-54 137.23,-54"/>
<polygon fill="black" stroke="black" points="137.34,-57.5 147.34,-54 137.34,-50.5 137.34,-57.5"/>
</g>
<!-- nt1 -->
<g id="node2" class="node">
<title>nt1</title>
<ellipse fill="none" stroke="black" cx="2049.85" cy="-136" rx="44.39" ry="18"/>
<text text-anchor="middle" x="2049.85" y="-132.3" font-family="Times,serif" font-size="14.00">symbol</text>
</g>
<!-- nt2 -->
<g id="node3" class="node">
<title>nt2</title>
<ellipse fill="none" stroke="black" cx="900.53" cy="-77" rx="206.86" ry="18"/>
<text text-anchor="middle" x="900.53" y="-73.3" font-family="Times,serif" font-size="14.00">separated_nonempty_list(BAR,production)</text>
</g>
<!-- nt2&#45;&gt;nt2 -->
<g id="edge2" class="edge">
<title>nt2&#45;&gt;nt2</title>
<path fill="none" stroke="black" d="M846.62,-94.41C836.55,-104.09 854.53,-113 900.53,-113 929.29,-113 947.09,-109.52 953.94,-104.54"/>
<polygon fill="black" stroke="black" points="957.45,-104.57 954.45,-94.41 950.45,-104.22 957.45,-104.57"/>
</g>
<!-- nt4 -->
<g id="node5" class="node">
<title>nt4</title>
<ellipse fill="none" stroke="black" cx="1204.31" cy="-77" rx="61.19" ry="18"/>
<text text-anchor="middle" x="1204.31" y="-73.3" font-family="Times,serif" font-size="14.00">production</text>
</g>
<!-- nt2&#45;&gt;nt4 -->
<g id="edge3" class="edge">
<title>nt2&#45;&gt;nt4</title>
<path fill="none" stroke="black" d="M1107.41,-77C1116.26,-77 1124.81,-77 1132.93,-77"/>
<polygon fill="black" stroke="black" points="1132.96,-80.5 1142.96,-77 1132.96,-73.5 1132.96,-80.5"/>
</g>
<!-- nt3 -->
<g id="node4" class="node">
<title>nt3</title>
<ellipse fill="none" stroke="black" cx="326.13" cy="-54" rx="34.39" ry="18"/>
<text text-anchor="middle" x="326.13" y="-50.3" font-family="Times,serif" font-size="14.00">rules</text>
</g>
<!-- nt6 -->
<g id="node7" class="node">
<title>nt6</title>
<ellipse fill="none" stroke="black" cx="527.21" cy="-90" rx="48.19" ry="18"/>
<text text-anchor="middle" x="527.21" y="-86.3" font-family="Times,serif" font-size="14.00">old_rule</text>
</g>
<!-- nt3&#45;&gt;nt6 -->
<g id="edge4" class="edge">
<title>nt3&#45;&gt;nt6</title>
<path fill="none" stroke="black" d="M359.11,-59.78C389.96,-65.36 437.19,-73.9 473.58,-80.48"/>
<polygon fill="black" stroke="black" points="473.07,-83.95 483.53,-82.28 474.31,-77.06 473.07,-83.95"/>
</g>
<!-- nt8 -->
<g id="node9" class="node">
<title>nt8</title>
<ellipse fill="none" stroke="black" cx="527.21" cy="-18" rx="130.78" ry="18"/>
<text text-anchor="middle" x="527.21" y="-14.3" font-family="Times,serif" font-size="14.00">nonempty_list(NEWLINE)</text>
</g>
<!-- nt3&#45;&gt;nt8 -->
<g id="edge5" class="edge">
<title>nt3&#45;&gt;nt8</title>
<path fill="none" stroke="black" d="M359.11,-48.22C380.26,-44.39 409.1,-39.18 436.88,-34.15"/>
<polygon fill="black" stroke="black" points="437.83,-37.54 447.05,-32.32 436.58,-30.65 437.83,-37.54"/>
</g>
<!-- nt5 -->
<g id="node6" class="node">
<title>nt5</title>
<ellipse fill="none" stroke="black" cx="1639.63" cy="-77" rx="52.79" ry="18"/>
<text text-anchor="middle" x="1639.63" y="-73.3" font-family="Times,serif" font-size="14.00">producer</text>
</g>
<!-- nt4&#45;&gt;nt5 -->
<g id="edge6" class="edge">
<title>nt4&#45;&gt;nt5</title>
<path fill="none" stroke="black" d="M1265.56,-77C1347.6,-77 1493.7,-77 1576.64,-77"/>
<polygon fill="black" stroke="black" points="1576.67,-80.5 1586.67,-77 1576.67,-73.5 1576.67,-80.5"/>
</g>
<!-- nt7 -->
<g id="node8" class="node">
<title>nt7</title>
<ellipse fill="none" stroke="black" cx="1426.19" cy="-27" rx="124.58" ry="18"/>
<text text-anchor="middle" x="1426.19" y="-23.3" font-family="Times,serif" font-size="14.00">nonempty_list(producer)</text>
</g>
<!-- nt4&#45;&gt;nt7 -->
<g id="edge7" class="edge">
<title>nt4&#45;&gt;nt7</title>
<path fill="none" stroke="black" d="M1253.29,-66.09C1281.11,-59.76 1316.8,-51.65 1348.43,-44.45"/>
<polygon fill="black" stroke="black" points="1349.57,-47.79 1358.55,-42.15 1348.02,-40.96 1349.57,-47.79"/>
</g>
<!-- nt12 -->
<g id="node13" class="node">
<title>nt12</title>
<ellipse fill="none" stroke="black" cx="1767.27" cy="-77" rx="38.99" ry="18"/>
<text text-anchor="middle" x="1767.27" y="-73.3" font-family="Times,serif" font-size="14.00">actual</text>
</g>
<!-- nt5&#45;&gt;nt12 -->
<g id="edge8" class="edge">
<title>nt5&#45;&gt;nt12</title>
<path fill="none" stroke="black" d="M1692.46,-77C1700.82,-77 1709.45,-77 1717.74,-77"/>
<polygon fill="black" stroke="black" points="1718,-80.5 1728,-77 1718,-73.5 1718,-80.5"/>
</g>
<!-- nt6&#45;&gt;nt1 -->
<g id="edge9" class="edge">
<title>nt6&#45;&gt;nt1</title>
<path fill="none" stroke="black" d="M568.11,-99.49C601.5,-107.01 650.5,-117.03 693.85,-122 918.96,-147.79 976.73,-141 1203.31,-141 1203.31,-141 1203.31,-141 1768.27,-141 1847.39,-141 1939.03,-138.99 1995.48,-137.52"/>
<polygon fill="black" stroke="black" points="1995.69,-141.01 2005.59,-137.25 1995.51,-134.01 1995.69,-141.01"/>
</g>
<!-- nt6&#45;&gt;nt2 -->
<g id="edge10" class="edge">
<title>nt6&#45;&gt;nt2</title>
<path fill="none" stroke="black" d="M575.24,-88.35C607.24,-87.23 652,-85.67 698.07,-84.05"/>
<polygon fill="black" stroke="black" points="698.36,-87.55 708.23,-83.7 698.11,-80.55 698.36,-87.55"/>
</g>
<!-- nt7&#45;&gt;nt5 -->
<g id="edge11" class="edge">
<title>nt7&#45;&gt;nt5</title>
<path fill="none" stroke="black" d="M1492.07,-42.34C1522.25,-49.48 1557.69,-57.86 1586.16,-64.59"/>
<polygon fill="black" stroke="black" points="1585.38,-68 1595.92,-66.9 1586.99,-61.19 1585.38,-68"/>
</g>
<!-- nt7&#45;&gt;nt7 -->
<g id="edge12" class="edge">
<title>nt7&#45;&gt;nt7</title>
<path fill="none" stroke="black" d="M1388.34,-44.41C1381.28,-54.09 1393.9,-63 1426.19,-63 1446.38,-63 1458.88,-59.52 1463.69,-54.54"/>
<polygon fill="black" stroke="black" points="1467.19,-54.53 1464.04,-44.41 1460.19,-54.28 1467.19,-54.53"/>
</g>
<!-- nt8&#45;&gt;nt8 -->
<g id="edge13" class="edge">
<title>nt8&#45;&gt;nt8</title>
<path fill="none" stroke="black" d="M491.51,-35.41C484.84,-45.09 496.74,-54 527.21,-54 546.26,-54 558.05,-50.52 562.58,-45.54"/>
<polygon fill="black" stroke="black" points="566.09,-45.52 562.92,-35.41 559.09,-45.29 566.09,-45.52"/>
</g>
<!-- nt9 -->
<g id="node10" class="node">
<title>nt9</title>
<ellipse fill="none" stroke="black" cx="2049.85" cy="-77" rx="49.29" ry="18"/>
<text text-anchor="middle" x="2049.85" y="-73.3" font-family="Times,serif" font-size="14.00">modifier</text>
</g>
<!-- nt10&#45;&gt;nt3 -->
<g id="edge14" class="edge">
<title>nt10&#45;&gt;nt3</title>
<path fill="none" stroke="black" d="M255.71,-54C264.25,-54 273,-54 281.3,-54"/>
<polygon fill="black" stroke="black" points="281.5,-57.5 291.5,-54 281.5,-50.5 281.5,-57.5"/>
</g>
<!-- nt11 -->
<g id="node12" class="node">
<title>nt11</title>
<ellipse fill="none" stroke="black" cx="1903.36" cy="-77" rx="61.19" ry="18"/>
<text text-anchor="middle" x="1903.36" y="-73.3" font-family="Times,serif" font-size="14.00">expression</text>
</g>
<!-- nt11&#45;&gt;nt1 -->
<g id="edge15" class="edge">
<title>nt11&#45;&gt;nt1</title>
<path fill="none" stroke="black" d="M1940.08,-91.58C1960.8,-100.05 1986.97,-110.73 2008.45,-119.5"/>
<polygon fill="black" stroke="black" points="2007.37,-122.84 2017.95,-123.38 2010.02,-116.36 2007.37,-122.84"/>
</g>
<!-- nt11&#45;&gt;nt9 -->
<g id="edge16" class="edge">
<title>nt11&#45;&gt;nt9</title>
<path fill="none" stroke="black" d="M1964.8,-77C1973.16,-77 1981.73,-77 1990.06,-77"/>
<polygon fill="black" stroke="black" points="1990.06,-80.5 2000.06,-77 1990.06,-73.5 1990.06,-80.5"/>
</g>
<!-- nt11&#45;&gt;nt11 -->
<g id="edge17" class="edge">
<title>nt11&#45;&gt;nt11</title>
<path fill="none" stroke="black" d="M1879.45,-93.66C1874.14,-103.62 1882.11,-113 1903.36,-113 1916.97,-113 1925.14,-109.15 1927.85,-103.77"/>
<polygon fill="black" stroke="black" points="1931.34,-103.45 1927.27,-93.66 1924.35,-103.85 1931.34,-103.45"/>
</g>
<!-- nt12&#45;&gt;nt11 -->
<g id="edge18" class="edge">
<title>nt12&#45;&gt;nt11</title>
<path fill="none" stroke="black" d="M1806.34,-77C1814.44,-77 1823.24,-77 1832.11,-77"/>
<polygon fill="black" stroke="black" points="1832.13,-80.5 1842.13,-77 1832.13,-73.5 1832.13,-80.5"/>
</g>
</g>
</svg>
