<?xml version="1.0" encoding="UTF-8" standalone="no"?>
<!DOCTYPE svg PUBLIC "-//W3C//DTD SVG 1.1//EN"
 "http://www.w3.org/Graphics/SVG/1.1/DTD/svg11.dtd">
<!-- Generated by graphviz version 2.43.0 (0)
 -->
<!-- Title: G Pages: 1 -->
<svg width="137pt" height="2550pt"
 viewBox="0.00 0.00 32.94 612.00" xmlns="http://www.w3.org/2000/svg" xmlns:xlink="http://www.w3.org/1999/xlink">
<g id="graph0" class="graph" transform="scale(1.3 1.3) rotate(-90) translate(-3321.74 175)">
<title>G</title>
<polygon fill="white" stroke="transparent" points="-4,4 -4,-175 3321.74,-175 3321.74,4 -4,4"/>
<!-- nt0 -->
<g id="node1" class="node">
<title>nt0</title>
<ellipse fill="none" stroke="black" cx="55.9" cy="-54" rx="55.79" ry="18"/>
<text text-anchor="middle" x="55.9" y="-50.3" font-family="Times,serif" font-size="14.00">grammar&#39;</text>
</g>
<!-- nt13 -->
<g id="node14" class="node">
<title>nt13</title>
<ellipse fill="none" stroke="black" cx="201.74" cy="-54" rx="53.89" ry="18"/>
<text text-anchor="middle" x="201.74" y="-50.3" font-family="Times,serif" font-size="14.00">grammar</text>
</g>
<!-- nt0&#45;&gt;nt13 -->
<g id="edge1" class="edge">
<title>nt0&#45;&gt;nt13</title>
<path fill="none" stroke="black" d="M112.1,-54C120.32,-54 128.85,-54 137.23,-54"/>
<polygon fill="black" stroke="black" points="137.34,-57.5 147.34,-54 137.34,-50.5 137.34,-57.5"/>
</g>
<!-- nt1 -->
<g id="node2" class="node">
<title>nt1</title>
<ellipse fill="none" stroke="black" cx="3055.56" cy="-153" rx="44.39" ry="18"/>
<text text-anchor="middle" x="3055.56" y="-149.3" font-family="Times,serif" font-size="14.00">symbol</text>
</g>
<!-- nt2 -->
<g id="node3" class="node">
<title>nt2</title>
<ellipse fill="none" stroke="black" cx="585.45" cy="-54" rx="293.55" ry="18"/>
<text text-anchor="middle" x="585.45" y="-50.3" font-family="Times,serif" font-size="14.00">separated_nonempty_list(nonempty_list(NEWLINE),old_rule)</text>
</g>
<!-- nt2&#45;&gt;nt2 -->
<g id="edge2" class="edge">
<title>nt2&#45;&gt;nt2</title>
<path fill="none" stroke="black" d="M516.78,-71.78C505.12,-81.31 528.01,-90 585.45,-90 621.36,-90 643.77,-86.61 652.67,-81.74"/>
<polygon fill="black" stroke="black" points="656.14,-82.18 654.12,-71.78 649.22,-81.17 656.14,-82.18"/>
</g>
<!-- nt9 -->
<g id="node10" class="node">
<title>nt9</title>
<ellipse fill="none" stroke="black" cx="1045.87" cy="-90" rx="48.19" ry="18"/>
<text text-anchor="middle" x="1045.87" y="-86.3" font-family="Times,serif" font-size="14.00">old_rule</text>
</g>
<!-- nt2&#45;&gt;nt9 -->
<g id="edge3" class="edge">
<title>nt2&#45;&gt;nt9</title>
<path fill="none" stroke="black" d="M766.97,-68.18C845.83,-74.37 932.74,-81.19 988.01,-85.53"/>
<polygon fill="black" stroke="black" points="988.05,-89.05 998.29,-86.34 988.59,-82.07 988.05,-89.05"/>
</g>
<!-- nt10 -->
<g id="node11" class="node">
<title>nt10</title>
<ellipse fill="none" stroke="black" cx="1045.87" cy="-18" rx="130.78" ry="18"/>
<text text-anchor="middle" x="1045.87" y="-14.3" font-family="Times,serif" font-size="14.00">nonempty_list(NEWLINE)</text>
</g>
<!-- nt2&#45;&gt;nt10 -->
<g id="edge4" class="edge">
<title>nt2&#45;&gt;nt10</title>
<path fill="none" stroke="black" d="M766.97,-39.82C818.9,-35.75 874.33,-31.39 921.91,-27.66"/>
<polygon fill="black" stroke="black" points="922.24,-31.14 931.94,-26.87 921.69,-24.16 922.24,-31.14"/>
</g>
<!-- nt3 -->
<g id="node4" class="node">
<title>nt3</title>
<ellipse fill="none" stroke="black" cx="1451.03" cy="-90" rx="238.56" ry="18"/>
<text text-anchor="middle" x="1451.03" y="-86.3" font-family="Times,serif" font-size="14.00">separated_nonempty_list(BAR,production_group)</text>
</g>
<!-- nt3&#45;&gt;nt3 -->
<g id="edge5" class="edge">
<title>nt3&#45;&gt;nt3</title>
<path fill="none" stroke="black" d="M1385.69,-107.41C1373.5,-117.09 1395.28,-126 1451.03,-126 1485.88,-126 1507.46,-122.52 1515.76,-117.54"/>
<polygon fill="black" stroke="black" points="1519.27,-117.6 1516.38,-107.41 1512.28,-117.18 1519.27,-117.6"/>
</g>
<!-- nt5 -->
<g id="node6" class="node">
<title>nt5</title>
<ellipse fill="none" stroke="black" cx="1818.5" cy="-90" rx="92.88" ry="18"/>
<text text-anchor="middle" x="1818.5" y="-86.3" font-family="Times,serif" font-size="14.00">production_group</text>
</g>
<!-- nt3&#45;&gt;nt5 -->
<g id="edge6" class="edge">
<title>nt3&#45;&gt;nt5</title>
<path fill="none" stroke="black" d="M1689.68,-90C1698.5,-90 1707.13,-90 1715.48,-90"/>
<polygon fill="black" stroke="black" points="1715.52,-93.5 1725.52,-90 1715.52,-86.5 1715.52,-93.5"/>
</g>
<!-- nt4 -->
<g id="node5" class="node">
<title>nt4</title>
<ellipse fill="none" stroke="black" cx="2154.13" cy="-90" rx="206.86" ry="18"/>
<text text-anchor="middle" x="2154.13" y="-86.3" font-family="Times,serif" font-size="14.00">separated_nonempty_list(BAR,production)</text>
</g>
<!-- nt4&#45;&gt;nt4 -->
<g id="edge7" class="edge">
<title>nt4&#45;&gt;nt4</title>
<path fill="none" stroke="black" d="M2100.21,-107.41C2090.15,-117.09 2108.12,-126 2154.13,-126 2182.88,-126 2200.69,-122.52 2207.54,-117.54"/>
<polygon fill="black" stroke="black" points="2211.04,-117.57 2208.04,-107.41 2204.05,-117.22 2211.04,-117.57"/>
</g>
<!-- nt6 -->
<g id="node7" class="node">
<title>nt6</title>
<ellipse fill="none" stroke="black" cx="2457.9" cy="-90" rx="61.19" ry="18"/>
<text text-anchor="middle" x="2457.9" y="-86.3" font-family="Times,serif" font-size="14.00">production</text>
</g>
<!-- nt4&#45;&gt;nt6 -->
<g id="edge8" class="edge">
<title>nt4&#45;&gt;nt6</title>
<path fill="none" stroke="black" d="M2361.01,-90C2369.85,-90 2378.41,-90 2386.52,-90"/>
<polygon fill="black" stroke="black" points="2386.56,-93.5 2396.56,-90 2386.56,-86.5 2386.56,-93.5"/>
</g>
<!-- nt5&#45;&gt;nt4 -->
<g id="edge9" class="edge">
<title>nt5&#45;&gt;nt4</title>
<path fill="none" stroke="black" d="M1911.55,-90C1919.73,-90 1928.21,-90 1936.89,-90"/>
<polygon fill="black" stroke="black" points="1937.16,-93.5 1947.16,-90 1937.16,-86.5 1937.16,-93.5"/>
</g>
<!-- nt11 -->
<g id="node12" class="node">
<title>nt11</title>
<ellipse fill="none" stroke="black" cx="2629.09" cy="-90" rx="74.19" ry="18"/>
<text text-anchor="middle" x="2629.09" y="-86.3" font-family="Times,serif" font-size="14.00">list(producer)</text>
</g>
<!-- nt6&#45;&gt;nt11 -->
<g id="edge10" class="edge">
<title>nt6&#45;&gt;nt11</title>
<path fill="none" stroke="black" d="M2519.03,-90C2527.36,-90 2536.03,-90 2544.69,-90"/>
<polygon fill="black" stroke="black" points="2544.83,-93.5 2554.83,-90 2544.83,-86.5 2544.83,-93.5"/>
</g>
<!-- nt7 -->
<g id="node8" class="node">
<title>nt7</title>
<ellipse fill="none" stroke="black" cx="2791.83" cy="-95" rx="52.79" ry="18"/>
<text text-anchor="middle" x="2791.83" y="-91.3" font-family="Times,serif" font-size="14.00">producer</text>
</g>
<!-- nt15 -->
<g id="node16" class="node">
<title>nt15</title>
<ellipse fill="none" stroke="black" cx="2919.47" cy="-97" rx="38.99" ry="18"/>
<text text-anchor="middle" x="2919.47" y="-93.3" font-family="Times,serif" font-size="14.00">actual</text>
</g>
<!-- nt7&#45;&gt;nt15 -->
<g id="edge11" class="edge">
<title>nt7&#45;&gt;nt15</title>
<path fill="none" stroke="black" d="M2844.66,-95.83C2853.02,-95.96 2861.66,-96.1 2869.94,-96.23"/>
<polygon fill="black" stroke="black" points="2870.15,-99.73 2880.2,-96.39 2870.26,-92.73 2870.15,-99.73"/>
</g>
<!-- nt8 -->
<g id="node9" class="node">
<title>nt8</title>
<ellipse fill="none" stroke="black" cx="1451.03" cy="-36" rx="68.49" ry="18"/>
<text text-anchor="middle" x="1451.03" y="-32.3" font-family="Times,serif" font-size="14.00">optional_bar</text>
</g>
<!-- nt9&#45;&gt;nt1 -->
<g id="edge12" class="edge">
<title>nt9&#45;&gt;nt1</title>
<path fill="none" stroke="black" d="M1081.9,-102.09C1115.08,-112.92 1166.53,-128.13 1212.51,-135 1478.57,-174.76 1548.48,-154 1817.5,-154 1817.5,-154 1817.5,-154 2792.83,-154 2864.83,-154 2947.96,-153.62 3000.87,-153.33"/>
<polygon fill="black" stroke="black" points="3001.05,-156.82 3011.03,-153.27 3001.01,-149.82 3001.05,-156.82"/>
</g>
<!-- nt9&#45;&gt;nt3 -->
<g id="edge13" class="edge">
<title>nt9&#45;&gt;nt3</title>
<path fill="none" stroke="black" d="M1094.3,-90C1122.57,-90 1160.87,-90 1201.89,-90"/>
<polygon fill="black" stroke="black" points="1202.09,-93.5 1212.09,-90 1202.09,-86.5 1202.09,-93.5"/>
</g>
<!-- nt9&#45;&gt;nt8 -->
<g id="edge14" class="edge">
<title>nt9&#45;&gt;nt8</title>
<path fill="none" stroke="black" d="M1089.68,-82.44C1123.07,-76.68 1170.66,-68.79 1212.51,-63 1267.47,-55.4 1329.8,-48.38 1376.82,-43.4"/>
<polygon fill="black" stroke="black" points="1377.34,-46.86 1386.92,-42.33 1376.6,-39.9 1377.34,-46.86"/>
</g>
<!-- nt10&#45;&gt;nt10 -->
<g id="edge15" class="edge">
<title>nt10&#45;&gt;nt10</title>
<path fill="none" stroke="black" d="M977.15,-33.35C957.07,-43.79 979.98,-54 1045.87,-54 1096.31,-54 1121.56,-48.01 1121.62,-40.52"/>
<polygon fill="black" stroke="black" points="1124.09,-38.04 1114.58,-33.35 1119.09,-42.94 1124.09,-38.04"/>
</g>
<!-- nt11&#45;&gt;nt7 -->
<g id="edge16" class="edge">
<title>nt11&#45;&gt;nt7</title>
<path fill="none" stroke="black" d="M2702.94,-92.27C2711.68,-92.54 2720.54,-92.81 2729.1,-93.08"/>
<polygon fill="black" stroke="black" points="2729.26,-96.59 2739.36,-93.4 2729.48,-89.59 2729.26,-96.59"/>
</g>
<!-- nt11&#45;&gt;nt11 -->
<g id="edge17" class="edge">
<title>nt11&#45;&gt;nt11</title>
<path fill="none" stroke="black" d="M2600.62,-106.66C2594.29,-116.62 2603.78,-126 2629.09,-126 2645.31,-126 2655.03,-122.15 2658.26,-116.77"/>
<polygon fill="black" stroke="black" points="2661.74,-116.4 2657.57,-106.66 2654.76,-116.88 2661.74,-116.4"/>
</g>
<!-- nt12 -->
<g id="node13" class="node">
<title>nt12</title>
<ellipse fill="none" stroke="black" cx="3235.2" cy="-97" rx="82.59" ry="18"/>
<text text-anchor="middle" x="3235.2" y="-93.3" font-family="Times,serif" font-size="14.00">list(expression)</text>
</g>
<!-- nt12&#45;&gt;nt12 -->
<g id="edge18" class="edge">
<title>nt12&#45;&gt;nt12</title>
<path fill="none" stroke="black" d="M3203.91,-113.66C3196.96,-123.62 3207.39,-133 3235.2,-133 3253.02,-133 3263.7,-129.15 3267.25,-123.77"/>
<polygon fill="black" stroke="black" points="3270.73,-123.37 3266.49,-113.66 3263.75,-123.9 3270.73,-123.37"/>
</g>
<!-- nt14 -->
<g id="node15" class="node">
<title>nt14</title>
<ellipse fill="none" stroke="black" cx="3055.56" cy="-97" rx="61.19" ry="18"/>
<text text-anchor="middle" x="3055.56" y="-93.3" font-family="Times,serif" font-size="14.00">expression</text>
</g>
<!-- nt12&#45;&gt;nt14 -->
<g id="edge19" class="edge">
<title>nt12&#45;&gt;nt14</title>
<path fill="none" stroke="black" d="M3158.55,-103.68C3146.67,-103.8 3134.48,-103.76 3122.84,-103.55"/>
<polygon fill="black" stroke="black" points="3122.85,-100.05 3112.77,-103.33 3122.69,-107.05 3122.85,-100.05"/>
</g>
<!-- nt13&#45;&gt;nt2 -->
<g id="edge20" class="edge">
<title>nt13&#45;&gt;nt2</title>
<path fill="none" stroke="black" d="M255.81,-54C263.71,-54 272.28,-54 281.38,-54"/>
<polygon fill="black" stroke="black" points="281.46,-57.5 291.46,-54 281.46,-50.5 281.46,-57.5"/>
</g>
<!-- nt14&#45;&gt;nt12 -->
<g id="edge21" class="edge">
<title>nt14&#45;&gt;nt12</title>
<path fill="none" stroke="black" d="M3112.77,-90.67C3124.13,-90.37 3136.31,-90.23 3148.41,-90.25"/>
<polygon fill="black" stroke="black" points="3148.52,-93.75 3158.55,-90.32 3148.57,-86.75 3148.52,-93.75"/>
</g>
<!-- nt15&#45;&gt;nt1 -->
<g id="edge22" class="edge">
<title>nt15&#45;&gt;nt1</title>
<path fill="none" stroke="black" d="M2948.91,-108.88C2967.98,-116.84 2993.36,-127.44 3014.47,-136.26"/>
<polygon fill="black" stroke="black" points="3013.26,-139.54 3023.83,-140.17 3015.95,-133.08 3013.26,-139.54"/>
</g>
<!-- nt15&#45;&gt;nt14 -->
<g id="edge23" class="edge">
<title>nt15&#45;&gt;nt14</title>
<path fill="none" stroke="black" d="M2958.54,-97C2966.64,-97 2975.44,-97 2984.32,-97"/>
<polygon fill="black" stroke="black" points="2984.33,-100.5 2994.33,-97 2984.33,-93.5 2984.33,-100.5"/>
</g>
</g>
</svg>
